<svg width="109" height="109" viewBox="0 0 109 109" fill="none" xmlns="http://www.w3.org/2000/svg">
<path d="M44.5843 49.0195V18.1624C44.5843 16.7984 44.0424 15.4903 43.078 14.5258C42.1135 13.5614 40.8054 13.0195 39.4414 13.0195H8.58426C7.22029 13.0195 5.91219 13.5614 4.94771 14.5258C3.98324 15.4903 3.44141 16.7984 3.44141 18.1624L3.44141 49.0195C3.44141 50.3835 3.98324 51.6916 4.94771 52.6561C5.91219 53.6206 7.22029 54.1624 8.58426 54.1624H39.4414C40.8054 54.1624 42.1135 53.6206 43.078 52.6561C44.0424 51.6916 44.5843 50.3835 44.5843 49.0195ZM34.2986 43.8767H13.7271V23.3052H34.2986V43.8767ZM101.156 54.1624H70.2986C68.9346 54.1624 67.6265 54.7042 66.662 55.6687C65.6975 56.6332 65.1557 57.9413 65.1557 59.3052V90.1624C65.1557 91.5264 65.6975 92.8345 66.662 93.7989C67.6265 94.7634 68.9346 95.3053 70.2986 95.3053H101.156C102.52 95.3053 103.828 94.7634 104.792 93.7989C105.757 92.8345 106.299 91.5264 106.299 90.1624V59.3052C106.299 57.9413 105.757 56.6332 104.792 55.6687C103.828 54.7042 102.52 54.1624 101.156 54.1624ZM96.0128 85.0195H75.4414V64.4481H96.0128V85.0195ZM80.5843 49.0195V36.1624C80.5843 34.1164 79.7715 32.1543 78.3248 30.7076C76.8781 29.2609 74.9159 28.4481 72.87 28.4481H49.7271V49.0195C49.7241 51.7466 48.6395 54.361 46.7112 56.2893C44.7829 58.2176 42.1684 59.3023 39.4414 59.3052H29.1557V72.1624C29.1557 74.2083 29.9684 76.1705 31.4152 77.6172C32.8619 79.0639 34.824 79.8767 36.87 79.8767H60.0128V59.3052C60.0158 56.5782 61.1004 53.9637 63.0287 52.0354C64.957 50.1071 67.5715 49.0225 70.2986 49.0195H80.5843Z" fill="#32A7E3"/>
</svg>
