<svg width="59" height="59" viewBox="0 0 59 59" fill="none" xmlns="http://www.w3.org/2000/svg">
<path d="M29.3706 7.75391C17.5462 7.75391 7.96582 17.3343 7.96582 29.1587C7.96582 40.9831 17.5462 50.5634 29.3706 50.5634C41.195 50.5634 50.7753 40.9831 50.7753 29.1587C50.7753 17.3343 41.195 7.75391 29.3706 7.75391ZM37.3533 34.7688L35.6272 36.9265C35.5139 37.0682 35.3738 37.1861 35.2149 37.2736C35.0561 37.3611 34.8816 37.4164 34.7013 37.4365C34.5211 37.4565 34.3386 37.4408 34.1644 37.3904C33.9902 37.3399 33.8277 37.2556 33.6861 37.1423L27.9033 32.851C27.4993 32.5275 27.1731 32.1173 26.949 31.6507C26.7249 31.1841 26.6086 30.6731 26.6087 30.1555V16.7301C26.6087 16.3638 26.7542 16.0126 27.0131 15.7536C27.2721 15.4946 27.6234 15.3491 27.9896 15.3491H30.7515C31.1178 15.3491 31.469 15.4946 31.728 15.7536C31.987 16.0126 32.1325 16.3638 32.1325 16.7301V29.1587L37.1384 32.8268C37.2801 32.9402 37.3981 33.0803 37.4856 33.2393C37.5731 33.3983 37.6284 33.5729 37.6483 33.7533C37.6683 33.9336 37.6525 34.1161 37.6019 34.2904C37.5513 34.4646 37.4668 34.6272 37.3533 34.7688Z" fill="#172B4D"/>
</svg>
