<svg width="109" height="109" viewBox="0 0 109 109" fill="none" xmlns="http://www.w3.org/2000/svg">
<path d="M54.8698 14.3008C32.8568 14.3008 15.0127 32.1449 15.0127 54.1579C15.0127 76.171 32.8568 94.0151 54.8698 94.0151C76.8829 94.0151 94.727 76.171 94.727 54.1579C94.727 32.1449 76.8829 14.3008 54.8698 14.3008ZM54.8698 83.7293C38.5268 83.7293 25.2984 70.5042 25.2984 54.1579C25.2984 37.8149 38.5236 24.5865 54.8698 24.5865C71.2129 24.5865 84.4413 37.8117 84.4413 54.1579C84.4413 70.501 71.2161 83.7293 54.8698 83.7293ZM54.8698 33.5865C43.5089 33.5865 34.2984 42.797 34.2984 54.1579C34.2984 65.5188 43.5089 74.7293 54.8698 74.7293C66.2307 74.7293 75.4413 65.5188 75.4413 54.1579C75.4413 42.797 66.2307 33.5865 54.8698 33.5865ZM54.8698 64.4436C49.1982 64.4436 44.5841 59.8295 44.5841 54.1579C44.5841 48.4863 49.1982 43.8722 54.8698 43.8722C60.5414 43.8722 65.1555 48.4863 65.1555 54.1579C65.1555 59.8295 60.5414 64.4436 54.8698 64.4436Z" fill="#32A7E3"/>
</svg>
