<svg width="304" height="224" viewBox="0 0 304 224" fill="none" xmlns="http://www.w3.org/2000/svg">
<rect x="13.5" y="18.4492" width="289" height="203.621" rx="10.5" stroke="#BBBBBB" stroke-width="3" stroke-dasharray="6 6"/>
<rect x="116.328" y="46.4492" width="170.172" height="147.621" rx="10.5" stroke="#BBBBBB" stroke-width="3"/>
<g filter="url(#filter0_i_5510_1151)">
<g clip-path="url(#clip0_5510_1151)">
<path d="M130.828 63.0354C130.828 61.8832 131.762 60.9492 132.914 60.9492H170.466C171.618 60.9492 172.552 61.8832 172.552 63.0354V100.587C172.552 101.739 171.618 102.673 170.466 102.673H132.914C131.762 102.673 130.828 101.739 130.828 100.587V63.0354Z" fill="url(#paint0_linear_5510_1151)"/>
<path d="M130.828 102.673L156.384 77.1172" stroke="#BFC0BD" stroke-width="1.56466"/>
<rect x="152.211" y="60.9492" width="20.3405" height="20.3405" rx="2.08621" fill="#EFC125"/>
</g>
<rect x="135" y="102.672" width="8.34483" height="2.08621" rx="0.521552" fill="#BEBBBA"/>
<rect x="160.035" y="102.672" width="8.34483" height="2.08621" rx="0.521552" fill="#BEBBBA"/>
</g>
<g filter="url(#filter1_i_5510_1151)">
<g clip-path="url(#clip1_5510_1151)">
<path d="M180.553 63.0354C180.553 61.8832 181.487 60.9492 182.639 60.9492H220.191C221.343 60.9492 222.277 61.8832 222.277 63.0354V100.587C222.277 101.739 221.343 102.673 220.191 102.673H182.639C181.487 102.673 180.553 101.739 180.553 100.587V63.0354Z" fill="url(#paint1_linear_5510_1151)"/>
<path d="M180.553 102.673L206.109 77.1172" stroke="#BFC0BD" stroke-width="1.56466"/>
<rect x="201.936" y="60.9492" width="20.3405" height="20.3405" rx="2.08621" fill="#DC5F2A"/>
</g>
<rect x="184.725" y="102.672" width="8.34483" height="2.08621" rx="0.521552" fill="#BEBBBA"/>
<rect x="209.76" y="102.672" width="8.34483" height="2.08621" rx="0.521552" fill="#BEBBBA"/>
</g>
<g filter="url(#filter2_i_5510_1151)">
<g clip-path="url(#clip2_5510_1151)">
<path d="M230.277 63.0354C230.277 61.8832 231.211 60.9492 232.364 60.9492H269.915C271.067 60.9492 272.001 61.8832 272.001 63.0354V100.587C272.001 101.739 271.067 102.673 269.915 102.673H232.364C231.211 102.673 230.277 101.739 230.277 100.587V63.0354Z" fill="url(#paint2_linear_5510_1151)"/>
<path d="M230.277 102.673L255.833 77.1172" stroke="#BFC0BD" stroke-width="1.56466"/>
<rect x="251.66" y="60.9492" width="20.3405" height="20.3405" rx="2.08621" fill="#C11778"/>
</g>
<rect x="234.449" y="102.672" width="8.34483" height="2.08621" rx="0.521552" fill="#BEBBBA"/>
<rect x="259.484" y="102.672" width="8.34483" height="2.08621" rx="0.521552" fill="#BEBBBA"/>
</g>
<g filter="url(#filter3_i_5510_1151)">
<g clip-path="url(#clip3_5510_1151)">
<path d="M180.553 114.844C180.553 113.692 181.487 112.758 182.639 112.758H220.191C221.343 112.758 222.277 113.692 222.277 114.844V152.396C222.277 153.548 221.343 154.482 220.191 154.482H182.639C181.487 154.482 180.553 153.548 180.553 152.396V114.844Z" fill="url(#paint3_linear_5510_1151)"/>
<path d="M180.553 154.482L206.109 128.926" stroke="#BFC0BD" stroke-width="1.56466"/>
<rect x="201.936" y="112.758" width="20.3405" height="20.3405" rx="2.08621" fill="#97C23C"/>
</g>
<rect x="184.725" y="154.48" width="8.34483" height="2.08621" rx="0.521552" fill="#BEBBBA"/>
<rect x="209.76" y="154.48" width="8.34483" height="2.08621" rx="0.521552" fill="#BEBBBA"/>
</g>
<g filter="url(#filter4_i_5510_1151)">
<g clip-path="url(#clip4_5510_1151)">
<path d="M230.277 114.844C230.277 113.692 231.211 112.758 232.364 112.758H269.915C271.067 112.758 272.001 113.692 272.001 114.844V152.396C272.001 153.548 271.067 154.482 269.915 154.482H232.364C231.211 154.482 230.277 153.548 230.277 152.396V114.844Z" fill="url(#paint4_linear_5510_1151)"/>
<path d="M230.277 154.482L255.833 128.926" stroke="#BFC0BD" stroke-width="1.56466"/>
<rect x="251.66" y="112.758" width="20.3405" height="20.3405" rx="2.08621" fill="#1BABD5"/>
</g>
<rect x="234.449" y="154.48" width="8.34483" height="2.08621" rx="0.521552" fill="#BEBBBA"/>
<rect x="259.484" y="154.48" width="8.34483" height="2.08621" rx="0.521552" fill="#BEBBBA"/>
</g>
<path d="M187.268 176.714C186.644 176.714 186.06 176.602 185.516 176.378C184.98 176.146 184.508 175.826 184.1 175.418C183.692 175.002 183.372 174.514 183.14 173.954C182.908 173.386 182.792 172.766 182.792 172.094C182.792 171.422 182.908 170.806 183.14 170.246C183.372 169.678 183.692 169.19 184.1 168.782C184.508 168.366 184.98 168.046 185.516 167.822C186.06 167.598 186.644 167.486 187.268 167.486C187.892 167.486 188.472 167.602 189.008 167.834C189.552 168.058 190.028 168.378 190.436 168.794C190.844 169.202 191.164 169.686 191.396 170.246C191.628 170.806 191.744 171.422 191.744 172.094C191.744 172.766 191.628 173.386 191.396 173.954C191.164 174.514 190.844 175.002 190.436 175.418C190.028 175.826 189.552 176.146 189.008 176.378C188.472 176.602 187.892 176.714 187.268 176.714ZM187.268 175.814C187.788 175.814 188.26 175.718 188.684 175.526C189.116 175.334 189.488 175.066 189.8 174.722C190.112 174.378 190.352 173.982 190.52 173.534C190.696 173.086 190.784 172.606 190.784 172.094C190.784 171.59 190.696 171.114 190.52 170.666C190.352 170.218 190.112 169.822 189.8 169.478C189.488 169.134 189.116 168.866 188.684 168.674C188.26 168.482 187.788 168.386 187.268 168.386C186.748 168.386 186.272 168.482 185.84 168.674C185.416 168.866 185.048 169.134 184.736 169.478C184.424 169.822 184.18 170.218 184.004 170.666C183.836 171.114 183.752 171.59 183.752 172.094C183.752 172.606 183.836 173.086 184.004 173.534C184.18 173.982 184.424 174.378 184.736 174.722C185.048 175.066 185.42 175.334 185.852 175.526C186.284 175.718 186.756 175.814 187.268 175.814ZM193.459 176.57V170.138H194.359V171.386L194.155 171.338C194.315 170.922 194.575 170.594 194.935 170.354C195.303 170.114 195.727 169.994 196.207 169.994C196.663 169.994 197.071 170.098 197.431 170.306C197.799 170.514 198.087 170.802 198.295 171.17C198.511 171.53 198.619 171.938 198.619 172.394V176.57H197.719V172.742C197.719 172.35 197.647 172.018 197.503 171.746C197.367 171.474 197.171 171.266 196.915 171.122C196.667 170.97 196.379 170.894 196.051 170.894C195.723 170.894 195.431 170.97 195.175 171.122C194.919 171.266 194.719 171.478 194.575 171.758C194.431 172.03 194.359 172.358 194.359 172.742V176.57H193.459ZM200.302 173.774V172.934H204.502V173.774H200.302ZM208.547 176.714C207.931 176.714 207.391 176.558 206.927 176.246C206.463 175.934 206.127 175.51 205.919 174.974L206.675 174.614C206.859 175.006 207.115 175.318 207.443 175.55C207.779 175.782 208.147 175.898 208.547 175.898C208.931 175.898 209.255 175.806 209.519 175.622C209.783 175.43 209.915 175.182 209.915 174.878C209.915 174.654 209.851 174.478 209.723 174.35C209.595 174.214 209.447 174.11 209.279 174.038C209.111 173.966 208.963 173.914 208.835 173.882L207.911 173.618C207.319 173.45 206.891 173.214 206.627 172.91C206.363 172.606 206.231 172.254 206.231 171.854C206.231 171.478 206.327 171.15 206.519 170.87C206.711 170.59 206.971 170.374 207.299 170.222C207.627 170.07 207.991 169.994 208.391 169.994C208.935 169.994 209.427 170.138 209.867 170.426C210.315 170.706 210.631 171.098 210.815 171.602L210.047 171.962C209.887 171.602 209.655 171.322 209.351 171.122C209.055 170.914 208.723 170.81 208.355 170.81C207.995 170.81 207.707 170.902 207.491 171.086C207.275 171.27 207.167 171.502 207.167 171.782C207.167 171.998 207.223 172.17 207.335 172.298C207.447 172.426 207.575 172.522 207.719 172.586C207.871 172.65 208.003 172.698 208.115 172.73L209.183 173.042C209.703 173.194 210.107 173.43 210.395 173.75C210.691 174.07 210.839 174.446 210.839 174.878C210.839 175.23 210.739 175.546 210.539 175.826C210.347 176.106 210.079 176.326 209.735 176.486C209.391 176.638 208.995 176.714 208.547 176.714ZM212.42 176.57V170.138H213.32V176.57H212.42ZM212.42 168.95V167.63H213.32V168.95H212.42ZM217.622 176.642C217.046 176.642 216.602 176.474 216.29 176.138C215.978 175.802 215.822 175.322 215.822 174.698V171.038H214.634V170.138H214.934C215.206 170.138 215.422 170.05 215.582 169.874C215.742 169.69 215.822 169.462 215.822 169.19V168.65H216.722V170.138H218.138V171.038H216.722V174.698C216.722 174.914 216.754 175.106 216.818 175.274C216.882 175.434 216.99 175.562 217.142 175.658C217.302 175.754 217.514 175.802 217.778 175.802C217.842 175.802 217.918 175.798 218.006 175.79C218.094 175.782 218.17 175.774 218.234 175.766V176.57C218.138 176.594 218.03 176.61 217.91 176.618C217.79 176.634 217.694 176.642 217.622 176.642ZM222.508 176.714C221.908 176.714 221.364 176.57 220.876 176.282C220.396 175.986 220.016 175.582 219.736 175.07C219.456 174.558 219.316 173.978 219.316 173.33C219.316 172.682 219.452 172.11 219.724 171.614C219.996 171.11 220.364 170.714 220.828 170.426C221.3 170.138 221.828 169.994 222.412 169.994C222.876 169.994 223.288 170.082 223.648 170.258C224.016 170.426 224.328 170.658 224.584 170.954C224.84 171.242 225.036 171.57 225.172 171.938C225.308 172.298 225.376 172.67 225.376 173.054C225.376 173.134 225.372 173.226 225.364 173.33C225.356 173.426 225.344 173.526 225.328 173.63H219.892V172.79H224.812L224.38 173.15C224.452 172.71 224.4 172.318 224.224 171.974C224.056 171.622 223.812 171.346 223.492 171.146C223.172 170.938 222.812 170.834 222.412 170.834C222.012 170.834 221.64 170.938 221.296 171.146C220.96 171.354 220.696 171.646 220.504 172.022C220.312 172.39 220.236 172.83 220.276 173.342C220.236 173.854 220.316 174.302 220.516 174.686C220.724 175.062 221.004 175.354 221.356 175.562C221.716 175.77 222.1 175.874 222.508 175.874C222.98 175.874 223.376 175.762 223.696 175.538C224.016 175.314 224.276 175.034 224.476 174.698L225.244 175.106C225.116 175.394 224.92 175.662 224.656 175.91C224.392 176.15 224.076 176.346 223.708 176.498C223.348 176.642 222.948 176.714 222.508 176.714ZM232.146 176.714C231.578 176.714 231.062 176.606 230.598 176.39C230.134 176.174 229.742 175.886 229.422 175.526C229.102 175.158 228.874 174.754 228.738 174.314L229.602 173.99C229.81 174.598 230.134 175.062 230.574 175.382C231.014 175.694 231.538 175.85 232.146 175.85C232.53 175.85 232.866 175.79 233.154 175.67C233.45 175.542 233.678 175.366 233.838 175.142C233.998 174.918 234.078 174.658 234.078 174.362C234.078 173.922 233.958 173.582 233.718 173.342C233.478 173.102 233.134 172.918 232.686 172.79L231.078 172.31C230.446 172.126 229.958 171.818 229.614 171.386C229.278 170.954 229.11 170.462 229.11 169.91C229.11 169.438 229.226 169.022 229.458 168.662C229.69 168.294 230.006 168.006 230.406 167.798C230.814 167.59 231.274 167.486 231.786 167.486C232.322 167.486 232.802 167.586 233.226 167.786C233.658 167.978 234.022 168.234 234.318 168.554C234.614 168.874 234.826 169.23 234.954 169.622L234.114 169.958C233.922 169.43 233.622 169.03 233.214 168.758C232.814 168.486 232.342 168.35 231.798 168.35C231.454 168.35 231.15 168.41 230.886 168.53C230.63 168.65 230.43 168.822 230.286 169.046C230.142 169.27 230.07 169.534 230.07 169.838C230.07 170.206 230.186 170.538 230.418 170.834C230.65 171.122 231.006 171.338 231.486 171.482L232.902 171.902C233.606 172.11 234.138 172.41 234.498 172.802C234.858 173.194 235.038 173.686 235.038 174.278C235.038 174.758 234.914 175.182 234.666 175.55C234.426 175.91 234.086 176.194 233.646 176.402C233.214 176.61 232.714 176.714 232.146 176.714ZM236.892 179.21C236.764 179.21 236.632 179.198 236.496 179.174C236.368 179.158 236.24 179.126 236.112 179.078V178.238C236.192 178.246 236.292 178.258 236.412 178.274C236.54 178.298 236.668 178.31 236.796 178.31C237.188 178.31 237.488 178.226 237.696 178.058C237.904 177.898 238.108 177.586 238.308 177.122L238.716 176.162L238.692 176.954L235.968 170.138H236.94L239.172 175.766H238.92L241.14 170.138H242.136L239.196 177.386C239.068 177.698 238.904 177.994 238.704 178.274C238.512 178.554 238.268 178.778 237.972 178.946C237.676 179.122 237.316 179.21 236.892 179.21ZM245.426 176.714C244.81 176.714 244.27 176.558 243.806 176.246C243.342 175.934 243.006 175.51 242.798 174.974L243.554 174.614C243.738 175.006 243.994 175.318 244.322 175.55C244.658 175.782 245.026 175.898 245.426 175.898C245.81 175.898 246.134 175.806 246.398 175.622C246.662 175.43 246.794 175.182 246.794 174.878C246.794 174.654 246.73 174.478 246.602 174.35C246.474 174.214 246.326 174.11 246.158 174.038C245.99 173.966 245.842 173.914 245.714 173.882L244.79 173.618C244.198 173.45 243.77 173.214 243.506 172.91C243.242 172.606 243.11 172.254 243.11 171.854C243.11 171.478 243.206 171.15 243.398 170.87C243.59 170.59 243.85 170.374 244.178 170.222C244.506 170.07 244.87 169.994 245.27 169.994C245.814 169.994 246.306 170.138 246.746 170.426C247.194 170.706 247.51 171.098 247.694 171.602L246.926 171.962C246.766 171.602 246.534 171.322 246.23 171.122C245.934 170.914 245.602 170.81 245.234 170.81C244.874 170.81 244.586 170.902 244.37 171.086C244.154 171.27 244.046 171.502 244.046 171.782C244.046 171.998 244.102 172.17 244.214 172.298C244.326 172.426 244.454 172.522 244.598 172.586C244.75 172.65 244.882 172.698 244.994 172.73L246.062 173.042C246.582 173.194 246.986 173.43 247.274 173.75C247.57 174.07 247.718 174.446 247.718 174.878C247.718 175.23 247.618 175.546 247.418 175.826C247.226 176.106 246.958 176.326 246.614 176.486C246.27 176.638 245.874 176.714 245.426 176.714ZM251.759 176.642C251.183 176.642 250.739 176.474 250.427 176.138C250.115 175.802 249.959 175.322 249.959 174.698V171.038H248.771V170.138H249.071C249.343 170.138 249.559 170.05 249.719 169.874C249.879 169.69 249.959 169.462 249.959 169.19V168.65H250.859V170.138H252.275V171.038H250.859V174.698C250.859 174.914 250.891 175.106 250.955 175.274C251.019 175.434 251.127 175.562 251.279 175.658C251.439 175.754 251.651 175.802 251.915 175.802C251.979 175.802 252.055 175.798 252.143 175.79C252.231 175.782 252.307 175.774 252.371 175.766V176.57C252.275 176.594 252.167 176.61 252.047 176.618C251.927 176.634 251.831 176.642 251.759 176.642ZM256.645 176.714C256.045 176.714 255.501 176.57 255.013 176.282C254.533 175.986 254.153 175.582 253.873 175.07C253.593 174.558 253.453 173.978 253.453 173.33C253.453 172.682 253.589 172.11 253.861 171.614C254.133 171.11 254.501 170.714 254.965 170.426C255.437 170.138 255.965 169.994 256.549 169.994C257.013 169.994 257.425 170.082 257.785 170.258C258.153 170.426 258.465 170.658 258.721 170.954C258.977 171.242 259.173 171.57 259.309 171.938C259.445 172.298 259.513 172.67 259.513 173.054C259.513 173.134 259.509 173.226 259.501 173.33C259.493 173.426 259.481 173.526 259.465 173.63H254.029V172.79H258.949L258.517 173.15C258.589 172.71 258.537 172.318 258.361 171.974C258.193 171.622 257.949 171.346 257.629 171.146C257.309 170.938 256.949 170.834 256.549 170.834C256.149 170.834 255.777 170.938 255.433 171.146C255.097 171.354 254.833 171.646 254.641 172.022C254.449 172.39 254.373 172.83 254.413 173.342C254.373 173.854 254.453 174.302 254.653 174.686C254.861 175.062 255.141 175.354 255.493 175.562C255.853 175.77 256.237 175.874 256.645 175.874C257.117 175.874 257.513 175.762 257.833 175.538C258.153 175.314 258.413 175.034 258.613 174.698L259.381 175.106C259.253 175.394 259.057 175.662 258.793 175.91C258.529 176.15 258.213 176.346 257.845 176.498C257.485 176.642 257.085 176.714 256.645 176.714ZM261.1 176.57V170.138H262V171.362L261.856 171.182C262.032 170.806 262.292 170.514 262.636 170.306C262.988 170.098 263.372 169.994 263.788 169.994C264.284 169.994 264.732 170.134 265.132 170.414C265.532 170.694 265.816 171.058 265.984 171.506L265.732 171.518C265.892 171.022 266.168 170.646 266.56 170.39C266.96 170.126 267.4 169.994 267.88 169.994C268.312 169.994 268.708 170.098 269.068 170.306C269.436 170.514 269.728 170.802 269.944 171.17C270.168 171.53 270.28 171.938 270.28 172.394V176.57H269.38V172.742C269.38 172.35 269.308 172.018 269.164 171.746C269.028 171.474 268.84 171.266 268.6 171.122C268.36 170.97 268.084 170.894 267.772 170.894C267.468 170.894 267.192 170.97 266.944 171.122C266.696 171.266 266.5 171.478 266.356 171.758C266.212 172.03 266.14 172.358 266.14 172.742V176.57H265.24V172.742C265.24 172.35 265.168 172.018 265.024 171.746C264.888 171.474 264.7 171.266 264.46 171.122C264.22 170.97 263.944 170.894 263.632 170.894C263.32 170.894 263.04 170.97 262.792 171.122C262.552 171.266 262.36 171.478 262.216 171.758C262.072 172.03 262 172.358 262 172.742V176.57H261.1Z" fill="#172B4D"/>
<rect x="63" y="0.597656" width="78" height="31" rx="7" fill="#7F7F7F"/>
<path d="M72.056 20.5977V11.6577H72.896L76.256 16.5297H75.788L79.136 11.6577H79.976V20.5977H79.016V12.9537L79.328 13.0737L76.04 17.8377H75.992L72.716 13.0737L73.016 12.9537V20.5977H72.056ZM84.9673 20.7417C84.3593 20.7417 83.8073 20.5977 83.3113 20.3097C82.8153 20.0137 82.4193 19.6137 82.1233 19.1097C81.8353 18.5977 81.6913 18.0177 81.6913 17.3697C81.6913 16.7297 81.8353 16.1577 82.1233 15.6537C82.4113 15.1497 82.7993 14.7537 83.2873 14.4657C83.7833 14.1697 84.3433 14.0217 84.9673 14.0217C85.5913 14.0217 86.1473 14.1657 86.6353 14.4537C87.1313 14.7417 87.5193 15.1377 87.7993 15.6417C88.0873 16.1457 88.2313 16.7217 88.2313 17.3697C88.2313 18.0257 88.0833 18.6097 87.7873 19.1217C87.4913 19.6257 87.0953 20.0217 86.5993 20.3097C86.1113 20.5977 85.5673 20.7417 84.9673 20.7417ZM84.9673 19.8417C85.3993 19.8417 85.7873 19.7337 86.1313 19.5177C86.4833 19.3017 86.7593 19.0057 86.9593 18.6297C87.1673 18.2537 87.2713 17.8337 87.2713 17.3697C87.2713 16.9057 87.1673 16.4897 86.9593 16.1217C86.7593 15.7537 86.4833 15.4617 86.1313 15.2457C85.7873 15.0297 85.3993 14.9217 84.9673 14.9217C84.5353 14.9217 84.1433 15.0297 83.7913 15.2457C83.4473 15.4617 83.1713 15.7537 82.9633 16.1217C82.7553 16.4897 82.6513 16.9057 82.6513 17.3697C82.6513 17.8337 82.7553 18.2537 82.9633 18.6297C83.1713 19.0057 83.4473 19.3017 83.7913 19.5177C84.1433 19.7337 84.5353 19.8417 84.9673 19.8417ZM89.8185 20.5977V14.1657H90.7185V15.4137L90.5145 15.3657C90.6745 14.9497 90.9345 14.6217 91.2945 14.3817C91.6625 14.1417 92.0865 14.0217 92.5665 14.0217C93.0225 14.0217 93.4305 14.1257 93.7905 14.3337C94.1585 14.5417 94.4465 14.8297 94.6545 15.1977C94.8705 15.5577 94.9785 15.9657 94.9785 16.4217V20.5977H94.0785V16.7697C94.0785 16.3777 94.0065 16.0457 93.8625 15.7737C93.7265 15.5017 93.5305 15.2937 93.2745 15.1497C93.0265 14.9977 92.7385 14.9217 92.4105 14.9217C92.0825 14.9217 91.7905 14.9977 91.5345 15.1497C91.2785 15.2937 91.0785 15.5057 90.9345 15.7857C90.7905 16.0577 90.7185 16.3857 90.7185 16.7697V20.5977H89.8185ZM96.6974 20.5977V14.1657H97.5974V20.5977H96.6974ZM96.6974 12.9777V11.6577H97.5974V12.9777H96.6974ZM101.9 20.6697C101.324 20.6697 100.88 20.5017 100.568 20.1657C100.256 19.8297 100.1 19.3497 100.1 18.7257V15.0657H98.9116V14.1657H99.2116C99.4836 14.1657 99.6996 14.0777 99.8596 13.9017C100.02 13.7177 100.1 13.4897 100.1 13.2177V12.6777H101V14.1657H102.416V15.0657H101V18.7257C101 18.9417 101.032 19.1337 101.096 19.3017C101.16 19.4617 101.268 19.5897 101.42 19.6857C101.58 19.7817 101.792 19.8297 102.056 19.8297C102.12 19.8297 102.196 19.8257 102.284 19.8177C102.372 19.8097 102.448 19.8017 102.512 19.7937V20.5977C102.416 20.6217 102.308 20.6377 102.188 20.6457C102.068 20.6617 101.972 20.6697 101.9 20.6697ZM106.87 20.7417C106.262 20.7417 105.71 20.5977 105.214 20.3097C104.718 20.0137 104.322 19.6137 104.026 19.1097C103.738 18.5977 103.594 18.0177 103.594 17.3697C103.594 16.7297 103.738 16.1577 104.026 15.6537C104.314 15.1497 104.702 14.7537 105.19 14.4657C105.686 14.1697 106.246 14.0217 106.87 14.0217C107.494 14.0217 108.05 14.1657 108.538 14.4537C109.034 14.7417 109.422 15.1377 109.702 15.6417C109.99 16.1457 110.134 16.7217 110.134 17.3697C110.134 18.0257 109.986 18.6097 109.69 19.1217C109.394 19.6257 108.998 20.0217 108.502 20.3097C108.014 20.5977 107.47 20.7417 106.87 20.7417ZM106.87 19.8417C107.302 19.8417 107.69 19.7337 108.034 19.5177C108.386 19.3017 108.662 19.0057 108.862 18.6297C109.07 18.2537 109.174 17.8337 109.174 17.3697C109.174 16.9057 109.07 16.4897 108.862 16.1217C108.662 15.7537 108.386 15.4617 108.034 15.2457C107.69 15.0297 107.302 14.9217 106.87 14.9217C106.438 14.9217 106.046 15.0297 105.694 15.2457C105.35 15.4617 105.074 15.7537 104.866 16.1217C104.658 16.4897 104.554 16.9057 104.554 17.3697C104.554 17.8337 104.658 18.2537 104.866 18.6297C105.074 19.0057 105.35 19.3017 105.694 19.5177C106.046 19.7337 106.438 19.8417 106.87 19.8417ZM111.721 20.5977V14.1657H112.621V15.2217L112.501 15.0657C112.653 14.7617 112.881 14.5217 113.185 14.3457C113.497 14.1697 113.873 14.0817 114.313 14.0817H114.721V14.9817H114.157C113.693 14.9817 113.321 15.1257 113.041 15.4137C112.761 15.7017 112.621 16.1097 112.621 16.6377V20.5977H111.721ZM115.776 20.5977V14.1657H116.676V20.5977H115.776ZM115.776 12.9777V11.6577H116.676V12.9777H115.776ZM118.518 20.5977V14.1657H119.418V15.4137L119.214 15.3657C119.374 14.9497 119.634 14.6217 119.994 14.3817C120.362 14.1417 120.786 14.0217 121.266 14.0217C121.722 14.0217 122.13 14.1257 122.49 14.3337C122.858 14.5417 123.146 14.8297 123.354 15.1977C123.57 15.5577 123.678 15.9657 123.678 16.4217V20.5977H122.778V16.7697C122.778 16.3777 122.706 16.0457 122.562 15.7737C122.426 15.5017 122.23 15.2937 121.974 15.1497C121.726 14.9977 121.438 14.9217 121.11 14.9217C120.782 14.9217 120.49 14.9977 120.234 15.1497C119.978 15.2937 119.778 15.5057 119.634 15.7857C119.49 16.0577 119.418 16.3857 119.418 16.7697V20.5977H118.518ZM128.445 23.2377C128.005 23.2377 127.597 23.1697 127.221 23.0337C126.853 22.8977 126.533 22.7097 126.261 22.4697C125.997 22.2377 125.793 21.9657 125.649 21.6537L126.477 21.2097C126.605 21.5137 126.833 21.7777 127.161 22.0017C127.489 22.2257 127.909 22.3377 128.421 22.3377C128.813 22.3377 129.173 22.2617 129.501 22.1097C129.829 21.9577 130.093 21.7337 130.293 21.4377C130.493 21.1417 130.593 20.7777 130.593 20.3457V18.9177L130.737 19.0497C130.513 19.5137 130.181 19.8737 129.741 20.1297C129.301 20.3777 128.821 20.5017 128.301 20.5017C127.701 20.5017 127.161 20.3577 126.681 20.0697C126.201 19.7817 125.821 19.3937 125.541 18.9057C125.269 18.4097 125.133 17.8617 125.133 17.2617C125.133 16.6537 125.269 16.1057 125.541 15.6177C125.821 15.1297 126.197 14.7417 126.669 14.4537C127.149 14.1657 127.693 14.0217 128.301 14.0217C128.821 14.0217 129.293 14.1417 129.717 14.3817C130.149 14.6217 130.489 14.9457 130.737 15.3537L130.593 15.6057V14.1657H131.493V20.3457C131.493 20.8977 131.361 21.3897 131.097 21.8217C130.841 22.2617 130.481 22.6057 130.017 22.8537C129.561 23.1097 129.037 23.2377 128.445 23.2377ZM128.349 19.6017C128.765 19.6017 129.141 19.4977 129.477 19.2897C129.813 19.0737 130.081 18.7897 130.281 18.4377C130.489 18.0777 130.593 17.6857 130.593 17.2617C130.593 16.8377 130.489 16.4497 130.281 16.0977C130.081 15.7377 129.813 15.4537 129.477 15.2457C129.141 15.0297 128.765 14.9217 128.349 14.9217C127.925 14.9217 127.541 15.0297 127.197 15.2457C126.853 15.4537 126.581 15.7337 126.381 16.0857C126.189 16.4377 126.093 16.8297 126.093 17.2617C126.093 17.6857 126.189 18.0777 126.381 18.4377C126.581 18.7897 126.849 19.0737 127.185 19.2897C127.529 19.4977 127.917 19.6017 128.349 19.6017Z" fill="white"/>
<path d="M21.056 74.2617V65.3217H23.996C24.884 65.3217 25.656 65.5057 26.312 65.8737C26.968 66.2337 27.476 66.7497 27.836 67.4217C28.196 68.0857 28.376 68.8737 28.376 69.7857C28.376 70.6897 28.196 71.4777 27.836 72.1497C27.476 72.8217 26.968 73.3417 26.312 73.7097C25.656 74.0777 24.884 74.2617 23.996 74.2617H21.056ZM22.016 73.3617H23.996C24.684 73.3617 25.28 73.2177 25.784 72.9297C26.288 72.6337 26.676 72.2177 26.948 71.6817C27.228 71.1457 27.368 70.5137 27.368 69.7857C27.368 69.0577 27.228 68.4297 26.948 67.9017C26.668 67.3657 26.276 66.9537 25.772 66.6657C25.268 66.3697 24.676 66.2217 23.996 66.2217H22.016V73.3617ZM31.5731 74.4057C31.1651 74.4057 30.8011 74.3297 30.4811 74.1777C30.1611 74.0177 29.9091 73.8017 29.7251 73.5297C29.5411 73.2577 29.4491 72.9457 29.4491 72.5937C29.4491 72.2577 29.5211 71.9537 29.6651 71.6817C29.8091 71.4017 30.0331 71.1657 30.3371 70.9737C30.6411 70.7817 31.0291 70.6457 31.5011 70.5657L34.0211 70.1457V70.9617L31.7171 71.3457C31.2531 71.4257 30.9171 71.5737 30.7091 71.7897C30.5091 72.0057 30.4091 72.2617 30.4091 72.5577C30.4091 72.8457 30.5211 73.0897 30.7451 73.2897C30.9771 73.4897 31.2731 73.5897 31.6331 73.5897C32.0731 73.5897 32.4571 73.4977 32.7851 73.3137C33.1131 73.1217 33.3691 72.8657 33.5531 72.5457C33.7371 72.2257 33.8291 71.8697 33.8291 71.4777V69.8457C33.8291 69.4617 33.6891 69.1497 33.4091 68.9097C33.1291 68.6697 32.7651 68.5497 32.3171 68.5497C31.9251 68.5497 31.5811 68.6497 31.2851 68.8497C30.9891 69.0417 30.7691 69.2937 30.6251 69.6057L29.8091 69.1617C29.9291 68.8897 30.1171 68.6417 30.3731 68.4177C30.6371 68.1937 30.9371 68.0177 31.2731 67.8897C31.6091 67.7537 31.9571 67.6857 32.3171 67.6857C32.7891 67.6857 33.2051 67.7777 33.5651 67.9617C33.9331 68.1457 34.2171 68.4017 34.4171 68.7297C34.6251 69.0497 34.7291 69.4217 34.7291 69.8457V74.2617H33.8291V72.9777L33.9611 73.1097C33.8491 73.3497 33.6731 73.5697 33.4331 73.7697C33.2011 73.9617 32.9251 74.1177 32.6051 74.2377C32.2931 74.3497 31.9491 74.4057 31.5731 74.4057ZM38.9231 74.3337C38.3471 74.3337 37.9031 74.1657 37.5911 73.8297C37.2791 73.4937 37.1231 73.0137 37.1231 72.3897V68.7297H35.9351V67.8297H36.2351C36.5071 67.8297 36.7231 67.7417 36.8831 67.5657C37.0431 67.3817 37.1231 67.1537 37.1231 66.8817V66.3417H38.0231V67.8297H39.4391V68.7297H38.0231V72.3897C38.0231 72.6057 38.0551 72.7977 38.1191 72.9657C38.1831 73.1257 38.2911 73.2537 38.4431 73.3497C38.6031 73.4457 38.8151 73.4937 39.0791 73.4937C39.1431 73.4937 39.2191 73.4897 39.3071 73.4817C39.3951 73.4737 39.4711 73.4657 39.5351 73.4577V74.2617C39.4391 74.2857 39.3311 74.3017 39.2111 74.3097C39.0911 74.3257 38.9951 74.3337 38.9231 74.3337ZM42.8582 74.4057C42.4502 74.4057 42.0862 74.3297 41.7662 74.1777C41.4462 74.0177 41.1942 73.8017 41.0102 73.5297C40.8262 73.2577 40.7342 72.9457 40.7342 72.5937C40.7342 72.2577 40.8062 71.9537 40.9502 71.6817C41.0942 71.4017 41.3182 71.1657 41.6222 70.9737C41.9262 70.7817 42.3142 70.6457 42.7862 70.5657L45.3062 70.1457V70.9617L43.0022 71.3457C42.5382 71.4257 42.2022 71.5737 41.9942 71.7897C41.7942 72.0057 41.6942 72.2617 41.6942 72.5577C41.6942 72.8457 41.8062 73.0897 42.0302 73.2897C42.2622 73.4897 42.5582 73.5897 42.9182 73.5897C43.3582 73.5897 43.7422 73.4977 44.0702 73.3137C44.3982 73.1217 44.6542 72.8657 44.8382 72.5457C45.0222 72.2257 45.1142 71.8697 45.1142 71.4777V69.8457C45.1142 69.4617 44.9742 69.1497 44.6942 68.9097C44.4142 68.6697 44.0502 68.5497 43.6022 68.5497C43.2102 68.5497 42.8662 68.6497 42.5702 68.8497C42.2742 69.0417 42.0542 69.2937 41.9102 69.6057L41.0942 69.1617C41.2142 68.8897 41.4022 68.6417 41.6582 68.4177C41.9222 68.1937 42.2222 68.0177 42.5582 67.8897C42.8942 67.7537 43.2422 67.6857 43.6022 67.6857C44.0742 67.6857 44.4902 67.7777 44.8502 67.9617C45.2182 68.1457 45.5022 68.4017 45.7022 68.7297C45.9102 69.0497 46.0142 69.4217 46.0142 69.8457V74.2617H45.1142V72.9777L45.2462 73.1097C45.1342 73.3497 44.9582 73.5697 44.7182 73.7697C44.4862 73.9617 44.2102 74.1177 43.8902 74.2377C43.5782 74.3497 43.2342 74.4057 42.8582 74.4057ZM54.1165 74.4057C53.4845 74.4057 52.9045 74.2937 52.3765 74.0697C51.8485 73.8377 51.3885 73.5177 50.9965 73.1097C50.6125 72.6937 50.3125 72.2057 50.0965 71.6457C49.8805 71.0857 49.7725 70.4697 49.7725 69.7977C49.7725 69.1257 49.8805 68.5097 50.0965 67.9497C50.3125 67.3897 50.6125 66.9017 50.9965 66.4857C51.3885 66.0697 51.8485 65.7497 52.3765 65.5257C52.9045 65.2937 53.4845 65.1777 54.1165 65.1777C54.7245 65.1777 55.2685 65.2857 55.7485 65.5017C56.2365 65.7177 56.6445 65.9977 56.9725 66.3417C57.3085 66.6777 57.5485 67.0337 57.6925 67.4097L56.7925 67.8057C56.5685 67.2857 56.2245 66.8697 55.7605 66.5577C55.3045 66.2377 54.7565 66.0777 54.1165 66.0777C53.4605 66.0777 52.8765 66.2337 52.3645 66.5457C51.8525 66.8577 51.4525 67.2937 51.1645 67.8537C50.8765 68.4057 50.7325 69.0537 50.7325 69.7977C50.7325 70.5337 50.8765 71.1817 51.1645 71.7417C51.4525 72.3017 51.8525 72.7377 52.3645 73.0497C52.8765 73.3537 53.4605 73.5057 54.1165 73.5057C54.7565 73.5057 55.3045 73.3497 55.7605 73.0377C56.2245 72.7257 56.5685 72.3097 56.7925 71.7897L57.6925 72.1857C57.5485 72.5537 57.3085 72.9097 56.9725 73.2537C56.6445 73.5897 56.2365 73.8657 55.7485 74.0817C55.2685 74.2977 54.7245 74.4057 54.1165 74.4057ZM62.0903 74.4057C61.4903 74.4057 60.9463 74.2617 60.4583 73.9737C59.9783 73.6777 59.5983 73.2737 59.3183 72.7617C59.0383 72.2497 58.8983 71.6697 58.8983 71.0217C58.8983 70.3737 59.0343 69.8017 59.3063 69.3057C59.5783 68.8017 59.9463 68.4057 60.4103 68.1177C60.8823 67.8297 61.4103 67.6857 61.9943 67.6857C62.4583 67.6857 62.8703 67.7737 63.2303 67.9497C63.5983 68.1177 63.9103 68.3497 64.1663 68.6457C64.4223 68.9337 64.6183 69.2617 64.7543 69.6297C64.8903 69.9897 64.9583 70.3617 64.9583 70.7457C64.9583 70.8257 64.9543 70.9177 64.9463 71.0217C64.9383 71.1177 64.9263 71.2177 64.9103 71.3217H59.4743V70.4817H64.3943L63.9623 70.8417C64.0343 70.4017 63.9823 70.0097 63.8063 69.6657C63.6383 69.3137 63.3943 69.0377 63.0743 68.8377C62.7543 68.6297 62.3943 68.5257 61.9943 68.5257C61.5943 68.5257 61.2223 68.6297 60.8783 68.8377C60.5423 69.0457 60.2783 69.3377 60.0863 69.7137C59.8943 70.0817 59.8183 70.5217 59.8583 71.0337C59.8183 71.5457 59.8983 71.9937 60.0983 72.3777C60.3063 72.7537 60.5863 73.0457 60.9383 73.2537C61.2983 73.4617 61.6823 73.5657 62.0903 73.5657C62.5623 73.5657 62.9583 73.4537 63.2783 73.2297C63.5983 73.0057 63.8583 72.7257 64.0583 72.3897L64.8263 72.7977C64.6983 73.0857 64.5023 73.3537 64.2383 73.6017C63.9743 73.8417 63.6583 74.0377 63.2903 74.1897C62.9303 74.3337 62.5303 74.4057 62.0903 74.4057ZM66.5451 74.2617V67.8297H67.4451V69.0777L67.2411 69.0297C67.4011 68.6137 67.6611 68.2857 68.0211 68.0457C68.3891 67.8057 68.8131 67.6857 69.2931 67.6857C69.7491 67.6857 70.1571 67.7897 70.5171 67.9977C70.8851 68.2057 71.1731 68.4937 71.3811 68.8617C71.5971 69.2217 71.7051 69.6297 71.7051 70.0857V74.2617H70.8051V70.4337C70.8051 70.0417 70.7331 69.7097 70.5891 69.4377C70.4531 69.1657 70.2571 68.9577 70.0011 68.8137C69.7531 68.6617 69.4651 68.5857 69.1371 68.5857C68.8091 68.5857 68.5171 68.6617 68.2611 68.8137C68.0051 68.9577 67.8051 69.1697 67.6611 69.4497C67.5171 69.7217 67.4451 70.0497 67.4451 70.4337V74.2617H66.5451ZM75.884 74.3337C75.308 74.3337 74.864 74.1657 74.552 73.8297C74.24 73.4937 74.084 73.0137 74.084 72.3897V68.7297H72.896V67.8297H73.196C73.468 67.8297 73.684 67.7417 73.844 67.5657C74.004 67.3817 74.084 67.1537 74.084 66.8817V66.3417H74.984V67.8297H76.4V68.7297H74.984V72.3897C74.984 72.6057 75.016 72.7977 75.08 72.9657C75.144 73.1257 75.252 73.2537 75.404 73.3497C75.564 73.4457 75.776 73.4937 76.04 73.4937C76.104 73.4937 76.18 73.4897 76.268 73.4817C76.356 73.4737 76.432 73.4657 76.496 73.4577V74.2617C76.4 74.2857 76.292 74.3017 76.172 74.3097C76.052 74.3257 75.956 74.3337 75.884 74.3337ZM80.77 74.4057C80.17 74.4057 79.626 74.2617 79.138 73.9737C78.658 73.6777 78.278 73.2737 77.998 72.7617C77.718 72.2497 77.578 71.6697 77.578 71.0217C77.578 70.3737 77.714 69.8017 77.986 69.3057C78.258 68.8017 78.626 68.4057 79.09 68.1177C79.562 67.8297 80.09 67.6857 80.674 67.6857C81.138 67.6857 81.55 67.7737 81.91 67.9497C82.278 68.1177 82.59 68.3497 82.846 68.6457C83.102 68.9337 83.298 69.2617 83.434 69.6297C83.57 69.9897 83.638 70.3617 83.638 70.7457C83.638 70.8257 83.634 70.9177 83.626 71.0217C83.618 71.1177 83.606 71.2177 83.59 71.3217H78.154V70.4817H83.074L82.642 70.8417C82.714 70.4017 82.662 70.0097 82.486 69.6657C82.318 69.3137 82.074 69.0377 81.754 68.8377C81.434 68.6297 81.074 68.5257 80.674 68.5257C80.274 68.5257 79.902 68.6297 79.558 68.8377C79.222 69.0457 78.958 69.3377 78.766 69.7137C78.574 70.0817 78.498 70.5217 78.538 71.0337C78.498 71.5457 78.578 71.9937 78.778 72.3777C78.986 72.7537 79.266 73.0457 79.618 73.2537C79.978 73.4617 80.362 73.5657 80.77 73.5657C81.242 73.5657 81.638 73.4537 81.958 73.2297C82.278 73.0057 82.538 72.7257 82.738 72.3897L83.506 72.7977C83.378 73.0857 83.182 73.3537 82.918 73.6017C82.654 73.8417 82.338 74.0377 81.97 74.1897C81.61 74.3337 81.21 74.4057 80.77 74.4057ZM85.2248 74.2617V67.8297H86.1248V68.8857L86.0048 68.7297C86.1568 68.4257 86.3848 68.1857 86.6888 68.0097C87.0008 67.8337 87.3768 67.7457 87.8168 67.7457H88.2248V68.6457H87.6608C87.1968 68.6457 86.8248 68.7897 86.5448 69.0777C86.2648 69.3657 86.1248 69.7737 86.1248 70.3017V74.2617H85.2248Z" fill="#172B4D"/>
<path d="M104 128.262C104 126.605 105.343 125.262 107 125.262H134.444C136.101 125.262 137.444 126.605 137.444 128.262V144.633C137.444 146.29 138.788 147.633 140.444 147.633H157C158.657 147.633 160 148.976 160 150.633V176.262C160 177.919 158.657 179.262 157 179.262H107C105.343 179.262 104 177.919 104 176.262V128.262Z" fill="#64ACD5"/>
<path d="M118 131.432C118 131.006 118.348 130.66 118.778 130.66H122.666C123.096 130.66 123.444 131.006 123.444 131.432V134.517H126.555C126.985 134.517 127.333 134.863 127.333 135.289V139.146C127.333 139.572 126.985 139.917 126.555 139.917H123.444V143.003C123.444 143.429 123.096 143.774 122.666 143.774H118.778C118.348 143.774 118 143.429 118 143.003V139.917H114.889C114.459 139.917 114.111 139.572 114.111 139.146V135.289C114.111 134.863 114.459 134.517 114.889 134.517H118V131.432Z" fill="#FFFFFE"/>
<path d="M112.944 154.574C112.085 154.574 111.389 155.264 111.389 156.117V159.202C111.389 160.054 112.085 160.745 112.944 160.745H116.055C116.914 160.745 117.611 160.054 117.611 159.202V156.117C117.611 155.264 116.914 154.574 116.055 154.574H112.944Z" fill="#FFFFFE"/>
<path d="M124.611 154.574C123.752 154.574 123.055 155.264 123.055 156.117V159.202C123.055 160.054 123.752 160.745 124.611 160.745H127.722C128.581 160.745 129.278 160.054 129.278 159.202V156.117C129.278 155.264 128.581 154.574 127.722 154.574H124.611Z" fill="#FFFFFE"/>
<path d="M134.722 156.117C134.722 155.264 135.418 154.574 136.278 154.574H139.389C140.248 154.574 140.944 155.264 140.944 156.117V159.202C140.944 160.054 140.248 160.745 139.389 160.745H136.278C135.418 160.745 134.722 160.054 134.722 159.202V156.117Z" fill="#FFFFFE"/>
<path d="M147.944 154.574C147.085 154.574 146.389 155.264 146.389 156.117V159.202C146.389 160.054 147.085 160.745 147.944 160.745H151.055C151.914 160.745 152.611 160.054 152.611 159.202V156.117C152.611 155.264 151.914 154.574 151.055 154.574H147.944Z" fill="#FFFFFE"/>
<path d="M111.389 167.688C111.389 166.836 112.085 166.145 112.944 166.145H116.055C116.914 166.145 117.611 166.836 117.611 167.688V170.774C117.611 171.626 116.914 172.317 116.055 172.317H112.944C112.085 172.317 111.389 171.626 111.389 170.774V167.688Z" fill="#FFFFFE"/>
<path d="M124.611 166.145C123.752 166.145 123.055 166.836 123.055 167.688V170.774C123.055 171.626 123.752 172.317 124.611 172.317H127.722C128.581 172.317 129.278 171.626 129.278 170.774V167.688C129.278 166.836 128.581 166.145 127.722 166.145H124.611Z" fill="#FFFFFE"/>
<path d="M134.722 167.688C134.722 166.836 135.418 166.145 136.278 166.145H139.389C140.248 166.145 140.944 166.836 140.944 167.688V170.774C140.944 171.626 140.248 172.317 139.389 172.317H136.278C135.418 172.317 134.722 171.626 134.722 170.774V167.688Z" fill="#FFFFFE"/>
<path d="M147.944 166.145C147.085 166.145 146.389 166.836 146.389 167.688V170.774C146.389 171.626 147.085 172.317 147.944 172.317H151.055C151.914 172.317 152.611 171.626 152.611 170.774V167.688C152.611 166.836 151.914 166.145 151.055 166.145H147.944Z" fill="#FFFFFE"/>
<path d="M0 86.1454C0 84.5528 1.29109 83.2617 2.88372 83.2617H31.7209C33.3136 83.2617 34.6047 84.5528 34.6047 86.1454V97.1171C34.6047 98.7098 35.8957 100.001 37.4884 100.001H45.1163C46.7089 100.001 48 101.292 48 102.885V157.378C48 158.971 46.7089 160.262 45.1163 160.262H2.88372C1.29108 160.262 0 158.971 0 157.378V86.1454Z" fill="#64ACD5"/>
<rect x="4.72266" y="110.113" width="7.58544" height="9.0273" rx="1.44186" fill="#FFFFFE"/>
<rect x="20.207" y="110.113" width="7.58544" height="9.0273" rx="1.44186" fill="#FFFFFE"/>
<rect x="35.6914" y="110.113" width="7.58544" height="9.0273" rx="1.44186" fill="#FFFFFE"/>
<rect x="4.72266" y="127.039" width="7.58544" height="9.0273" rx="1.44186" fill="#FFFFFE"/>
<rect x="20.207" y="127.039" width="7.58544" height="9.0273" rx="1.44186" fill="#FFFFFE"/>
<rect x="35.6914" y="127.039" width="7.58544" height="9.0273" rx="1.44186" fill="#FFFFFE"/>
<rect x="4.72266" y="143.965" width="7.58544" height="9.0273" rx="1.44186" fill="#FFFFFE"/>
<rect x="20.207" y="143.965" width="7.58544" height="9.0273" rx="1.44186" fill="#FFFFFE"/>
<rect x="35.6914" y="143.965" width="7.58544" height="9.0273" rx="1.44186" fill="#FFFFFE"/>
<path d="M7.81445 93.6294C7.81445 92.833 8.46 92.1875 9.25631 92.1875H25.3493C26.1457 92.1875 26.7912 92.833 26.7912 93.6294V98.5572C26.7912 99.3536 26.1457 99.9991 25.3493 99.9991H9.25631C8.46 99.9991 7.81445 99.3536 7.81445 98.5572V93.6294Z" fill="#FFFFFE"/>
<defs>
<filter id="filter0_i_5510_1151" x="130.828" y="60.9492" width="41.7246" height="47.8086" filterUnits="userSpaceOnUse" color-interpolation-filters="sRGB">
<feFlood flood-opacity="0" result="BackgroundImageFix"/>
<feBlend mode="normal" in="SourceGraphic" in2="BackgroundImageFix" result="shape"/>
<feColorMatrix in="SourceAlpha" type="matrix" values="0 0 0 0 0 0 0 0 0 0 0 0 0 0 0 0 0 0 127 0" result="hardAlpha"/>
<feOffset dy="4"/>
<feGaussianBlur stdDeviation="4"/>
<feComposite in2="hardAlpha" operator="arithmetic" k2="-1" k3="1"/>
<feColorMatrix type="matrix" values="0 0 0 0 0 0 0 0 0 0 0 0 0 0 0 0 0 0 0.16 0"/>
<feBlend mode="normal" in2="shape" result="effect1_innerShadow_5510_1151"/>
</filter>
<filter id="filter1_i_5510_1151" x="180.553" y="60.9492" width="41.7246" height="47.8086" filterUnits="userSpaceOnUse" color-interpolation-filters="sRGB">
<feFlood flood-opacity="0" result="BackgroundImageFix"/>
<feBlend mode="normal" in="SourceGraphic" in2="BackgroundImageFix" result="shape"/>
<feColorMatrix in="SourceAlpha" type="matrix" values="0 0 0 0 0 0 0 0 0 0 0 0 0 0 0 0 0 0 127 0" result="hardAlpha"/>
<feOffset dy="4"/>
<feGaussianBlur stdDeviation="4"/>
<feComposite in2="hardAlpha" operator="arithmetic" k2="-1" k3="1"/>
<feColorMatrix type="matrix" values="0 0 0 0 0 0 0 0 0 0 0 0 0 0 0 0 0 0 0.16 0"/>
<feBlend mode="normal" in2="shape" result="effect1_innerShadow_5510_1151"/>
</filter>
<filter id="filter2_i_5510_1151" x="230.277" y="60.9492" width="41.7246" height="47.8086" filterUnits="userSpaceOnUse" color-interpolation-filters="sRGB">
<feFlood flood-opacity="0" result="BackgroundImageFix"/>
<feBlend mode="normal" in="SourceGraphic" in2="BackgroundImageFix" result="shape"/>
<feColorMatrix in="SourceAlpha" type="matrix" values="0 0 0 0 0 0 0 0 0 0 0 0 0 0 0 0 0 0 127 0" result="hardAlpha"/>
<feOffset dy="4"/>
<feGaussianBlur stdDeviation="4"/>
<feComposite in2="hardAlpha" operator="arithmetic" k2="-1" k3="1"/>
<feColorMatrix type="matrix" values="0 0 0 0 0 0 0 0 0 0 0 0 0 0 0 0 0 0 0.16 0"/>
<feBlend mode="normal" in2="shape" result="effect1_innerShadow_5510_1151"/>
</filter>
<filter id="filter3_i_5510_1151" x="180.553" y="112.758" width="41.7246" height="47.8086" filterUnits="userSpaceOnUse" color-interpolation-filters="sRGB">
<feFlood flood-opacity="0" result="BackgroundImageFix"/>
<feBlend mode="normal" in="SourceGraphic" in2="BackgroundImageFix" result="shape"/>
<feColorMatrix in="SourceAlpha" type="matrix" values="0 0 0 0 0 0 0 0 0 0 0 0 0 0 0 0 0 0 127 0" result="hardAlpha"/>
<feOffset dy="4"/>
<feGaussianBlur stdDeviation="4"/>
<feComposite in2="hardAlpha" operator="arithmetic" k2="-1" k3="1"/>
<feColorMatrix type="matrix" values="0 0 0 0 0 0 0 0 0 0 0 0 0 0 0 0 0 0 0.16 0"/>
<feBlend mode="normal" in2="shape" result="effect1_innerShadow_5510_1151"/>
</filter>
<filter id="filter4_i_5510_1151" x="230.277" y="112.758" width="41.7246" height="47.8086" filterUnits="userSpaceOnUse" color-interpolation-filters="sRGB">
<feFlood flood-opacity="0" result="BackgroundImageFix"/>
<feBlend mode="normal" in="SourceGraphic" in2="BackgroundImageFix" result="shape"/>
<feColorMatrix in="SourceAlpha" type="matrix" values="0 0 0 0 0 0 0 0 0 0 0 0 0 0 0 0 0 0 127 0" result="hardAlpha"/>
<feOffset dy="4"/>
<feGaussianBlur stdDeviation="4"/>
<feComposite in2="hardAlpha" operator="arithmetic" k2="-1" k3="1"/>
<feColorMatrix type="matrix" values="0 0 0 0 0 0 0 0 0 0 0 0 0 0 0 0 0 0 0.16 0"/>
<feBlend mode="normal" in2="shape" result="effect1_innerShadow_5510_1151"/>
</filter>
<linearGradient id="paint0_linear_5510_1151" x1="130.828" y1="81.8113" x2="172.552" y2="81.8113" gradientUnits="userSpaceOnUse">
<stop offset="0.095" stop-color="#DEDFDA"/>
<stop offset="1" stop-color="#F5F5F5"/>
</linearGradient>
<linearGradient id="paint1_linear_5510_1151" x1="180.553" y1="81.8113" x2="222.277" y2="81.8113" gradientUnits="userSpaceOnUse">
<stop offset="0.095" stop-color="#DEDFDA"/>
<stop offset="1" stop-color="#F5F5F5"/>
</linearGradient>
<linearGradient id="paint2_linear_5510_1151" x1="230.277" y1="81.8113" x2="272.001" y2="81.8113" gradientUnits="userSpaceOnUse">
<stop offset="0.095" stop-color="#DEDFDA"/>
<stop offset="1" stop-color="#F5F5F5"/>
</linearGradient>
<linearGradient id="paint3_linear_5510_1151" x1="180.553" y1="133.62" x2="222.277" y2="133.62" gradientUnits="userSpaceOnUse">
<stop offset="0.095" stop-color="#DEDFDA"/>
<stop offset="1" stop-color="#F5F5F5"/>
</linearGradient>
<linearGradient id="paint4_linear_5510_1151" x1="230.277" y1="133.62" x2="272.001" y2="133.62" gradientUnits="userSpaceOnUse">
<stop offset="0.095" stop-color="#DEDFDA"/>
<stop offset="1" stop-color="#F5F5F5"/>
</linearGradient>
<clipPath id="clip0_5510_1151">
<path d="M130.828 63.0354C130.828 61.8832 131.762 60.9492 132.914 60.9492H170.466C171.618 60.9492 172.552 61.8832 172.552 63.0354V100.587C172.552 101.739 171.618 102.673 170.466 102.673H132.914C131.762 102.673 130.828 101.739 130.828 100.587V63.0354Z" fill="white"/>
</clipPath>
<clipPath id="clip1_5510_1151">
<path d="M180.553 63.0354C180.553 61.8832 181.487 60.9492 182.639 60.9492H220.191C221.343 60.9492 222.277 61.8832 222.277 63.0354V100.587C222.277 101.739 221.343 102.673 220.191 102.673H182.639C181.487 102.673 180.553 101.739 180.553 100.587V63.0354Z" fill="white"/>
</clipPath>
<clipPath id="clip2_5510_1151">
<path d="M230.277 63.0354C230.277 61.8832 231.211 60.9492 232.364 60.9492H269.915C271.067 60.9492 272.001 61.8832 272.001 63.0354V100.587C272.001 101.739 271.067 102.673 269.915 102.673H232.364C231.211 102.673 230.277 101.739 230.277 100.587V63.0354Z" fill="white"/>
</clipPath>
<clipPath id="clip3_5510_1151">
<path d="M180.553 114.844C180.553 113.692 181.487 112.758 182.639 112.758H220.191C221.343 112.758 222.277 113.692 222.277 114.844V152.396C222.277 153.548 221.343 154.482 220.191 154.482H182.639C181.487 154.482 180.553 153.548 180.553 152.396V114.844Z" fill="white"/>
</clipPath>
<clipPath id="clip4_5510_1151">
<path d="M230.277 114.844C230.277 113.692 231.211 112.758 232.364 112.758H269.915C271.067 112.758 272.001 113.692 272.001 114.844V152.396C272.001 153.548 271.067 154.482 269.915 154.482H232.364C231.211 154.482 230.277 153.548 230.277 152.396V114.844Z" fill="white"/>
</clipPath>
</defs>
</svg>
