<svg width="342" height="135" viewBox="0 0 342 135" fill="none" xmlns="http://www.w3.org/2000/svg">
<g filter="url(#filter0_i_5510_1136)">
<g clip-path="url(#clip0_5510_1136)">
<path d="M22.5 7.29922C22.5 3.79221 25.343 0.949219 28.85 0.949219H143.15C146.657 0.949219 149.5 3.79221 149.5 7.29922V121.599C149.5 125.106 146.657 127.949 143.15 127.949H28.85C25.343 127.949 22.5 125.106 22.5 121.599V7.29922Z" fill="url(#paint0_linear_5510_1136)"/>
<path d="M22.5 127.952L100.287 50.1641" stroke="#BFC0BD" stroke-width="4.7625"/>
<rect x="87.5879" y="0.949219" width="61.9125" height="61.9125" rx="6.35" fill="#C11778"/>
</g>
<rect x="35.1992" y="127.949" width="25.4" height="6.35" rx="1.5875" fill="#BEBBBA"/>
<rect x="111.4" y="127.949" width="25.4" height="6.35" rx="1.5875" fill="#BEBBBA"/>
</g>
<path d="M173.5 65.875C172.534 65.875 171.75 66.6585 171.75 67.625C171.75 68.5915 172.534 69.375 173.5 69.375V65.875ZM222.737 68.8624C223.421 68.179 223.421 67.071 222.737 66.3876L211.601 55.2506C210.917 54.5672 209.809 54.5672 209.126 55.2506C208.442 55.934 208.442 57.0421 209.126 57.7255L219.025 67.625L209.126 77.5245C208.442 78.2079 208.442 79.316 209.126 79.9994C209.809 80.6828 210.917 80.6828 211.601 79.9994L222.737 68.8624ZM173.5 67.625V69.375H177.5V67.625V65.875H173.5V67.625ZM185.5 67.625V69.375H193.5V67.625V65.875H185.5V67.625ZM201.5 67.625V69.375H209.5V67.625V65.875H201.5V67.625ZM217.5 67.625V69.375H221.5V67.625V65.875H217.5V67.625Z" fill="#7F7F7F"/>
<path d="M253.5 18.125H311.5C314.814 18.125 317.5 20.8113 317.5 24.125V91.125C317.5 105.484 305.859 117.125 291.5 117.125H253.5C250.186 117.125 247.5 114.439 247.5 111.125V24.125C247.5 20.8113 250.186 18.125 253.5 18.125Z" fill="#ABE0F1"/>
<path d="M253.5 18.125H311.5C314.814 18.125 317.5 20.8113 317.5 24.125V91.125C317.5 105.484 305.859 117.125 291.5 117.125H253.5C250.186 117.125 247.5 114.439 247.5 111.125V24.125C247.5 20.8113 250.186 18.125 253.5 18.125Z" stroke="black" stroke-width="4"/>
<path d="M255.064 60.125V49.5231H256.914L260.884 54.9165H260.002L263.887 49.5231H265.737V60.125H263.787V51.7288L264.541 51.9138L260.514 57.2788H260.286L256.359 51.9138L256.999 51.7288V60.125H255.064ZM271.395 60.2958C270.636 60.2958 269.943 60.1203 269.317 59.7692C268.7 59.4182 268.207 58.9391 267.837 58.3319C267.476 57.7247 267.296 57.0322 267.296 56.2542C267.296 55.4763 267.476 54.7837 267.837 54.1765C268.207 53.5694 268.7 53.0903 269.317 52.7392C269.934 52.3882 270.626 52.2127 271.395 52.2127C272.154 52.2127 272.841 52.3882 273.458 52.7392C274.075 53.0903 274.563 53.5694 274.924 54.1765C275.294 54.7742 275.479 55.4668 275.479 56.2542C275.479 57.0322 275.294 57.7247 274.924 58.3319C274.554 58.9391 274.06 59.4182 273.444 59.7692C272.827 60.1203 272.144 60.2958 271.395 60.2958ZM271.395 58.5881C271.812 58.5881 272.177 58.4885 272.49 58.2892C272.813 58.09 273.064 57.8149 273.245 57.4638C273.434 57.1033 273.529 56.7001 273.529 56.2542C273.529 55.7988 273.434 55.4004 273.245 55.0588C273.064 54.7078 272.813 54.4327 272.49 54.2335C272.177 54.0247 271.812 53.9204 271.395 53.9204C270.968 53.9204 270.593 54.0247 270.27 54.2335C269.948 54.4327 269.692 54.7078 269.502 55.0588C269.322 55.4004 269.232 55.7988 269.232 56.2542C269.232 56.7001 269.322 57.1033 269.502 57.4638C269.692 57.8149 269.948 58.09 270.27 58.2892C270.593 58.4885 270.968 58.5881 271.395 58.5881ZM276.893 60.125V52.3835H278.643V53.9062L278.501 53.6358C278.681 53.1709 278.975 52.8199 279.383 52.5827C279.8 52.336 280.284 52.2127 280.834 52.2127C281.404 52.2127 281.907 52.336 282.343 52.5827C282.789 52.8294 283.135 53.1756 283.382 53.6215C283.628 54.0579 283.752 54.5655 283.752 55.1442V60.125H281.888V55.5854C281.888 55.2438 281.821 54.9497 281.688 54.7031C281.556 54.4564 281.371 54.2667 281.133 54.1338C280.906 53.9915 280.635 53.9204 280.322 53.9204C280.019 53.9204 279.748 53.9915 279.511 54.1338C279.274 54.2667 279.089 54.4564 278.956 54.7031C278.823 54.9497 278.757 55.2438 278.757 55.5854V60.125H276.893ZM288.857 60.2104C287.985 60.2104 287.306 59.9732 286.822 59.4988C286.348 59.015 286.111 58.3367 286.111 57.4638V54.0485H284.773V52.3835H284.915C285.295 52.3835 285.589 52.2838 285.798 52.0846C286.007 51.8854 286.111 51.596 286.111 51.2165V50.6188H287.975V52.3835H289.754V54.0485H287.975V57.3642C287.975 57.6204 288.018 57.8386 288.103 58.0188C288.198 58.1991 288.34 58.3367 288.53 58.4315C288.729 58.5264 288.981 58.5738 289.284 58.5738C289.351 58.5738 289.427 58.5691 289.512 58.5596C289.607 58.5501 289.697 58.5406 289.782 58.5312V60.125C289.65 60.144 289.498 60.1629 289.327 60.1819C289.156 60.2009 289 60.2104 288.857 60.2104ZM291.207 60.125V49.3523H293.071V53.9062L292.815 53.6358C292.995 53.1709 293.289 52.8199 293.697 52.5827C294.115 52.336 294.598 52.2127 295.149 52.2127C295.718 52.2127 296.221 52.336 296.657 52.5827C297.103 52.8294 297.449 53.1756 297.696 53.6215C297.943 54.0579 298.066 54.5655 298.066 55.1442V60.125H296.202V55.5854C296.202 55.2438 296.135 54.9497 296.002 54.7031C295.87 54.4564 295.685 54.2667 295.447 54.1338C295.22 53.9915 294.949 53.9204 294.636 53.9204C294.333 53.9204 294.062 53.9915 293.825 54.1338C293.588 54.2667 293.403 54.4564 293.27 54.7031C293.137 54.9497 293.071 55.2438 293.071 55.5854V60.125H291.207ZM299.642 60.125V49.3523H301.507V60.125H299.642ZM304.167 63.2558C303.958 63.2558 303.754 63.2368 303.555 63.1988C303.356 63.1704 303.176 63.1135 303.014 63.0281V61.4769C303.138 61.5054 303.285 61.5338 303.456 61.5623C303.636 61.5908 303.802 61.605 303.954 61.605C304.381 61.605 304.689 61.5054 304.879 61.3062C305.078 61.1164 305.253 60.8603 305.405 60.5377L305.917 59.3423L305.889 60.9077L302.516 52.3835H304.523L306.885 58.6735H306.174L308.522 52.3835H310.542L307.17 60.9077C306.971 61.401 306.729 61.8232 306.444 62.1742C306.159 62.5253 305.827 62.7909 305.448 62.9712C305.078 63.1609 304.651 63.2558 304.167 63.2558ZM255.064 78.125V67.5231H259.532C260.234 67.5231 260.832 67.6464 261.325 67.8931C261.828 68.1303 262.212 68.4718 262.478 68.9177C262.753 69.3541 262.891 69.8854 262.891 70.5115C262.891 70.9954 262.758 71.4508 262.492 71.8777C262.236 72.2951 261.823 72.6414 261.254 72.9165V72.02C261.776 72.2192 262.189 72.4659 262.492 72.76C262.796 73.0541 263.009 73.3814 263.133 73.7419C263.256 74.1024 263.318 74.4819 263.318 74.8804C263.318 75.8955 262.981 76.6924 262.307 77.2712C261.643 77.8404 260.718 78.125 259.532 78.125H255.064ZM256.999 76.4173H259.731C260.234 76.4173 260.633 76.2797 260.927 76.0046C261.23 75.72 261.382 75.3453 261.382 74.8804C261.382 74.4155 261.23 74.0408 260.927 73.7562C260.633 73.4715 260.234 73.3292 259.731 73.3292H256.999V76.4173ZM256.999 71.6358H259.632C260.03 71.6358 260.348 71.5219 260.585 71.2942C260.822 71.0571 260.941 70.7535 260.941 70.3835C260.941 70.0135 260.822 69.7194 260.585 69.5012C260.348 69.2829 260.03 69.1738 259.632 69.1738H256.999V71.6358ZM264.746 78.125V70.3835H266.611V78.125H264.746ZM264.746 69.5154V67.5231H266.611V69.5154H264.746ZM268.332 78.125V67.3523H270.196V78.125H268.332ZM271.917 78.125V67.3523H273.782V78.125H271.917ZM275.503 78.125V70.3835H277.367V78.125H275.503ZM275.503 69.5154V67.5231H277.367V69.5154H275.503ZM279.088 78.125V70.3835H280.839V71.9062L280.696 71.6358C280.877 71.1709 281.171 70.8199 281.579 70.5827C281.996 70.336 282.48 70.2127 283.03 70.2127C283.599 70.2127 284.102 70.336 284.539 70.5827C284.985 70.8294 285.331 71.1756 285.578 71.6215C285.824 72.0579 285.948 72.5655 285.948 73.1442V78.125H284.083V73.5854C284.083 73.2438 284.017 72.9497 283.884 72.7031C283.751 72.4564 283.566 72.2667 283.329 72.1338C283.101 71.9915 282.831 71.9204 282.518 71.9204C282.214 71.9204 281.944 71.9915 281.707 72.1338C281.47 72.2667 281.285 72.4564 281.152 72.7031C281.019 72.9497 280.953 73.2438 280.953 73.5854V78.125H279.088ZM291.281 81.2558C290.702 81.2558 290.166 81.1609 289.673 80.9712C289.179 80.7814 288.753 80.5158 288.392 80.1742C288.041 79.8422 287.785 79.4485 287.624 78.9931L289.36 78.3385C289.474 78.699 289.697 78.9883 290.029 79.2065C290.37 79.4342 290.788 79.5481 291.281 79.5481C291.66 79.5481 291.992 79.4769 292.277 79.3346C292.571 79.1923 292.799 78.9836 292.96 78.7085C293.121 78.4428 293.202 78.1203 293.202 77.7408V75.9762L293.558 76.4031C293.292 76.8679 292.936 77.219 292.49 77.4562C292.045 77.6933 291.537 77.8119 290.968 77.8119C290.247 77.8119 289.602 77.6459 289.032 77.3138C288.463 76.9818 288.017 76.5264 287.695 75.9477C287.372 75.369 287.211 74.7191 287.211 73.9981C287.211 73.2676 287.372 72.6177 287.695 72.0485C288.017 71.4792 288.458 71.0333 289.018 70.7108C289.578 70.3787 290.214 70.2127 290.925 70.2127C291.504 70.2127 292.011 70.336 292.448 70.5827C292.894 70.8199 293.264 71.1662 293.558 71.6215L293.302 72.0912V70.3835H295.066V77.7408C295.066 78.4144 294.9 79.0168 294.568 79.5481C294.246 80.0794 293.8 80.4968 293.23 80.8004C292.671 81.104 292.021 81.2558 291.281 81.2558ZM291.195 76.09C291.594 76.09 291.94 76.0046 292.234 75.8338C292.538 75.6536 292.775 75.4069 292.946 75.0938C293.117 74.7808 293.202 74.4203 293.202 74.0123C293.202 73.6138 293.112 73.2581 292.932 72.945C292.761 72.6224 292.524 72.371 292.22 72.1908C291.926 72.0105 291.584 71.9204 291.195 71.9204C290.807 71.9204 290.455 72.0105 290.142 72.1908C289.829 72.371 289.583 72.6224 289.402 72.945C289.232 73.2581 289.146 73.6138 289.146 74.0123C289.146 74.4108 289.232 74.7665 289.402 75.0796C289.583 75.3927 289.825 75.6394 290.128 75.8196C290.441 75.9999 290.797 76.09 291.195 76.09Z" fill="#172B4D"/>
<path d="M293.884 91.75H317.475C316.897 105.75 305.366 116.923 291.224 116.923H290.191V95.4424C290.191 93.4032 291.845 91.75 293.884 91.75Z" fill="#C0EAF7" stroke="black" stroke-width="4"/>
<defs>
<filter id="filter0_i_5510_1136" x="22.5" y="0.949219" width="127" height="137.352" filterUnits="userSpaceOnUse" color-interpolation-filters="sRGB">
<feFlood flood-opacity="0" result="BackgroundImageFix"/>
<feBlend mode="normal" in="SourceGraphic" in2="BackgroundImageFix" result="shape"/>
<feColorMatrix in="SourceAlpha" type="matrix" values="0 0 0 0 0 0 0 0 0 0 0 0 0 0 0 0 0 0 127 0" result="hardAlpha"/>
<feOffset dy="4"/>
<feGaussianBlur stdDeviation="4"/>
<feComposite in2="hardAlpha" operator="arithmetic" k2="-1" k3="1"/>
<feColorMatrix type="matrix" values="0 0 0 0 0 0 0 0 0 0 0 0 0 0 0 0 0 0 0.16 0"/>
<feBlend mode="normal" in2="shape" result="effect1_innerShadow_5510_1136"/>
</filter>
<linearGradient id="paint0_linear_5510_1136" x1="22.5" y1="64.4492" x2="149.5" y2="64.4492" gradientUnits="userSpaceOnUse">
<stop offset="0.095" stop-color="#DEDFDA"/>
<stop offset="1" stop-color="#F5F5F5"/>
</linearGradient>
<clipPath id="clip0_5510_1136">
<path d="M22.5 7.29922C22.5 3.79221 25.343 0.949219 28.85 0.949219H143.15C146.657 0.949219 149.5 3.79221 149.5 7.29922V121.599C149.5 125.106 146.657 127.949 143.15 127.949H28.85C25.343 127.949 22.5 125.106 22.5 121.599V7.29922Z" fill="white"/>
</clipPath>
</defs>
</svg>
