<svg width="346" height="406" viewBox="0 0 346 406" fill="none" xmlns="http://www.w3.org/2000/svg">
<path d="M42.0723 362.598V173.598M42.0723 173.598V37.0977H167.072V0.0976562M42.0723 173.598H167.072M167.072 173.598V120.098H249.001M167.072 173.598V246.098H249.001" stroke="#C11778" stroke-width="3" stroke-linejoin="round" stroke-dasharray="4 4"/>
<g filter="url(#filter0_i_5510_1027)">
<g clip-path="url(#clip0_5510_1027)">
<path d="M0.0722656 71.5977C0.0722656 69.3885 1.86313 67.5977 4.07227 67.5977H76.0723C78.2814 67.5977 80.0723 69.3885 80.0723 71.5977V143.598C80.0723 145.807 78.2814 147.598 76.0723 147.598H4.07227C1.86313 147.598 0.0722656 145.807 0.0722656 143.598V71.5977Z" fill="url(#paint0_linear_5510_1027)"/>
<path d="M0.0722656 147.598L49.0723 98.5977" stroke="#BFC0BD" stroke-width="3"/>
<rect x="41.0723" y="67.5977" width="39" height="39" rx="4" fill="#EFC125"/>
</g>
<rect x="8.07227" y="147.598" width="16" height="4" rx="1" fill="#BEBBBA"/>
<rect x="56.0723" y="147.598" width="16" height="4" rx="1" fill="#BEBBBA"/>
</g>
<g filter="url(#filter1_i_5510_1027)">
<g clip-path="url(#clip1_5510_1027)">
<path d="M119.072 71.5977C119.072 69.3885 120.863 67.5977 123.072 67.5977H195.072C197.281 67.5977 199.072 69.3885 199.072 71.5977V143.598C199.072 145.807 197.281 147.598 195.072 147.598H123.072C120.863 147.598 119.072 145.807 119.072 143.598V71.5977Z" fill="url(#paint1_linear_5510_1027)"/>
<path d="M119.072 147.598L168.072 98.5977" stroke="#BFC0BD" stroke-width="3"/>
<rect x="160.072" y="67.5977" width="39" height="39" rx="4" fill="#DC5F2A"/>
</g>
<rect x="127.072" y="147.598" width="16" height="4" rx="1" fill="#BEBBBA"/>
<rect x="175.072" y="147.598" width="16" height="4" rx="1" fill="#BEBBBA"/>
</g>
<g filter="url(#filter2_i_5510_1027)">
<g clip-path="url(#clip2_5510_1027)">
<path d="M0.0722656 198.598C0.0722656 196.389 1.86313 194.598 4.07227 194.598H76.0723C78.2814 194.598 80.0723 196.389 80.0723 198.598V270.598C80.0723 272.807 78.2814 274.598 76.0723 274.598H4.07227C1.86313 274.598 0.0722656 272.807 0.0722656 270.598V198.598Z" fill="url(#paint2_linear_5510_1027)"/>
<path d="M0.0722656 274.598L49.0723 225.598" stroke="#BFC0BD" stroke-width="3"/>
<rect x="41.0723" y="194.598" width="39" height="39" rx="4" fill="#C11778"/>
</g>
<rect x="8.07227" y="274.598" width="16" height="4" rx="1" fill="#BEBBBA"/>
<rect x="56.0723" y="274.598" width="16" height="4" rx="1" fill="#BEBBBA"/>
</g>
<g filter="url(#filter3_i_5510_1027)">
<g clip-path="url(#clip3_5510_1027)">
<path d="M119.072 198.598C119.072 196.389 120.863 194.598 123.072 194.598H195.072C197.281 194.598 199.072 196.389 199.072 198.598V270.598C199.072 272.807 197.281 274.598 195.072 274.598H123.072C120.863 274.598 119.072 272.807 119.072 270.598V198.598Z" fill="url(#paint3_linear_5510_1027)"/>
<path d="M119.072 274.598L168.072 225.598" stroke="#BFC0BD" stroke-width="3"/>
<rect x="160.072" y="194.598" width="39" height="39" rx="4" fill="#97C23C"/>
</g>
<rect x="127.072" y="274.598" width="16" height="4" rx="1" fill="#BEBBBA"/>
<rect x="175.072" y="274.598" width="16" height="4" rx="1" fill="#BEBBBA"/>
</g>
<g filter="url(#filter4_i_5510_1027)">
<g clip-path="url(#clip4_5510_1027)">
<path d="M0.0722656 325.598C0.0722656 323.389 1.86313 321.598 4.07227 321.598H76.0723C78.2814 321.598 80.0723 323.389 80.0723 325.598V397.598C80.0723 399.807 78.2814 401.598 76.0723 401.598H4.07227C1.86313 401.598 0.0722656 399.807 0.0722656 397.598V325.598Z" fill="url(#paint4_linear_5510_1027)"/>
<path d="M0.0722656 401.598L49.0723 352.598" stroke="#BFC0BD" stroke-width="3"/>
<rect x="41.0723" y="321.598" width="39" height="39" rx="4" fill="#1BABD5"/>
</g>
<rect x="8.07227" y="401.598" width="16" height="4" rx="1" fill="#BEBBBA"/>
<rect x="56.0723" y="401.598" width="16" height="4" rx="1" fill="#BEBBBA"/>
</g>
<path d="M337.358 67.5977H251.644C246.912 67.5977 243.072 71.4369 243.072 76.1691V133.312C243.072 138.044 246.912 141.883 251.644 141.883H285.929L283.072 150.455H270.215C267.84 150.455 265.929 152.366 265.929 154.741C265.929 157.116 267.84 159.026 270.215 159.026H318.787C321.162 159.026 323.072 157.116 323.072 154.741C323.072 152.366 321.162 150.455 318.787 150.455H305.929L303.072 141.883H337.358C342.09 141.883 345.929 138.044 345.929 133.312V76.1691C345.929 71.4369 342.09 67.5977 337.358 67.5977ZM334.501 130.455H254.501V79.0262H334.501V130.455Z" fill="#7F7F7F"/>
<path d="M337.358 193.027H251.644C246.912 193.027 243.072 196.867 243.072 201.599V258.742C243.072 263.474 246.912 267.313 251.644 267.313H285.929L283.072 275.884H270.215C267.84 275.884 265.929 277.795 265.929 280.17C265.929 282.545 267.84 284.456 270.215 284.456H318.787C321.162 284.456 323.072 282.545 323.072 280.17C323.072 277.795 321.162 275.884 318.787 275.884H305.929L303.072 267.313H337.358C342.09 267.313 345.929 263.474 345.929 258.742V201.599C345.929 196.867 342.09 193.027 337.358 193.027ZM334.501 255.884H254.501V204.456H334.501V255.884Z" fill="#7F7F7F"/>
<defs>
<filter id="filter0_i_5510_1027" x="0.0722656" y="67.5977" width="80" height="88" filterUnits="userSpaceOnUse" color-interpolation-filters="sRGB">
<feFlood flood-opacity="0" result="BackgroundImageFix"/>
<feBlend mode="normal" in="SourceGraphic" in2="BackgroundImageFix" result="shape"/>
<feColorMatrix in="SourceAlpha" type="matrix" values="0 0 0 0 0 0 0 0 0 0 0 0 0 0 0 0 0 0 127 0" result="hardAlpha"/>
<feOffset dy="4"/>
<feGaussianBlur stdDeviation="4"/>
<feComposite in2="hardAlpha" operator="arithmetic" k2="-1" k3="1"/>
<feColorMatrix type="matrix" values="0 0 0 0 0 0 0 0 0 0 0 0 0 0 0 0 0 0 0.16 0"/>
<feBlend mode="normal" in2="shape" result="effect1_innerShadow_5510_1027"/>
</filter>
<filter id="filter1_i_5510_1027" x="119.072" y="67.5977" width="80" height="88" filterUnits="userSpaceOnUse" color-interpolation-filters="sRGB">
<feFlood flood-opacity="0" result="BackgroundImageFix"/>
<feBlend mode="normal" in="SourceGraphic" in2="BackgroundImageFix" result="shape"/>
<feColorMatrix in="SourceAlpha" type="matrix" values="0 0 0 0 0 0 0 0 0 0 0 0 0 0 0 0 0 0 127 0" result="hardAlpha"/>
<feOffset dy="4"/>
<feGaussianBlur stdDeviation="4"/>
<feComposite in2="hardAlpha" operator="arithmetic" k2="-1" k3="1"/>
<feColorMatrix type="matrix" values="0 0 0 0 0 0 0 0 0 0 0 0 0 0 0 0 0 0 0.16 0"/>
<feBlend mode="normal" in2="shape" result="effect1_innerShadow_5510_1027"/>
</filter>
<filter id="filter2_i_5510_1027" x="0.0722656" y="194.598" width="80" height="88" filterUnits="userSpaceOnUse" color-interpolation-filters="sRGB">
<feFlood flood-opacity="0" result="BackgroundImageFix"/>
<feBlend mode="normal" in="SourceGraphic" in2="BackgroundImageFix" result="shape"/>
<feColorMatrix in="SourceAlpha" type="matrix" values="0 0 0 0 0 0 0 0 0 0 0 0 0 0 0 0 0 0 127 0" result="hardAlpha"/>
<feOffset dy="4"/>
<feGaussianBlur stdDeviation="4"/>
<feComposite in2="hardAlpha" operator="arithmetic" k2="-1" k3="1"/>
<feColorMatrix type="matrix" values="0 0 0 0 0 0 0 0 0 0 0 0 0 0 0 0 0 0 0.16 0"/>
<feBlend mode="normal" in2="shape" result="effect1_innerShadow_5510_1027"/>
</filter>
<filter id="filter3_i_5510_1027" x="119.072" y="194.598" width="80" height="88" filterUnits="userSpaceOnUse" color-interpolation-filters="sRGB">
<feFlood flood-opacity="0" result="BackgroundImageFix"/>
<feBlend mode="normal" in="SourceGraphic" in2="BackgroundImageFix" result="shape"/>
<feColorMatrix in="SourceAlpha" type="matrix" values="0 0 0 0 0 0 0 0 0 0 0 0 0 0 0 0 0 0 127 0" result="hardAlpha"/>
<feOffset dy="4"/>
<feGaussianBlur stdDeviation="4"/>
<feComposite in2="hardAlpha" operator="arithmetic" k2="-1" k3="1"/>
<feColorMatrix type="matrix" values="0 0 0 0 0 0 0 0 0 0 0 0 0 0 0 0 0 0 0.16 0"/>
<feBlend mode="normal" in2="shape" result="effect1_innerShadow_5510_1027"/>
</filter>
<filter id="filter4_i_5510_1027" x="0.0722656" y="321.598" width="80" height="88" filterUnits="userSpaceOnUse" color-interpolation-filters="sRGB">
<feFlood flood-opacity="0" result="BackgroundImageFix"/>
<feBlend mode="normal" in="SourceGraphic" in2="BackgroundImageFix" result="shape"/>
<feColorMatrix in="SourceAlpha" type="matrix" values="0 0 0 0 0 0 0 0 0 0 0 0 0 0 0 0 0 0 127 0" result="hardAlpha"/>
<feOffset dy="4"/>
<feGaussianBlur stdDeviation="4"/>
<feComposite in2="hardAlpha" operator="arithmetic" k2="-1" k3="1"/>
<feColorMatrix type="matrix" values="0 0 0 0 0 0 0 0 0 0 0 0 0 0 0 0 0 0 0.16 0"/>
<feBlend mode="normal" in2="shape" result="effect1_innerShadow_5510_1027"/>
</filter>
<linearGradient id="paint0_linear_5510_1027" x1="0.0722656" y1="107.598" x2="80.0723" y2="107.598" gradientUnits="userSpaceOnUse">
<stop offset="0.095" stop-color="#DEDFDA"/>
<stop offset="1" stop-color="#F5F5F5"/>
</linearGradient>
<linearGradient id="paint1_linear_5510_1027" x1="119.072" y1="107.598" x2="199.072" y2="107.598" gradientUnits="userSpaceOnUse">
<stop offset="0.095" stop-color="#DEDFDA"/>
<stop offset="1" stop-color="#F5F5F5"/>
</linearGradient>
<linearGradient id="paint2_linear_5510_1027" x1="0.0722656" y1="234.598" x2="80.0723" y2="234.598" gradientUnits="userSpaceOnUse">
<stop offset="0.095" stop-color="#DEDFDA"/>
<stop offset="1" stop-color="#F5F5F5"/>
</linearGradient>
<linearGradient id="paint3_linear_5510_1027" x1="119.072" y1="234.598" x2="199.072" y2="234.598" gradientUnits="userSpaceOnUse">
<stop offset="0.095" stop-color="#DEDFDA"/>
<stop offset="1" stop-color="#F5F5F5"/>
</linearGradient>
<linearGradient id="paint4_linear_5510_1027" x1="0.0722656" y1="361.598" x2="80.0723" y2="361.598" gradientUnits="userSpaceOnUse">
<stop offset="0.095" stop-color="#DEDFDA"/>
<stop offset="1" stop-color="#F5F5F5"/>
</linearGradient>
<clipPath id="clip0_5510_1027">
<path d="M0.0722656 71.5977C0.0722656 69.3885 1.86313 67.5977 4.07227 67.5977H76.0723C78.2814 67.5977 80.0723 69.3885 80.0723 71.5977V143.598C80.0723 145.807 78.2814 147.598 76.0723 147.598H4.07227C1.86313 147.598 0.0722656 145.807 0.0722656 143.598V71.5977Z" fill="white"/>
</clipPath>
<clipPath id="clip1_5510_1027">
<path d="M119.072 71.5977C119.072 69.3885 120.863 67.5977 123.072 67.5977H195.072C197.281 67.5977 199.072 69.3885 199.072 71.5977V143.598C199.072 145.807 197.281 147.598 195.072 147.598H123.072C120.863 147.598 119.072 145.807 119.072 143.598V71.5977Z" fill="white"/>
</clipPath>
<clipPath id="clip2_5510_1027">
<path d="M0.0722656 198.598C0.0722656 196.389 1.86313 194.598 4.07227 194.598H76.0723C78.2814 194.598 80.0723 196.389 80.0723 198.598V270.598C80.0723 272.807 78.2814 274.598 76.0723 274.598H4.07227C1.86313 274.598 0.0722656 272.807 0.0722656 270.598V198.598Z" fill="white"/>
</clipPath>
<clipPath id="clip3_5510_1027">
<path d="M119.072 198.598C119.072 196.389 120.863 194.598 123.072 194.598H195.072C197.281 194.598 199.072 196.389 199.072 198.598V270.598C199.072 272.807 197.281 274.598 195.072 274.598H123.072C120.863 274.598 119.072 272.807 119.072 270.598V198.598Z" fill="white"/>
</clipPath>
<clipPath id="clip4_5510_1027">
<path d="M0.0722656 325.598C0.0722656 323.389 1.86313 321.598 4.07227 321.598H76.0723C78.2814 321.598 80.0723 323.389 80.0723 325.598V397.598C80.0723 399.807 78.2814 401.598 76.0723 401.598H4.07227C1.86313 401.598 0.0722656 399.807 0.0722656 397.598V325.598Z" fill="white"/>
</clipPath>
</defs>
</svg>
