<svg width="367" height="101" viewBox="0 0 367 101" fill="none" xmlns="http://www.w3.org/2000/svg">
<rect x="10.3711" y="4.50977" width="70" height="92" rx="6" stroke="#7F7F7F" stroke-width="4"/>
<path d="M23.8111 59.0098V44.1098H28.6711C30.2444 44.1098 31.6111 44.4298 32.7711 45.0698C33.9444 45.6964 34.8511 46.5698 35.4911 47.6898C36.1311 48.7964 36.4511 50.0831 36.4511 51.5498C36.4511 53.0031 36.1311 54.2964 35.4911 55.4298C34.8511 56.5498 33.9444 57.4298 32.7711 58.0698C31.6111 58.6964 30.2444 59.0098 28.6711 59.0098H23.8111ZM26.5311 56.6098H28.7311C29.7444 56.6098 30.6178 56.4031 31.3511 55.9898C32.0978 55.5631 32.6778 54.9764 33.0911 54.2298C33.5044 53.4698 33.7111 52.5764 33.7111 51.5498C33.7111 50.5098 33.5044 49.6164 33.0911 48.8698C32.6778 48.1231 32.0978 47.5431 31.3511 47.1298C30.6178 46.7164 29.7444 46.5098 28.7311 46.5098H26.5311V56.6098ZM41.6567 59.2498C40.8967 59.2498 40.2367 59.1231 39.6767 58.8698C39.1167 58.6164 38.6834 58.2564 38.3767 57.7898C38.0701 57.3098 37.9167 56.7564 37.9167 56.1298C37.9167 55.5298 38.0501 54.9964 38.3167 54.5298C38.5834 54.0498 38.9967 53.6498 39.5567 53.3298C40.1167 53.0098 40.8234 52.7831 41.6767 52.6498L45.2367 52.0698V54.0698L42.1767 54.5898C41.6567 54.6831 41.2701 54.8498 41.0167 55.0898C40.7634 55.3298 40.6367 55.6431 40.6367 56.0298C40.6367 56.4031 40.7767 56.7031 41.0567 56.9298C41.3501 57.1431 41.7101 57.2498 42.1367 57.2498C42.6834 57.2498 43.1634 57.1364 43.5767 56.9098C44.0034 56.6698 44.3301 56.3431 44.5567 55.9298C44.7967 55.5164 44.9167 55.0631 44.9167 54.5698V51.7698C44.9167 51.3031 44.7301 50.9164 44.3567 50.6098C43.9967 50.2898 43.5167 50.1298 42.9167 50.1298C42.3567 50.1298 41.8567 50.2831 41.4167 50.5898C40.9901 50.8831 40.6767 51.2764 40.4767 51.7698L38.3367 50.7298C38.5501 50.1564 38.8834 49.6631 39.3367 49.2498C39.8034 48.8231 40.3501 48.4898 40.9767 48.2498C41.6034 48.0098 42.2834 47.8898 43.0167 47.8898C43.9101 47.8898 44.6967 48.0564 45.3767 48.3898C46.0567 48.7098 46.5834 49.1631 46.9567 49.7498C47.3434 50.3231 47.5367 50.9964 47.5367 51.7698V59.0098H45.0567V57.1498L45.6167 57.1098C45.3367 57.5764 45.0034 57.9698 44.6167 58.2898C44.2301 58.5964 43.7901 58.8364 43.2967 59.0098C42.8034 59.1698 42.2567 59.2498 41.6567 59.2498ZM54.723 59.1298C53.4963 59.1298 52.543 58.7964 51.863 58.1298C51.1963 57.4498 50.863 56.4964 50.863 55.2698V50.4698H48.983V48.1298H49.183C49.7163 48.1298 50.1296 47.9898 50.423 47.7098C50.7163 47.4298 50.863 47.0231 50.863 46.4898V45.6498H53.483V48.1298H55.983V50.4698H53.483V55.1298C53.483 55.4898 53.543 55.7964 53.663 56.0498C53.7963 56.3031 53.9963 56.4964 54.263 56.6298C54.543 56.7631 54.8963 56.8298 55.323 56.8298C55.4163 56.8298 55.523 56.8231 55.643 56.8098C55.7763 56.7964 55.903 56.7831 56.023 56.7698V59.0098C55.8363 59.0364 55.623 59.0631 55.383 59.0898C55.143 59.1164 54.923 59.1298 54.723 59.1298ZM61.2856 59.2498C60.5256 59.2498 59.8656 59.1231 59.3056 58.8698C58.7456 58.6164 58.3123 58.2564 58.0056 57.7898C57.699 57.3098 57.5456 56.7564 57.5456 56.1298C57.5456 55.5298 57.679 54.9964 57.9456 54.5298C58.2123 54.0498 58.6256 53.6498 59.1856 53.3298C59.7456 53.0098 60.4523 52.7831 61.3056 52.6498L64.8656 52.0698V54.0698L61.8056 54.5898C61.2856 54.6831 60.899 54.8498 60.6456 55.0898C60.3923 55.3298 60.2656 55.6431 60.2656 56.0298C60.2656 56.4031 60.4056 56.7031 60.6856 56.9298C60.979 57.1431 61.339 57.2498 61.7656 57.2498C62.3123 57.2498 62.7923 57.1364 63.2056 56.9098C63.6323 56.6698 63.959 56.3431 64.1856 55.9298C64.4256 55.5164 64.5456 55.0631 64.5456 54.5698V51.7698C64.5456 51.3031 64.359 50.9164 63.9856 50.6098C63.6256 50.2898 63.1456 50.1298 62.5456 50.1298C61.9856 50.1298 61.4856 50.2831 61.0456 50.5898C60.619 50.8831 60.3056 51.2764 60.1056 51.7698L57.9656 50.7298C58.179 50.1564 58.5123 49.6631 58.9656 49.2498C59.4323 48.8231 59.979 48.4898 60.6056 48.2498C61.2323 48.0098 61.9123 47.8898 62.6456 47.8898C63.539 47.8898 64.3256 48.0564 65.0056 48.3898C65.6856 48.7098 66.2123 49.1631 66.5856 49.7498C66.9723 50.3231 67.1656 50.9964 67.1656 51.7698V59.0098H64.6856V57.1498L65.2456 57.1098C64.9656 57.5764 64.6323 57.9698 64.2456 58.2898C63.859 58.5964 63.419 58.8364 62.9256 59.0098C62.4323 59.1698 61.8856 59.2498 61.2856 59.2498Z" fill="#7F7F7F"/>
<path d="M99.3711 48.7598C98.4046 48.7598 97.6211 49.5433 97.6211 50.5098C97.6211 51.4763 98.4046 52.2598 99.3711 52.2598V48.7598ZM130.609 51.7472C131.292 51.0638 131.292 49.9557 130.609 49.2723L119.472 38.1354C118.788 37.452 117.68 37.452 116.997 38.1354C116.313 38.8188 116.313 39.9269 116.997 40.6103L126.896 50.5098L116.997 60.4093C116.313 61.0927 116.313 62.2007 116.997 62.8841C117.68 63.5676 118.788 63.5676 119.472 62.8841L130.609 51.7472ZM99.3711 50.5098V52.2598H129.371V50.5098V48.7598H99.3711V50.5098Z" fill="#7F7F7F"/>
<g clip-path="url(#clip0_4870_6796)">
<rect x="146.371" y="2.50977" width="74" height="96" rx="8" fill="#F0E6E6"/>
<g clip-path="url(#clip1_4870_6796)">
<path d="M257.023 -26.6728C265.465 -18.2305 265.465 -4.54289 257.023 3.89942C256.048 4.87391 255.003 5.73445 253.905 6.48399L254.166 10.9158C254.19 11.3313 254.126 11.7474 253.978 12.1365C253.83 12.5256 253.602 12.879 253.307 13.1733L250.074 16.4063L253.548 19.8804C254.7 21.0317 254.7 22.8981 253.548 24.0494L250.074 27.5235L253.548 30.9976C254.7 32.1489 254.7 34.0153 253.548 35.1666L243.821 44.8941C242.67 46.0454 240.803 46.0454 239.652 44.8941L232.872 38.1145C232.319 37.5616 232.009 36.8118 232.009 36.03L232.009 7.92394C230.004 6.91375 228.124 5.57317 226.45 3.89942C218.008 -4.54289 218.008 -18.2304 226.45 -26.6728C234.917 -35.1402 248.555 -35.1402 257.023 -26.6728ZM237.567 -15.5557C239.87 -13.2532 243.603 -13.2532 245.905 -15.5557C248.208 -17.8582 248.208 -21.5911 245.905 -23.8936C243.603 -26.1961 239.87 -26.1961 237.567 -23.8936C235.265 -21.5911 235.265 -17.8582 237.567 -15.5557Z" fill="#DDC2C2"/>
</g>
<rect x="146.371" y="34.5098" width="74" height="32" stroke="#9B6A6A" stroke-width="2" stroke-dasharray="2 2"/>
<path d="M161.811 59.0098V44.1098H166.671C168.244 44.1098 169.611 44.4298 170.771 45.0698C171.944 45.6964 172.851 46.5698 173.491 47.6898C174.131 48.7964 174.451 50.0831 174.451 51.5498C174.451 53.0031 174.131 54.2964 173.491 55.4298C172.851 56.5498 171.944 57.4298 170.771 58.0698C169.611 58.6964 168.244 59.0098 166.671 59.0098H161.811ZM164.531 56.6098H166.731C167.744 56.6098 168.618 56.4031 169.351 55.9898C170.098 55.5631 170.678 54.9764 171.091 54.2298C171.504 53.4698 171.711 52.5764 171.711 51.5498C171.711 50.5098 171.504 49.6164 171.091 48.8698C170.678 48.1231 170.098 47.5431 169.351 47.1298C168.618 46.7164 167.744 46.5098 166.731 46.5098H164.531V56.6098ZM179.657 59.2498C178.897 59.2498 178.237 59.1231 177.677 58.8698C177.117 58.6164 176.683 58.2564 176.377 57.7898C176.07 57.3098 175.917 56.7564 175.917 56.1298C175.917 55.5298 176.05 54.9964 176.317 54.5298C176.583 54.0498 176.997 53.6498 177.557 53.3298C178.117 53.0098 178.823 52.7831 179.677 52.6498L183.237 52.0698V54.0698L180.177 54.5898C179.657 54.6831 179.27 54.8498 179.017 55.0898C178.763 55.3298 178.637 55.6431 178.637 56.0298C178.637 56.4031 178.777 56.7031 179.057 56.9298C179.35 57.1431 179.71 57.2498 180.137 57.2498C180.683 57.2498 181.163 57.1364 181.577 56.9098C182.003 56.6698 182.33 56.3431 182.557 55.9298C182.797 55.5164 182.917 55.0631 182.917 54.5698V51.7698C182.917 51.3031 182.73 50.9164 182.357 50.6098C181.997 50.2898 181.517 50.1298 180.917 50.1298C180.357 50.1298 179.857 50.2831 179.417 50.5898C178.99 50.8831 178.677 51.2764 178.477 51.7698L176.337 50.7298C176.55 50.1564 176.883 49.6631 177.337 49.2498C177.803 48.8231 178.35 48.4898 178.977 48.2498C179.603 48.0098 180.283 47.8898 181.017 47.8898C181.91 47.8898 182.697 48.0564 183.377 48.3898C184.057 48.7098 184.583 49.1631 184.957 49.7498C185.343 50.3231 185.537 50.9964 185.537 51.7698V59.0098H183.057V57.1498L183.617 57.1098C183.337 57.5764 183.003 57.9698 182.617 58.2898C182.23 58.5964 181.79 58.8364 181.297 59.0098C180.803 59.1698 180.257 59.2498 179.657 59.2498ZM192.723 59.1298C191.496 59.1298 190.543 58.7964 189.863 58.1298C189.196 57.4498 188.863 56.4964 188.863 55.2698V50.4698H186.983V48.1298H187.183C187.716 48.1298 188.13 47.9898 188.423 47.7098C188.716 47.4298 188.863 47.0231 188.863 46.4898V45.6498H191.483V48.1298H193.983V50.4698H191.483V55.1298C191.483 55.4898 191.543 55.7964 191.663 56.0498C191.796 56.3031 191.996 56.4964 192.263 56.6298C192.543 56.7631 192.896 56.8298 193.323 56.8298C193.416 56.8298 193.523 56.8231 193.643 56.8098C193.776 56.7964 193.903 56.7831 194.023 56.7698V59.0098C193.836 59.0364 193.623 59.0631 193.383 59.0898C193.143 59.1164 192.923 59.1298 192.723 59.1298ZM199.286 59.2498C198.526 59.2498 197.866 59.1231 197.306 58.8698C196.746 58.6164 196.312 58.2564 196.006 57.7898C195.699 57.3098 195.546 56.7564 195.546 56.1298C195.546 55.5298 195.679 54.9964 195.946 54.5298C196.212 54.0498 196.626 53.6498 197.186 53.3298C197.746 53.0098 198.452 52.7831 199.306 52.6498L202.866 52.0698V54.0698L199.806 54.5898C199.286 54.6831 198.899 54.8498 198.646 55.0898C198.392 55.3298 198.266 55.6431 198.266 56.0298C198.266 56.4031 198.406 56.7031 198.686 56.9298C198.979 57.1431 199.339 57.2498 199.766 57.2498C200.312 57.2498 200.792 57.1364 201.206 56.9098C201.632 56.6698 201.959 56.3431 202.186 55.9298C202.426 55.5164 202.546 55.0631 202.546 54.5698V51.7698C202.546 51.3031 202.359 50.9164 201.986 50.6098C201.626 50.2898 201.146 50.1298 200.546 50.1298C199.986 50.1298 199.486 50.2831 199.046 50.5898C198.619 50.8831 198.306 51.2764 198.106 51.7698L195.966 50.7298C196.179 50.1564 196.512 49.6631 196.966 49.2498C197.432 48.8231 197.979 48.4898 198.606 48.2498C199.232 48.0098 199.912 47.8898 200.646 47.8898C201.539 47.8898 202.326 48.0564 203.006 48.3898C203.686 48.7098 204.212 49.1631 204.586 49.7498C204.972 50.3231 205.166 50.9964 205.166 51.7698V59.0098H202.686V57.1498L203.246 57.1098C202.966 57.5764 202.632 57.9698 202.246 58.2898C201.859 58.5964 201.419 58.8364 200.926 59.0098C200.432 59.1698 199.886 59.2498 199.286 59.2498Z" fill="#9B6A6A"/>
</g>
<rect x="146.371" y="2.50977" width="74" height="96" rx="8" stroke="#9B6A6A" stroke-width="4"/>
<path d="M237.371 48.7598C236.405 48.7598 235.621 49.5433 235.621 50.5098C235.621 51.4763 236.405 52.2598 237.371 52.2598V48.7598ZM268.609 51.7472C269.292 51.0638 269.292 49.9557 268.609 49.2723L257.472 38.1354C256.788 37.452 255.68 37.452 254.997 38.1354C254.313 38.8188 254.313 39.9269 254.997 40.6103L264.896 50.5098L254.997 60.4093C254.313 61.0927 254.313 62.2007 254.997 62.8841C255.68 63.5676 256.788 63.5676 257.472 62.8841L268.609 51.7472ZM237.371 50.5098V52.2598H267.371V50.5098V48.7598H237.371V50.5098Z" fill="#7F7F7F"/>
<g clip-path="url(#clip2_4870_6796)">
<path d="M284.371 10.5098C284.371 6.09149 287.953 2.50977 292.371 2.50977H350.371C354.789 2.50977 358.371 6.09149 358.371 10.5098V29.8431H284.371V10.5098Z" fill="#F0E6E6"/>
<path d="M336.657 15.9912C345.1 24.4335 345.1 38.1212 336.657 46.5635C335.683 47.538 334.638 48.3985 333.54 49.1481L333.8 53.5798C333.825 53.9954 333.761 54.4115 333.613 54.8006C333.465 55.1897 333.236 55.5431 332.942 55.8374L329.709 59.0703L333.183 62.5445C334.334 63.6957 334.334 65.5622 333.183 66.7134L329.709 70.1876L333.183 73.6617C334.334 74.8129 334.334 76.6794 333.183 77.8306L323.456 87.5582C322.304 88.7094 320.438 88.7095 319.287 87.5582L312.507 80.7785C311.954 80.2257 311.644 79.4758 311.644 78.6941L311.644 50.588C309.639 49.5778 307.759 48.2372 306.085 46.5635C297.643 38.1212 297.643 24.4336 306.085 15.9912C314.552 7.5239 328.19 7.5239 336.657 15.9912ZM317.202 27.1084C319.505 29.4108 323.238 29.4108 325.54 27.1084C327.843 24.8059 327.843 21.0729 325.54 18.7704C323.238 16.468 319.505 16.468 317.202 18.7704C314.9 21.0729 314.9 24.8059 317.202 27.1084Z" fill="#DDC2C2"/>
</g>
<path d="M282.371 10.5098C282.371 4.98692 286.848 0.509766 292.371 0.509766H350.371C355.894 0.509766 360.371 4.98692 360.371 10.5098H356.371C356.371 7.19606 353.685 4.50977 350.371 4.50977H292.371C289.057 4.50977 286.371 7.19606 286.371 10.5098H282.371ZM358.371 29.8431H284.371H358.371ZM282.371 29.8431V10.5098C282.371 4.98692 286.848 0.509766 292.371 0.509766V4.50977C289.057 4.50977 286.371 7.19606 286.371 10.5098V29.8431H282.371ZM350.371 0.509766C355.894 0.509766 360.371 4.98692 360.371 10.5098V29.8431H356.371V10.5098C356.371 7.19606 353.685 4.50977 350.371 4.50977V0.509766Z" fill="#9B6A6A"/>
<g clip-path="url(#clip3_4870_6796)">
<path d="M284.371 36.8438H358.371V64.1771H284.371V36.8438Z" fill="#F0E6E6"/>
<path d="M337.126 20.9619C345.569 29.4042 345.568 43.0919 337.126 51.5342C336.152 52.5087 335.107 53.3692 334.008 54.1188L334.269 58.5505C334.294 58.9661 334.23 59.3822 334.082 59.7713C333.934 60.1604 333.705 60.5138 333.411 60.8081L330.178 64.0411L333.652 67.5152C334.803 68.6664 334.803 70.5329 333.652 71.6841L330.178 75.1583L333.652 78.6324C334.803 79.7836 334.803 81.6501 333.652 82.8014L323.924 92.5289C322.773 93.6802 320.907 93.6802 319.755 92.5289L312.976 85.7492C312.423 85.1964 312.112 84.4465 312.112 83.6648L312.112 55.5587C310.108 54.5485 308.228 53.2079 306.554 51.5342C298.111 43.0919 298.111 29.4043 306.554 20.9619C315.021 12.4946 328.659 12.4946 337.126 20.9619ZM317.671 32.0791C319.973 34.3815 323.706 34.3815 326.009 32.0791C328.311 29.7766 328.311 26.0436 326.009 23.7411C323.706 21.4387 319.973 21.4387 317.671 23.7411C315.369 26.0436 315.369 29.7766 317.671 32.0791Z" fill="#DDC2C2"/>
<path d="M299.811 59.0098V44.1098H304.671C306.244 44.1098 307.611 44.4298 308.771 45.0698C309.944 45.6964 310.851 46.5698 311.491 47.6898C312.131 48.7964 312.451 50.0831 312.451 51.5498C312.451 53.0031 312.131 54.2964 311.491 55.4298C310.851 56.5498 309.944 57.4298 308.771 58.0698C307.611 58.6964 306.244 59.0098 304.671 59.0098H299.811ZM302.531 56.6098H304.731C305.744 56.6098 306.618 56.4031 307.351 55.9898C308.098 55.5631 308.678 54.9764 309.091 54.2298C309.504 53.4698 309.711 52.5764 309.711 51.5498C309.711 50.5098 309.504 49.6164 309.091 48.8698C308.678 48.1231 308.098 47.5431 307.351 47.1298C306.618 46.7164 305.744 46.5098 304.731 46.5098H302.531V56.6098ZM317.657 59.2498C316.897 59.2498 316.237 59.1231 315.677 58.8698C315.117 58.6164 314.683 58.2564 314.377 57.7898C314.07 57.3098 313.917 56.7564 313.917 56.1298C313.917 55.5298 314.05 54.9964 314.317 54.5298C314.583 54.0498 314.997 53.6498 315.557 53.3298C316.117 53.0098 316.823 52.7831 317.677 52.6498L321.237 52.0698V54.0698L318.177 54.5898C317.657 54.6831 317.27 54.8498 317.017 55.0898C316.763 55.3298 316.637 55.6431 316.637 56.0298C316.637 56.4031 316.777 56.7031 317.057 56.9298C317.35 57.1431 317.71 57.2498 318.137 57.2498C318.683 57.2498 319.163 57.1364 319.577 56.9098C320.003 56.6698 320.33 56.3431 320.557 55.9298C320.797 55.5164 320.917 55.0631 320.917 54.5698V51.7698C320.917 51.3031 320.73 50.9164 320.357 50.6098C319.997 50.2898 319.517 50.1298 318.917 50.1298C318.357 50.1298 317.857 50.2831 317.417 50.5898C316.99 50.8831 316.677 51.2764 316.477 51.7698L314.337 50.7298C314.55 50.1564 314.883 49.6631 315.337 49.2498C315.803 48.8231 316.35 48.4898 316.977 48.2498C317.603 48.0098 318.283 47.8898 319.017 47.8898C319.91 47.8898 320.697 48.0564 321.377 48.3898C322.057 48.7098 322.583 49.1631 322.957 49.7498C323.343 50.3231 323.537 50.9964 323.537 51.7698V59.0098H321.057V57.1498L321.617 57.1098C321.337 57.5764 321.003 57.9698 320.617 58.2898C320.23 58.5964 319.79 58.8364 319.297 59.0098C318.803 59.1698 318.257 59.2498 317.657 59.2498ZM330.723 59.1298C329.496 59.1298 328.543 58.7964 327.863 58.1298C327.196 57.4498 326.863 56.4964 326.863 55.2698V50.4698H324.983V48.1298H325.183C325.716 48.1298 326.13 47.9898 326.423 47.7098C326.716 47.4298 326.863 47.0231 326.863 46.4898V45.6498H329.483V48.1298H331.983V50.4698H329.483V55.1298C329.483 55.4898 329.543 55.7964 329.663 56.0498C329.796 56.3031 329.996 56.4964 330.263 56.6298C330.543 56.7631 330.896 56.8298 331.323 56.8298C331.416 56.8298 331.523 56.8231 331.643 56.8098C331.776 56.7964 331.903 56.7831 332.023 56.7698V59.0098C331.836 59.0364 331.623 59.0631 331.383 59.0898C331.143 59.1164 330.923 59.1298 330.723 59.1298ZM337.286 59.2498C336.526 59.2498 335.866 59.1231 335.306 58.8698C334.746 58.6164 334.312 58.2564 334.006 57.7898C333.699 57.3098 333.546 56.7564 333.546 56.1298C333.546 55.5298 333.679 54.9964 333.946 54.5298C334.212 54.0498 334.626 53.6498 335.186 53.3298C335.746 53.0098 336.452 52.7831 337.306 52.6498L340.866 52.0698V54.0698L337.806 54.5898C337.286 54.6831 336.899 54.8498 336.646 55.0898C336.392 55.3298 336.266 55.6431 336.266 56.0298C336.266 56.4031 336.406 56.7031 336.686 56.9298C336.979 57.1431 337.339 57.2498 337.766 57.2498C338.312 57.2498 338.792 57.1364 339.206 56.9098C339.632 56.6698 339.959 56.3431 340.186 55.9298C340.426 55.5164 340.546 55.0631 340.546 54.5698V51.7698C340.546 51.3031 340.359 50.9164 339.986 50.6098C339.626 50.2898 339.146 50.1298 338.546 50.1298C337.986 50.1298 337.486 50.2831 337.046 50.5898C336.619 50.8831 336.306 51.2764 336.106 51.7698L333.966 50.7298C334.179 50.1564 334.512 49.6631 334.966 49.2498C335.432 48.8231 335.979 48.4898 336.606 48.2498C337.232 48.0098 337.912 47.8898 338.646 47.8898C339.539 47.8898 340.326 48.0564 341.006 48.3898C341.686 48.7098 342.212 49.1631 342.586 49.7498C342.972 50.3231 343.166 50.9964 343.166 51.7698V59.0098H340.686V57.1498L341.246 57.1098C340.966 57.5764 340.632 57.9698 340.246 58.2898C339.859 58.5964 339.419 58.8364 338.926 59.0098C338.432 59.1698 337.886 59.2498 337.286 59.2498Z" fill="#9B6A6A"/>
</g>
<path d="M358.371 36.8438H356.371V64.1771H358.371H360.371V36.8438H358.371ZM284.371 64.1771H286.371V36.8438H284.371H282.371V64.1771H284.371Z" fill="#9B6A6A"/>
<g clip-path="url(#clip4_4870_6796)">
<path d="M284.371 71.1758H358.371V90.5091C358.371 94.9274 354.789 98.5091 350.371 98.5091H292.371C287.953 98.5091 284.371 94.9274 284.371 90.5091V71.1758Z" fill="#F0E6E6"/>
<path d="M336.657 19.9619C345.1 28.4042 345.1 42.0919 336.657 50.5342C335.683 51.5087 334.638 52.3692 333.54 53.1188L333.8 57.5505C333.825 57.9661 333.761 58.3822 333.613 58.7713C333.465 59.1604 333.236 59.5138 332.942 59.8081L329.709 63.0411L333.183 66.5152C334.334 67.6664 334.334 69.5329 333.183 70.6841L329.709 74.1583L333.183 77.6324C334.334 78.7836 334.334 80.6501 333.183 81.8014L323.456 91.5289C322.304 92.6802 320.438 92.6802 319.287 91.5289L312.507 84.7492C311.954 84.1964 311.644 83.4465 311.644 82.6648L311.644 54.5587C309.639 53.5485 307.759 52.2079 306.085 50.5342C297.643 42.0919 297.643 28.4043 306.085 19.9619C314.552 11.4946 328.19 11.4946 336.657 19.9619ZM317.202 31.0791C319.505 33.3815 323.238 33.3815 325.54 31.0791C327.843 28.7766 327.843 25.0436 325.54 22.7411C323.238 20.4387 319.505 20.4387 317.202 22.7411C314.9 25.0436 314.9 28.7766 317.202 31.0791Z" fill="#DDC2C2"/>
</g>
<path d="M284.371 71.1758H358.371H284.371ZM360.371 90.5091C360.371 96.032 355.894 100.509 350.371 100.509H292.371C286.848 100.509 282.371 96.032 282.371 90.5091H286.371C286.371 93.8228 289.057 96.5091 292.371 96.5091H350.371C353.685 96.5091 356.371 93.8228 356.371 90.5091H360.371ZM292.371 100.509C286.848 100.509 282.371 96.032 282.371 90.5091V71.1758H286.371V90.5091C286.371 93.8228 289.057 96.5091 292.371 96.5091V100.509ZM360.371 71.1758V90.5091C360.371 96.032 355.894 100.509 350.371 100.509V96.5091C353.685 96.5091 356.371 93.8228 356.371 90.5091V71.1758H360.371Z" fill="#9B6A6A"/>
<defs>
<clipPath id="clip0_4870_6796">
<rect x="146.371" y="2.50977" width="74" height="96" rx="8" fill="white"/>
</clipPath>
<clipPath id="clip1_4870_6796">
<rect width="82.5411" height="82.5411" fill="white" transform="translate(183.371 2.50977) rotate(-45)"/>
</clipPath>
<clipPath id="clip2_4870_6796">
<path d="M284.371 10.5098C284.371 6.09149 287.953 2.50977 292.371 2.50977H350.371C354.789 2.50977 358.371 6.09149 358.371 10.5098V29.8431H284.371V10.5098Z" fill="white"/>
</clipPath>
<clipPath id="clip3_4870_6796">
<path d="M284.371 36.8438H358.371V64.1771H284.371V36.8438Z" fill="white"/>
</clipPath>
<clipPath id="clip4_4870_6796">
<path d="M284.371 71.1758H358.371V90.5091C358.371 94.9274 354.789 98.5091 350.371 98.5091H292.371C287.953 98.5091 284.371 94.9274 284.371 90.5091V71.1758Z" fill="white"/>
</clipPath>
</defs>
</svg>
