<svg width="347" height="407" viewBox="0 0 347 407" fill="none" xmlns="http://www.w3.org/2000/svg">
<path d="M42.4424 363.16V174.16M42.4424 174.16V37.6602H167.442V0.660156M42.4424 174.16H167.442M167.442 174.16V120.66H249.371M167.442 174.16V246.66H249.371" stroke="#C11778" stroke-width="3" stroke-linejoin="round" stroke-dasharray="4 4"/>
<g filter="url(#filter0_i_4870_6880)">
<g clip-path="url(#clip0_4870_6880)">
<path d="M0.442383 72.1602C0.442383 69.951 2.23324 68.1602 4.44238 68.1602H76.4424C78.6515 68.1602 80.4424 69.951 80.4424 72.1602V144.16C80.4424 146.369 78.6515 148.16 76.4424 148.16H4.44238C2.23324 148.16 0.442383 146.369 0.442383 144.16V72.1602Z" fill="url(#paint0_linear_4870_6880)"/>
<path d="M0.442383 148.16L49.4424 99.1602" stroke="#BFC0BD" stroke-width="3"/>
<rect x="41.4424" y="68.1602" width="39" height="39" rx="4" fill="#EFC125"/>
</g>
<rect x="8.44238" y="148.16" width="16" height="4" rx="1" fill="#BEBBBA"/>
<rect x="56.4424" y="148.16" width="16" height="4" rx="1" fill="#BEBBBA"/>
</g>
<g filter="url(#filter1_i_4870_6880)">
<g clip-path="url(#clip1_4870_6880)">
<path d="M119.442 72.1602C119.442 69.951 121.233 68.1602 123.442 68.1602H195.442C197.652 68.1602 199.442 69.951 199.442 72.1602V144.16C199.442 146.369 197.652 148.16 195.442 148.16H123.442C121.233 148.16 119.442 146.369 119.442 144.16V72.1602Z" fill="url(#paint1_linear_4870_6880)"/>
<path d="M119.442 148.16L168.442 99.1602" stroke="#BFC0BD" stroke-width="3"/>
<rect x="160.442" y="68.1602" width="39" height="39" rx="4" fill="#DC5F2A"/>
</g>
<rect x="127.442" y="148.16" width="16" height="4" rx="1" fill="#BEBBBA"/>
<rect x="175.442" y="148.16" width="16" height="4" rx="1" fill="#BEBBBA"/>
</g>
<g filter="url(#filter2_i_4870_6880)">
<g clip-path="url(#clip2_4870_6880)">
<path d="M0.442383 199.16C0.442383 196.951 2.23324 195.16 4.44238 195.16H76.4424C78.6515 195.16 80.4424 196.951 80.4424 199.16V271.16C80.4424 273.369 78.6515 275.16 76.4424 275.16H4.44238C2.23324 275.16 0.442383 273.369 0.442383 271.16V199.16Z" fill="url(#paint2_linear_4870_6880)"/>
<path d="M0.442383 275.16L49.4424 226.16" stroke="#BFC0BD" stroke-width="3"/>
<rect x="41.4424" y="195.16" width="39" height="39" rx="4" fill="#C11778"/>
</g>
<rect x="8.44238" y="275.16" width="16" height="4" rx="1" fill="#BEBBBA"/>
<rect x="56.4424" y="275.16" width="16" height="4" rx="1" fill="#BEBBBA"/>
</g>
<g filter="url(#filter3_i_4870_6880)">
<g clip-path="url(#clip3_4870_6880)">
<path d="M119.442 199.16C119.442 196.951 121.233 195.16 123.442 195.16H195.442C197.652 195.16 199.442 196.951 199.442 199.16V271.16C199.442 273.369 197.652 275.16 195.442 275.16H123.442C121.233 275.16 119.442 273.369 119.442 271.16V199.16Z" fill="url(#paint3_linear_4870_6880)"/>
<path d="M119.442 275.16L168.442 226.16" stroke="#BFC0BD" stroke-width="3"/>
<rect x="160.442" y="195.16" width="39" height="39" rx="4" fill="#97C23C"/>
</g>
<rect x="127.442" y="275.16" width="16" height="4" rx="1" fill="#BEBBBA"/>
<rect x="175.442" y="275.16" width="16" height="4" rx="1" fill="#BEBBBA"/>
</g>
<g filter="url(#filter4_i_4870_6880)">
<g clip-path="url(#clip4_4870_6880)">
<path d="M0.442383 326.16C0.442383 323.951 2.23324 322.16 4.44238 322.16H76.4424C78.6515 322.16 80.4424 323.951 80.4424 326.16V398.16C80.4424 400.369 78.6515 402.16 76.4424 402.16H4.44238C2.23324 402.16 0.442383 400.369 0.442383 398.16V326.16Z" fill="url(#paint4_linear_4870_6880)"/>
<path d="M0.442383 402.16L49.4424 353.16" stroke="#BFC0BD" stroke-width="3"/>
<rect x="41.4424" y="322.16" width="39" height="39" rx="4" fill="#1BABD5"/>
</g>
<rect x="8.44238" y="402.16" width="16" height="4" rx="1" fill="#BEBBBA"/>
<rect x="56.4424" y="402.16" width="16" height="4" rx="1" fill="#BEBBBA"/>
</g>
<path d="M337.728 68.1602H252.014C247.282 68.1602 243.442 71.9994 243.442 76.7316V133.874C243.442 138.607 247.282 142.446 252.014 142.446H286.3L283.442 151.017H270.585C268.21 151.017 266.3 152.928 266.3 155.303C266.3 157.678 268.21 159.589 270.585 159.589H319.157C321.532 159.589 323.442 157.678 323.442 155.303C323.442 152.928 321.532 151.017 319.157 151.017H306.3L303.442 142.446H337.728C342.46 142.446 346.3 138.607 346.3 133.874V76.7316C346.3 71.9994 342.46 68.1602 337.728 68.1602ZM334.871 131.017H254.871V79.5887H334.871V131.017Z" fill="#7F7F7F"/>
<path d="M337.728 193.588H252.014C247.282 193.588 243.442 197.427 243.442 202.159V259.302C243.442 264.034 247.282 267.874 252.014 267.874H286.3L283.442 276.445H270.585C268.21 276.445 266.3 278.356 266.3 280.731C266.3 283.106 268.21 285.016 270.585 285.016H319.157C321.532 285.016 323.442 283.106 323.442 280.731C323.442 278.356 321.532 276.445 319.157 276.445H306.3L303.442 267.874H337.728C342.46 267.874 346.3 264.034 346.3 259.302V202.159C346.3 197.427 342.46 193.588 337.728 193.588ZM334.871 256.445H254.871V205.016H334.871V256.445Z" fill="#7F7F7F"/>
<defs>
<filter id="filter0_i_4870_6880" x="0.442383" y="68.1602" width="80" height="88" filterUnits="userSpaceOnUse" color-interpolation-filters="sRGB">
<feFlood flood-opacity="0" result="BackgroundImageFix"/>
<feBlend mode="normal" in="SourceGraphic" in2="BackgroundImageFix" result="shape"/>
<feColorMatrix in="SourceAlpha" type="matrix" values="0 0 0 0 0 0 0 0 0 0 0 0 0 0 0 0 0 0 127 0" result="hardAlpha"/>
<feOffset dy="4"/>
<feGaussianBlur stdDeviation="4"/>
<feComposite in2="hardAlpha" operator="arithmetic" k2="-1" k3="1"/>
<feColorMatrix type="matrix" values="0 0 0 0 0 0 0 0 0 0 0 0 0 0 0 0 0 0 0.16 0"/>
<feBlend mode="normal" in2="shape" result="effect1_innerShadow_4870_6880"/>
</filter>
<filter id="filter1_i_4870_6880" x="119.442" y="68.1602" width="80" height="88" filterUnits="userSpaceOnUse" color-interpolation-filters="sRGB">
<feFlood flood-opacity="0" result="BackgroundImageFix"/>
<feBlend mode="normal" in="SourceGraphic" in2="BackgroundImageFix" result="shape"/>
<feColorMatrix in="SourceAlpha" type="matrix" values="0 0 0 0 0 0 0 0 0 0 0 0 0 0 0 0 0 0 127 0" result="hardAlpha"/>
<feOffset dy="4"/>
<feGaussianBlur stdDeviation="4"/>
<feComposite in2="hardAlpha" operator="arithmetic" k2="-1" k3="1"/>
<feColorMatrix type="matrix" values="0 0 0 0 0 0 0 0 0 0 0 0 0 0 0 0 0 0 0.16 0"/>
<feBlend mode="normal" in2="shape" result="effect1_innerShadow_4870_6880"/>
</filter>
<filter id="filter2_i_4870_6880" x="0.442383" y="195.16" width="80" height="88" filterUnits="userSpaceOnUse" color-interpolation-filters="sRGB">
<feFlood flood-opacity="0" result="BackgroundImageFix"/>
<feBlend mode="normal" in="SourceGraphic" in2="BackgroundImageFix" result="shape"/>
<feColorMatrix in="SourceAlpha" type="matrix" values="0 0 0 0 0 0 0 0 0 0 0 0 0 0 0 0 0 0 127 0" result="hardAlpha"/>
<feOffset dy="4"/>
<feGaussianBlur stdDeviation="4"/>
<feComposite in2="hardAlpha" operator="arithmetic" k2="-1" k3="1"/>
<feColorMatrix type="matrix" values="0 0 0 0 0 0 0 0 0 0 0 0 0 0 0 0 0 0 0.16 0"/>
<feBlend mode="normal" in2="shape" result="effect1_innerShadow_4870_6880"/>
</filter>
<filter id="filter3_i_4870_6880" x="119.442" y="195.16" width="80" height="88" filterUnits="userSpaceOnUse" color-interpolation-filters="sRGB">
<feFlood flood-opacity="0" result="BackgroundImageFix"/>
<feBlend mode="normal" in="SourceGraphic" in2="BackgroundImageFix" result="shape"/>
<feColorMatrix in="SourceAlpha" type="matrix" values="0 0 0 0 0 0 0 0 0 0 0 0 0 0 0 0 0 0 127 0" result="hardAlpha"/>
<feOffset dy="4"/>
<feGaussianBlur stdDeviation="4"/>
<feComposite in2="hardAlpha" operator="arithmetic" k2="-1" k3="1"/>
<feColorMatrix type="matrix" values="0 0 0 0 0 0 0 0 0 0 0 0 0 0 0 0 0 0 0.16 0"/>
<feBlend mode="normal" in2="shape" result="effect1_innerShadow_4870_6880"/>
</filter>
<filter id="filter4_i_4870_6880" x="0.442383" y="322.16" width="80" height="88" filterUnits="userSpaceOnUse" color-interpolation-filters="sRGB">
<feFlood flood-opacity="0" result="BackgroundImageFix"/>
<feBlend mode="normal" in="SourceGraphic" in2="BackgroundImageFix" result="shape"/>
<feColorMatrix in="SourceAlpha" type="matrix" values="0 0 0 0 0 0 0 0 0 0 0 0 0 0 0 0 0 0 127 0" result="hardAlpha"/>
<feOffset dy="4"/>
<feGaussianBlur stdDeviation="4"/>
<feComposite in2="hardAlpha" operator="arithmetic" k2="-1" k3="1"/>
<feColorMatrix type="matrix" values="0 0 0 0 0 0 0 0 0 0 0 0 0 0 0 0 0 0 0.16 0"/>
<feBlend mode="normal" in2="shape" result="effect1_innerShadow_4870_6880"/>
</filter>
<linearGradient id="paint0_linear_4870_6880" x1="0.442383" y1="108.16" x2="80.4424" y2="108.16" gradientUnits="userSpaceOnUse">
<stop offset="0.095" stop-color="#DEDFDA"/>
<stop offset="1" stop-color="#F5F5F5"/>
</linearGradient>
<linearGradient id="paint1_linear_4870_6880" x1="119.442" y1="108.16" x2="199.442" y2="108.16" gradientUnits="userSpaceOnUse">
<stop offset="0.095" stop-color="#DEDFDA"/>
<stop offset="1" stop-color="#F5F5F5"/>
</linearGradient>
<linearGradient id="paint2_linear_4870_6880" x1="0.442383" y1="235.16" x2="80.4424" y2="235.16" gradientUnits="userSpaceOnUse">
<stop offset="0.095" stop-color="#DEDFDA"/>
<stop offset="1" stop-color="#F5F5F5"/>
</linearGradient>
<linearGradient id="paint3_linear_4870_6880" x1="119.442" y1="235.16" x2="199.442" y2="235.16" gradientUnits="userSpaceOnUse">
<stop offset="0.095" stop-color="#DEDFDA"/>
<stop offset="1" stop-color="#F5F5F5"/>
</linearGradient>
<linearGradient id="paint4_linear_4870_6880" x1="0.442383" y1="362.16" x2="80.4424" y2="362.16" gradientUnits="userSpaceOnUse">
<stop offset="0.095" stop-color="#DEDFDA"/>
<stop offset="1" stop-color="#F5F5F5"/>
</linearGradient>
<clipPath id="clip0_4870_6880">
<path d="M0.442383 72.1602C0.442383 69.951 2.23324 68.1602 4.44238 68.1602H76.4424C78.6515 68.1602 80.4424 69.951 80.4424 72.1602V144.16C80.4424 146.369 78.6515 148.16 76.4424 148.16H4.44238C2.23324 148.16 0.442383 146.369 0.442383 144.16V72.1602Z" fill="white"/>
</clipPath>
<clipPath id="clip1_4870_6880">
<path d="M119.442 72.1602C119.442 69.951 121.233 68.1602 123.442 68.1602H195.442C197.652 68.1602 199.442 69.951 199.442 72.1602V144.16C199.442 146.369 197.652 148.16 195.442 148.16H123.442C121.233 148.16 119.442 146.369 119.442 144.16V72.1602Z" fill="white"/>
</clipPath>
<clipPath id="clip2_4870_6880">
<path d="M0.442383 199.16C0.442383 196.951 2.23324 195.16 4.44238 195.16H76.4424C78.6515 195.16 80.4424 196.951 80.4424 199.16V271.16C80.4424 273.369 78.6515 275.16 76.4424 275.16H4.44238C2.23324 275.16 0.442383 273.369 0.442383 271.16V199.16Z" fill="white"/>
</clipPath>
<clipPath id="clip3_4870_6880">
<path d="M119.442 199.16C119.442 196.951 121.233 195.16 123.442 195.16H195.442C197.652 195.16 199.442 196.951 199.442 199.16V271.16C199.442 273.369 197.652 275.16 195.442 275.16H123.442C121.233 275.16 119.442 273.369 119.442 271.16V199.16Z" fill="white"/>
</clipPath>
<clipPath id="clip4_4870_6880">
<path d="M0.442383 326.16C0.442383 323.951 2.23324 322.16 4.44238 322.16H76.4424C78.6515 322.16 80.4424 323.951 80.4424 326.16V398.16C80.4424 400.369 78.6515 402.16 76.4424 402.16H4.44238C2.23324 402.16 0.442383 400.369 0.442383 398.16V326.16Z" fill="white"/>
</clipPath>
</defs>
</svg>
