<svg width="361" height="309" viewBox="0 0 361 309" fill="none" xmlns="http://www.w3.org/2000/svg">
<g style="mix-blend-mode:multiply">
<ellipse cx="109.806" cy="181.051" rx="50.5468" ry="50.6095" fill="#F5C425"/>
</g>
<g style="mix-blend-mode:multiply">
<ellipse cx="62.9291" cy="244.522" rx="34.8656" ry="34.9089" fill="#9AC63D"/>
</g>
<g style="mix-blend-mode:multiply">
<ellipse cx="129.324" cy="243.187" rx="36.2002" ry="36.2451" fill="#C61779"/>
</g>
<g style="mix-blend-mode:multiply">
<ellipse cx="188.545" cy="231.494" rx="46.3763" ry="46.4338" fill="#1CAED8"/>
</g>
<g style="mix-blend-mode:multiply">
<ellipse cx="245.598" cy="252.707" rx="43.0398" ry="43.0933" fill="#9AC63D"/>
</g>
<g style="mix-blend-mode:multiply">
<ellipse cx="34.5694" cy="204.77" rx="34.1983" ry="34.2408" fill="#1CAED8"/>
</g>
<g style="mix-blend-mode:multiply">
<ellipse cx="96.4598" cy="272.751" rx="23.0213" ry="23.0499" fill="#F5C325"/>
</g>
<g style="mix-blend-mode:multiply">
<ellipse cx="174.532" cy="287.951" rx="20.1854" ry="20.2104" fill="#F5C325"/>
</g>
<g style="mix-blend-mode:multiply">
<ellipse cx="210.732" cy="159.338" rx="39.203" ry="39.2516" fill="#E1612A"/>
</g>
<g style="mix-blend-mode:multiply">
<ellipse cx="311.159" cy="145.642" rx="20.1853" ry="20.2104" fill="#1CAED8"/>
</g>
<g style="mix-blend-mode:multiply">
<ellipse cx="165.858" cy="172.534" rx="22.6877" ry="22.7158" fill="#9AC63D"/>
</g>
<g style="mix-blend-mode:multiply">
<ellipse cx="57.4242" cy="148.146" rx="17.683" ry="17.705" fill="#E1602A"/>
</g>
<g style="mix-blend-mode:multiply">
<ellipse cx="220.908" cy="70.3121" rx="16.1816" ry="16.3688" fill="#F5C425"/>
</g>
<g style="mix-blend-mode:multiply">
<ellipse cx="184.375" cy="12.8543" rx="12.5116" ry="12.6941" fill="#1CAED8"/>
</g>
<g style="mix-blend-mode:multiply">
<ellipse cx="267.619" cy="185.896" rx="52.7155" ry="52.7809" fill="#C61779"/>
</g>
<g style="mix-blend-mode:multiply">
<ellipse cx="141.836" cy="94.6975" rx="19.3512" ry="19.3753" fill="#C61779"/>
</g>
<g style="mix-blend-mode:multiply">
<ellipse cx="307.656" cy="229.322" rx="52.7155" ry="52.7809" fill="#F5C425"/>
</g>
</svg>
