<svg width="228" height="141" viewBox="0 0 228 141" fill="none" xmlns="http://www.w3.org/2000/svg">
<path fill-rule="evenodd" clip-rule="evenodd" d="M82.0321 18.0257H27.6604C27.2897 18.0257 26.9891 18.3253 26.9891 18.6949V50.4671C26.9891 50.8367 27.2897 51.1363 27.6604 51.1363H82.0321C82.4029 51.1363 82.7034 50.8367 82.7034 50.4671V18.6949C82.7034 18.3253 82.4029 18.0257 82.0321 18.0257ZM157.748 18.0257H103.376C103.005 18.0257 102.705 18.3253 102.705 18.6949V50.4671C102.705 50.8367 103.005 51.1363 103.376 51.1363H157.748C158.119 51.1363 158.419 50.8367 158.419 50.4671V18.6949C158.419 18.3253 158.119 18.0257 157.748 18.0257ZM27.6604 11.6172C23.7392 11.6172 20.5605 14.786 20.5605 18.6949V50.4671C20.5605 54.376 23.7392 57.5448 27.6604 57.5448H82.0321C85.9533 57.5448 89.132 54.376 89.132 50.4671V18.6949C89.132 14.786 85.9533 11.6172 82.0321 11.6172H27.6604ZM103.376 11.6172C99.4549 11.6172 96.2762 14.786 96.2762 18.6949V50.4671C96.2762 54.376 99.4549 57.5448 103.376 57.5448H157.748C161.669 57.5448 164.848 54.376 164.848 50.4671V18.6949C164.848 14.786 161.669 11.6172 157.748 11.6172H103.376Z" fill="#0D1A33"/>
<path d="M18.7852 63.2603C18.7852 61.8739 19.9091 60.75 21.2955 60.75H208.061C209.447 60.75 210.571 61.8739 210.571 63.2603V69.2947H18.7852V63.2603Z" fill="#0D1A33"/>
<rect x="157" y="69.2969" width="53.5714" height="18.1574" fill="#0D1A33"/>
<rect x="167.045" y="76.5586" width="33.4821" height="3.63148" fill="white"/>
<rect x="157" y="90.6562" width="53.5714" height="18.1574" fill="#0D1A33"/>
<rect x="167.045" y="97.918" width="33.4821" height="3.63148" fill="white"/>
<rect x="157" y="112.02" width="53.5714" height="18.1574" fill="#0D1A33"/>
<rect x="167.045" y="119.281" width="33.4821" height="3.63148" fill="white"/>
<rect x="68.6113" y="31.625" width="46.8589" height="76.7421" rx="3.54991" fill="#0D1A33"/>
<rect x="71.957" y="122.156" width="7.09983" height="7.07766" rx="3.53883" fill="#0D1A33"/>
<rect x="103.906" y="122.156" width="7.09983" height="7.07766" rx="3.53883" fill="#0D1A33"/>
<rect x="54.3867" y="75.9492" width="74.5482" height="10.6165" rx="3.54991" fill="#0D1A33"/>
<rect x="87.8574" y="99.1562" width="7.83517" height="25.606" rx="3.54991" fill="#0D1A33"/>
<path d="M71.957 122.066C71.957 120.217 73.4556 118.719 75.3041 118.719H107.659C109.508 118.719 111.006 120.217 111.006 122.066V125.594H71.957V122.066Z" fill="#0D1A33"/>
<path d="M18.7852 69.2969H26.2852V126.628C26.2852 128.588 24.6958 130.178 22.7352 130.178H22.3351C20.3745 130.178 18.7852 128.588 18.7852 126.628V69.2969Z" fill="#0D1A33"/>
</svg>
