<svg width="254" height="141" viewBox="0 0 254 141" fill="none" xmlns="http://www.w3.org/2000/svg">
<path fill-rule="evenodd" clip-rule="evenodd" d="M212.542 16.5977H198.275C188.983 16.5977 181.449 24.131 181.449 33.424V124.436H229.368V33.4239C229.368 24.131 221.835 16.5977 212.542 16.5977ZM198.275 10.5977C185.669 10.5977 175.449 20.8173 175.449 33.424V124.729C175.449 127.881 178.004 130.436 181.156 130.436H229.662C232.813 130.436 235.368 127.881 235.368 124.729V33.4239C235.368 20.8173 225.149 10.5977 212.542 10.5977H198.275Z" fill="#0D1A33"/>
<path fill-rule="evenodd" clip-rule="evenodd" d="M24 84.2969V90.2747H165.629V84.2969H24ZM20.8533 78.2969C19.2775 78.2969 18 79.5743 18 81.1502V93.4214C18 94.9972 19.2775 96.2747 20.8533 96.2747H168.775C170.351 96.2747 171.629 94.9972 171.629 93.4214V81.1502C171.629 79.5743 170.351 78.2969 168.775 78.2969H20.8533Z" fill="#0D1A33"/>
<path fill-rule="evenodd" clip-rule="evenodd" d="M55.0527 95.7383V124.597H136.211V95.7383H55.0527ZM51.906 89.7383C50.3302 89.7383 49.0527 91.0157 49.0527 92.5916V127.744C49.0527 129.319 50.3302 130.597 51.906 130.597H139.357C140.933 130.597 142.211 129.319 142.211 127.744V92.5916C142.211 91.0157 140.933 89.7383 139.357 89.7383H51.906Z" fill="#0D1A33"/>
<rect x="52.4707" y="60.2969" width="82.7453" height="13.9846" rx="6.99228" fill="#0D1A33"/>
<rect x="138.068" y="57.7266" width="18.5464" height="18.5464" rx="9.27318" fill="#0D1A33"/>
</svg>
