<svg width="360" height="309" viewBox="0 0 360 309" fill="none" xmlns="http://www.w3.org/2000/svg">
<g style="mix-blend-mode:multiply">
<ellipse cx="109.435" cy="181.488" rx="50.5468" ry="50.6095" fill="#F5C425"/>
</g>
<g style="mix-blend-mode:multiply">
<ellipse cx="62.557" cy="244.96" rx="34.8656" ry="34.9089" fill="#9AC63D"/>
</g>
<g style="mix-blend-mode:multiply">
<ellipse cx="128.952" cy="243.624" rx="36.2002" ry="36.2451" fill="#C61779"/>
</g>
<g style="mix-blend-mode:multiply">
<ellipse cx="188.175" cy="231.93" rx="46.3763" ry="46.4338" fill="#1CAED8"/>
</g>
<g style="mix-blend-mode:multiply">
<ellipse cx="245.227" cy="253.144" rx="43.0398" ry="43.0933" fill="#9AC63D"/>
</g>
<g style="mix-blend-mode:multiply">
<ellipse cx="34.1983" cy="205.206" rx="34.1983" ry="34.2408" fill="#1CAED8"/>
</g>
<g style="mix-blend-mode:multiply">
<ellipse cx="96.0897" cy="273.187" rx="23.0213" ry="23.0499" fill="#F5C325"/>
</g>
<g style="mix-blend-mode:multiply">
<ellipse cx="174.162" cy="288.386" rx="20.1854" ry="20.2104" fill="#F5C325"/>
</g>
<g style="mix-blend-mode:multiply">
<ellipse cx="210.361" cy="159.775" rx="39.203" ry="39.2516" fill="#E1612A"/>
</g>
<g style="mix-blend-mode:multiply">
<ellipse cx="310.787" cy="146.078" rx="20.1853" ry="20.2104" fill="#1CAED8"/>
</g>
<g style="mix-blend-mode:multiply">
<ellipse cx="165.487" cy="172.97" rx="22.6877" ry="22.7158" fill="#9AC63D"/>
</g>
<g style="mix-blend-mode:multiply">
<ellipse cx="57.0522" cy="148.584" rx="17.683" ry="17.705" fill="#E1602A"/>
</g>
<g style="mix-blend-mode:multiply">
<ellipse cx="220.537" cy="70.7477" rx="16.1816" ry="16.3688" fill="#F5C425"/>
</g>
<g style="mix-blend-mode:multiply">
<ellipse cx="184.004" cy="13.2918" rx="12.5116" ry="12.6941" fill="#1CAED8"/>
</g>
<g style="mix-blend-mode:multiply">
<ellipse cx="267.247" cy="186.332" rx="52.7155" ry="52.7809" fill="#C61779"/>
</g>
<g style="mix-blend-mode:multiply">
<ellipse cx="141.465" cy="95.137" rx="19.3512" ry="19.3753" fill="#C61779"/>
</g>
<g style="mix-blend-mode:multiply">
<ellipse cx="307.284" cy="229.761" rx="52.7155" ry="52.7809" fill="#F5C425"/>
</g>
</svg>
