<svg width="109" height="109" viewBox="0 0 109 109" fill="none" xmlns="http://www.w3.org/2000/svg">
<path d="M93.2502 35.8528L85.8413 43.2617C85.0859 44.0171 83.8645 44.0171 83.1091 43.2617L65.2699 25.4224C64.5145 24.6671 64.5145 23.4456 65.2699 22.6903L72.6788 15.2814C75.6841 12.276 80.5699 12.276 83.5913 15.2814L93.2502 24.9403C96.2716 27.9456 96.2716 32.8314 93.2502 35.8528ZM58.9056 29.0546L16.702 71.2581L13.2949 90.7849C12.8288 93.4206 15.127 95.7028 17.7627 95.2528L37.2895 91.8296L79.4931 49.626C80.2484 48.8706 80.2484 47.6492 79.4931 46.8939L61.6538 29.0546C60.8824 28.2992 59.6609 28.2992 58.9056 29.0546ZM27.3734 81.1581H35.0877V86.9921L24.7216 88.8081L19.7234 83.8099L21.5395 73.4439H27.3734V81.1581Z" fill="#32A7E3"/>
</svg>
