<svg width="108" height="109" viewBox="0 0 108 109" fill="none" xmlns="http://www.w3.org/2000/svg">
<path d="M64.2846 64.8739H43.7132C40.8734 64.8739 38.5703 67.1769 38.5703 70.0167V90.5882C38.5703 93.428 40.8734 95.731 43.7132 95.731H64.2846C67.1244 95.731 69.4275 93.428 69.4275 90.5882V70.0167C69.4275 67.1769 67.1244 64.8739 64.2846 64.8739ZM33.4275 18.5882C33.4275 15.7483 31.1244 13.4453 28.2846 13.4453H7.71317C4.87335 13.4453 2.57031 15.7483 2.57031 18.5882V39.1596C2.57031 41.9994 4.87335 44.3025 7.71317 44.3025H23.0967L34.8546 64.8803C36.6385 61.8171 39.9203 59.731 43.7132 59.731H43.7582L33.4275 41.6523V34.0167H69.4275V23.731H33.4275V18.5882ZM100.285 13.4453H79.7132C76.8734 13.4453 74.5703 15.7483 74.5703 18.5882V39.1596C74.5703 41.9994 76.8734 44.3025 79.7132 44.3025H100.285C103.124 44.3025 105.427 41.9994 105.427 39.1596V18.5882C105.427 15.7483 103.124 13.4453 100.285 13.4453Z" fill="#32A7E3"/>
</svg>
