<svg width="108" height="109" viewBox="0 0 108 109" fill="none" xmlns="http://www.w3.org/2000/svg">
<path d="M103.768 68.6711L87.5862 84.8528C86.0798 86.359 83.6377 86.359 82.1314 84.8528L65.9495 68.6711C64.4432 67.1647 64.4432 64.7225 65.9495 63.2163L67.6889 61.4769C69.2257 59.9401 71.7282 59.9758 73.2206 61.5559L79.7158 68.4332V39.1643H49.574C48.5511 39.1642 47.57 38.7579 46.8466 38.0346L44.2751 35.4632C41.8453 33.0332 43.5662 28.8785 47.0026 28.8785H86.1444C88.2747 28.8785 90.0016 30.6054 90.0016 32.7357V68.4332L96.497 61.5559C97.9892 59.976 100.492 59.9401 102.029 61.4769L103.768 63.2163C105.274 64.7225 105.274 67.1649 103.768 68.6711ZM61.1564 71.1511C60.7982 70.7929 60.373 70.5088 59.905 70.315C59.437 70.1211 58.9354 70.0214 58.4289 70.0214H28.2873V40.7523L34.7827 47.6296C36.2751 49.2096 38.7774 49.2454 40.3143 47.7085L42.0536 45.9692C43.5599 44.4629 43.5599 42.0206 42.0536 40.5144L25.8719 24.3329C24.3655 22.8265 21.9233 22.8265 20.4171 24.3329L4.23525 40.5146C2.72887 42.021 2.72887 44.4632 4.23525 45.9694L5.9745 47.7086C7.51125 49.2454 10.0137 49.2097 11.5061 47.6297L18.0016 40.7523V76.45C18.0016 78.5802 19.7284 80.3071 21.8587 80.3071H61.0005C64.4369 80.3071 66.1578 76.1525 63.728 73.7225L61.1564 71.1511Z" fill="#32A7E3"/>
</svg>
