<svg width="109" height="109" viewBox="0 0 109 109" fill="none" xmlns="http://www.w3.org/2000/svg">
<path d="M101.057 67.8706C101.475 65.6045 101.475 63.2902 101.057 61.0242L105.204 58.6295C105.686 58.3563 105.895 57.7938 105.734 57.2634C104.657 53.792 102.809 50.642 100.399 48.0384C100.029 47.6367 99.4343 47.5402 98.9521 47.8134L94.8057 50.2081C93.0539 48.7134 91.045 47.5563 88.8753 46.7849V41.9956C88.8753 41.4492 88.4896 40.967 87.9593 40.8545C84.3753 40.0509 80.7271 40.0831 77.32 40.8545C76.7896 40.967 76.4039 41.4492 76.4039 41.9956V46.7849C74.2343 47.5563 72.2253 48.7134 70.4736 50.2081L66.3271 47.8134C65.8611 47.5402 65.2503 47.6367 64.8807 48.0384C62.47 50.642 60.6218 53.792 59.545 57.2634C59.3843 57.7938 59.6093 58.3563 60.0753 58.6295L64.2218 61.0242C63.8039 63.2902 63.8039 65.6045 64.2218 67.8706L60.0753 70.2652C59.5932 70.5384 59.3843 71.1009 59.545 71.6313C60.6218 75.1027 62.47 78.2367 64.8807 80.8563C65.2503 81.2581 65.845 81.3545 66.3271 81.0813L70.4736 78.6867C72.2253 80.1813 74.2343 81.3384 76.4039 82.1099V86.8992C76.4039 87.4456 76.7896 87.9277 77.32 88.0402C80.9039 88.8438 84.5521 88.8117 87.9593 88.0402C88.4896 87.9277 88.8753 87.4456 88.8753 86.8992V82.1099C91.045 81.3384 93.0539 80.1813 94.8057 78.6867L98.9521 81.0813C99.4182 81.3545 100.029 81.2581 100.399 80.8563C102.809 78.2527 104.657 75.1027 105.734 71.6313C105.895 71.1009 105.67 70.5384 105.204 70.2652L101.057 67.8706ZM82.6557 72.242C78.3486 72.242 74.8611 68.7384 74.8611 64.4474C74.8611 60.1563 78.3646 56.6527 82.6557 56.6527C86.9468 56.6527 90.4503 60.1563 90.4503 64.4474C90.4503 68.7384 86.9628 72.242 82.6557 72.242ZM18.37 49.0188C24.0432 49.0188 28.6557 44.4063 28.6557 38.7331C28.6557 33.0599 24.0432 28.4474 18.37 28.4474C12.6968 28.4474 8.08426 33.0599 8.08426 38.7331C8.08426 44.4063 12.6968 49.0188 18.37 49.0188ZM54.37 54.1617C54.6753 54.1617 54.9646 54.0813 55.27 54.0652C56.6039 50.5777 58.5646 47.2992 61.1039 44.5509C62.2932 43.2652 63.9807 42.5259 65.7486 42.5259C66.8575 42.5259 67.9503 42.8152 68.8986 43.3777L70.1682 44.117C70.2968 44.0367 70.4253 43.9724 70.5539 43.892C71.6789 41.5456 72.3539 38.942 72.3539 36.1777C72.3539 26.2295 64.3021 18.1777 54.3539 18.1777C44.4057 18.1777 36.37 26.2134 36.37 36.1617C36.37 46.1099 44.4218 54.1617 54.37 54.1617ZM71.2771 85.4206C70.9075 85.2277 70.5378 85.0027 70.1843 84.7938C68.8664 85.5652 67.7253 86.3688 65.7646 86.3688C64.0128 86.3688 62.3253 85.6295 61.12 84.3438C58.1789 81.1617 55.9289 77.2884 54.6593 73.1581C52.9396 67.6134 58.6611 65.1706 58.8057 65.0742C58.7896 64.6563 58.7896 64.2384 58.8057 63.8206L57.5361 63.0813C56.9253 62.7277 56.4111 62.2777 55.9611 61.7795C55.4307 61.8117 54.9164 61.8759 54.3861 61.8759C50.4325 61.8759 46.7361 60.9117 43.3771 59.3045H42.0432C31.8057 59.3045 23.5128 67.5974 23.5128 77.8188V82.4474C23.5128 86.7063 26.9682 90.1617 31.2271 90.1617H72.2736C71.6789 89.1974 71.2771 88.1045 71.2771 86.8992V85.4206ZM30.7611 57.1509C28.8968 55.3027 26.3414 54.1617 23.5128 54.1617H13.2271C7.55391 54.1617 2.94141 58.7742 2.94141 64.4474V69.5902C2.94141 72.4349 5.23962 74.7331 8.08426 74.7331H18.6753C19.6878 67.1152 24.2843 60.7027 30.7611 57.1509Z" fill="#32A7E3"/>
</svg>
