<svg width="25" height="24" viewBox="0 0 25 24" fill="none" xmlns="http://www.w3.org/2000/svg">
<path d="M17.3708 9.1697C17.1834 8.98345 16.93 8.87891 16.6658 8.87891C16.4016 8.87891 16.1482 8.98345 15.9608 9.1697L12.3708 12.7097L8.8308 9.1697C8.64344 8.98345 8.38998 8.87891 8.1258 8.87891C7.86161 8.87891 7.60816 8.98345 7.4208 9.1697C7.32707 9.26266 7.25268 9.37326 7.20191 9.49512C7.15114 9.61698 7.125 9.74769 7.125 9.8797C7.125 10.0117 7.15114 10.1424 7.20191 10.2643C7.25268 10.3861 7.32707 10.4967 7.4208 10.5897L11.6608 14.8297C11.7538 14.9234 11.8644 14.9978 11.9862 15.0486C12.1081 15.0994 12.2388 15.1255 12.3708 15.1255C12.5028 15.1255 12.6335 15.0994 12.7554 15.0486C12.8772 14.9978 12.9878 14.9234 13.0808 14.8297L17.3708 10.5897C17.4645 10.4967 17.5389 10.3861 17.5897 10.2643C17.6405 10.1424 17.6666 10.0117 17.6666 9.8797C17.6666 9.74769 17.6405 9.61698 17.5897 9.49512C17.5389 9.37326 17.4645 9.26266 17.3708 9.1697Z" fill="#172B4D"/>
</svg>
