<svg width="256" height="248" viewBox="0 0 256 248" fill="none" xmlns="http://www.w3.org/2000/svg">
<mask id="path-1-inside-1_5510_989" fill="white">
<path fill-rule="evenodd" clip-rule="evenodd" d="M59.3462 164.078C26.8463 164.078 0.5 140.212 0.5 110.771C0.5 81.3297 26.8463 57.463 59.3462 57.463C63.8754 57.463 68.2852 57.9265 72.5208 58.8041C74.2937 30.8064 99.9184 8.59766 131.269 8.59766C154.576 8.59766 174.719 20.8725 184.249 38.6753C188.948 36.4868 194.276 35.2515 199.923 35.2515C218.882 35.2515 234.25 49.1737 234.25 66.3476C234.25 72.3277 232.387 77.9135 229.157 82.6545C244.77 89.6801 255.5 104.273 255.5 121.136C255.5 143.857 236.021 162.456 211.365 163.978V164.078H208.136C208.123 164.078 208.109 164.078 208.096 164.078C208.082 164.078 208.069 164.078 208.055 164.078L59.3462 164.078Z"/>
</mask>
<path fill-rule="evenodd" clip-rule="evenodd" d="M59.3462 164.078C26.8463 164.078 0.5 140.212 0.5 110.771C0.5 81.3297 26.8463 57.463 59.3462 57.463C63.8754 57.463 68.2852 57.9265 72.5208 58.8041C74.2937 30.8064 99.9184 8.59766 131.269 8.59766C154.576 8.59766 174.719 20.8725 184.249 38.6753C188.948 36.4868 194.276 35.2515 199.923 35.2515C218.882 35.2515 234.25 49.1737 234.25 66.3476C234.25 72.3277 232.387 77.9135 229.157 82.6545C244.77 89.6801 255.5 104.273 255.5 121.136C255.5 143.857 236.021 162.456 211.365 163.978V164.078H208.136C208.123 164.078 208.109 164.078 208.096 164.078C208.082 164.078 208.069 164.078 208.055 164.078L59.3462 164.078Z" fill="url(#paint0_linear_5510_989)"/>
<path d="M59.3462 164.078L59.3462 157.078H59.3462V164.078ZM72.5208 58.8041L71.1006 65.6585L78.9972 67.2946L79.5068 59.2465L72.5208 58.8041ZM184.249 38.6753L178.077 41.9789L181.202 47.8164L187.204 45.0208L184.249 38.6753ZM229.157 82.6545L223.372 78.7137L218.673 85.6125L226.285 89.0379L229.157 82.6545ZM211.365 163.978L210.934 156.991L204.365 157.397V163.978H211.365ZM211.365 164.078V171.078H218.365V164.078H211.365ZM208.055 164.078V171.078V164.078ZM0.5 110.771H-6.5C-6.5 144.713 23.6474 171.078 59.3462 171.078V164.078V157.078C30.0452 157.078 7.5 135.711 7.5 110.771H0.5ZM59.3462 57.463V50.463C23.6474 50.463 -6.5 76.8287 -6.5 110.771H0.5H7.5C7.5 85.8306 30.0452 64.463 59.3462 64.463V57.463ZM72.5208 58.8041L73.941 51.9497C69.2393 50.9755 64.3537 50.463 59.3462 50.463V57.463V64.463C63.3972 64.463 67.3311 64.8775 71.1006 65.6585L72.5208 58.8041ZM131.269 8.59766V1.59766C96.8071 1.59766 67.5763 26.1223 65.5348 58.3617L72.5208 58.8041L79.5068 59.2465C81.0111 35.4905 103.03 15.5977 131.269 15.5977V8.59766ZM184.249 38.6753L190.42 35.3718C179.598 15.1542 156.996 1.59766 131.269 1.59766V8.59766V15.5977C152.157 15.5977 169.84 26.5909 178.077 41.9789L184.249 38.6753ZM199.923 35.2515V28.2515C193.252 28.2515 186.915 29.7116 181.293 32.3299L184.249 38.6753L187.204 45.0208C190.981 43.2619 195.301 42.2515 199.923 42.2515V35.2515ZM234.25 66.3476H241.25C241.25 44.6727 222.081 28.2515 199.923 28.2515V35.2515V42.2515C215.683 42.2515 227.25 53.6746 227.25 66.3476H234.25ZM229.157 82.6545L234.943 86.5954C238.915 80.7634 241.25 73.8169 241.25 66.3476H234.25H227.25C227.25 70.8384 225.859 75.0635 223.372 78.7137L229.157 82.6545ZM255.5 121.136H262.5C262.5 101.132 249.782 84.2596 232.03 76.2711L229.157 82.6545L226.285 89.0379C239.758 95.1007 248.5 107.414 248.5 121.136H255.5ZM211.365 163.978L211.797 170.965C239.512 169.254 262.5 148.157 262.5 121.136H255.5H248.5C248.5 139.557 232.53 155.659 210.934 156.991L211.365 163.978ZM211.365 163.978H204.365V164.078H211.365H218.365V163.978H211.365ZM211.365 164.078V157.078H208.136V164.078V171.078H211.365V164.078ZM208.096 164.078V171.078C208.105 171.078 208.114 171.078 208.12 171.078C208.127 171.078 208.132 171.078 208.136 171.078V164.078V157.078C208.127 157.078 208.118 157.078 208.112 157.078C208.105 157.078 208.1 157.078 208.096 157.078V164.078ZM208.055 164.078V171.078C208.06 171.078 208.065 171.078 208.072 171.078C208.078 171.078 208.087 171.078 208.096 171.078V164.078V157.078C208.091 157.078 208.087 157.078 208.08 157.078C208.073 157.078 208.065 157.078 208.055 157.078V164.078ZM208.055 164.078V157.078L59.3462 157.078L59.3462 164.078L59.3461 171.078L208.055 171.078V164.078Z" fill="#D3D3D3" mask="url(#path-1-inside-1_5510_989)"/>
<path d="M96.4609 64.7695H162.499C164.432 64.7695 165.999 66.3365 165.999 68.2695V194.058C165.999 194.886 165.327 195.558 164.499 195.558H94.4609C93.6325 195.558 92.9609 194.886 92.9609 194.058V68.2695L92.9658 68.0898C93.0594 66.2404 94.5882 64.7695 96.4609 64.7695Z" fill="#1CAED8" stroke="#D3D3D3"/>
<path d="M92.4609 76.1172H129.403C130.508 76.1172 131.403 77.0126 131.403 78.1172V78.9633C131.403 80.0679 130.508 80.9633 129.403 80.9633H92.4609V76.1172Z" fill="white"/>
<path d="M92.4609 93.3242H129.403C130.508 93.3242 131.403 94.2196 131.403 95.3242V96.1704C131.403 97.2749 130.508 98.1704 129.403 98.1704H92.4609V93.3242Z" fill="white"/>
<path d="M92.4609 110.535H129.403C130.508 110.535 131.403 111.431 131.403 112.535V113.381C131.403 114.486 130.508 115.381 129.403 115.381H92.4609V110.535Z" fill="white"/>
<path d="M92.4609 127.742H129.403C130.508 127.742 131.403 128.638 131.403 129.742V130.588C131.403 131.693 130.508 132.588 129.403 132.588H92.4609V127.742Z" fill="white"/>
<path d="M92.4609 144.949H129.403C130.508 144.949 131.403 145.845 131.403 146.949V147.795C131.403 148.9 130.508 149.795 129.403 149.795H92.4609V144.949Z" fill="white"/>
<path d="M92.4609 162.16H129.403C130.508 162.16 131.403 163.056 131.403 164.16V165.006C131.403 166.111 130.508 167.006 129.403 167.006H92.4609V162.16Z" fill="white"/>
<path d="M92.4609 179.367H129.403C130.508 179.367 131.403 180.263 131.403 181.367V182.213C131.403 183.318 130.508 184.213 129.403 184.213H92.4609V179.367Z" fill="white"/>
<path d="M174.5 106.23H196.115C198.048 106.23 199.615 107.797 199.615 109.73V194.058C199.615 194.886 198.944 195.558 198.115 195.558H172.5C171.672 195.558 171 194.886 171 194.058V109.73C171 107.797 172.567 106.23 174.5 106.23Z" fill="#1CAED8" stroke="#D3D3D3"/>
<path d="M140.07 195.098V247.598" stroke="#C11778" stroke-width="3" stroke-linejoin="round" stroke-dasharray="4 4"/>
<defs>
<linearGradient id="paint0_linear_5510_989" x1="1.05195" y1="86.8284" x2="256.052" y2="86.8284" gradientUnits="userSpaceOnUse">
<stop offset="0.0440893" stop-color="#D9D9D9"/>
<stop offset="0.247371" stop-color="#E5E5E5"/>
<stop offset="1" stop-color="#F4F4F4"/>
</linearGradient>
</defs>
</svg>
