<svg width="109" height="109" viewBox="0 0 109 109" fill="none" xmlns="http://www.w3.org/2000/svg">
<path d="M89.8414 49.4352C90.5003 47.7155 90.87 45.8352 90.87 43.8744C90.87 35.3566 83.9593 28.4459 75.4414 28.4459C72.2753 28.4459 69.3182 29.4102 66.8753 31.0494C62.4236 23.3352 54.1146 18.1602 44.5843 18.1602C30.3771 18.1602 18.87 29.6673 18.87 43.8744C18.87 44.3084 18.886 44.7423 18.9021 45.1762C9.90212 48.3423 3.44141 56.9244 3.44141 67.0173C3.44141 79.7941 13.8075 90.1602 26.5843 90.1602H85.7271C97.0896 90.1602 106.299 80.9512 106.299 69.5887C106.299 59.6405 99.2271 51.3316 89.8414 49.4352Z" fill="#32A7E3"/>
</svg>
