<svg width="108" height="109" viewBox="0 0 108 109" fill="none" xmlns="http://www.w3.org/2000/svg">
<path d="M53.9983 18.5977C31.2733 18.5977 12.8555 33.5602 12.8555 52.0262C12.8555 59.9977 16.2948 67.2941 22.0162 73.0316C20.0073 81.1316 13.2894 88.3477 13.209 88.428C12.8555 88.7977 12.759 89.3441 12.968 89.8262C13.1769 90.3084 13.6269 90.5977 14.1412 90.5977C24.7965 90.5977 32.784 85.4869 36.7376 82.3369C41.993 84.3137 47.8269 85.4548 53.9983 85.4548C76.7233 85.4548 95.1412 70.4923 95.1412 52.0262C95.1412 33.5602 76.7233 18.5977 53.9983 18.5977ZM59.1412 61.0262C59.1412 61.7334 58.5626 62.3119 57.8555 62.3119H34.7126C34.0055 62.3119 33.4269 61.7334 33.4269 61.0262V58.4548C33.4269 57.7477 34.0055 57.1691 34.7126 57.1691H57.8555C58.5626 57.1691 59.1412 57.7477 59.1412 58.4548V61.0262ZM74.5698 45.5977C74.5698 46.3048 73.9912 46.8834 73.284 46.8834H34.7126C34.0055 46.8834 33.4269 46.3048 33.4269 45.5977V43.0262C33.4269 42.3191 34.0055 41.7405 34.7126 41.7405H73.284C73.9912 41.7405 74.5698 42.3191 74.5698 43.0262V45.5977Z" fill="#32A7E3"/>
</svg>
