<svg width="466" height="119" viewBox="0 0 466 119" fill="none" xmlns="http://www.w3.org/2000/svg">
<rect x="16" y="34.3711" width="79" height="51" rx="25.5" fill="#C11778"/>
<path d="M34.016 71.3711V50.5111H37.824V59.6111H46.7V50.5111H50.536V71.3711H46.7V62.9711H37.824V71.3711H34.016ZM54.5512 71.3711V50.5111H58.3592V71.3711H54.5512ZM69.8195 71.7071C68.4941 71.7071 67.2621 71.4644 66.1235 70.9791C65.0035 70.4938 64.0328 69.8218 63.2115 68.9631C62.4088 68.0858 61.8208 67.0684 61.4475 65.9111L64.6115 64.5391C65.1155 65.7338 65.8435 66.6764 66.7955 67.3671C67.7475 68.0391 68.8208 68.3751 70.0155 68.3751C70.6875 68.3751 71.2661 68.2724 71.7515 68.0671C72.2555 67.8431 72.6381 67.5444 72.8995 67.1711C73.1795 66.7978 73.3195 66.3498 73.3195 65.8271C73.3195 65.2111 73.1328 64.7071 72.7595 64.3151C72.4048 63.9044 71.8635 63.5871 71.1355 63.3631L67.1315 62.0751C65.5075 61.5711 64.2848 60.8151 63.4635 59.8071C62.6421 58.7991 62.2315 57.6138 62.2315 56.2511C62.2315 55.0564 62.5208 54.0018 63.0995 53.0871C63.6968 52.1724 64.5181 51.4631 65.5635 50.9591C66.6275 50.4364 67.8408 50.1751 69.2035 50.1751C70.4541 50.1751 71.6021 50.3991 72.6475 50.8471C73.6928 51.2764 74.5888 51.8831 75.3355 52.6671C76.1008 53.4324 76.6701 54.3378 77.0435 55.3831L73.9075 56.7831C73.4968 55.7378 72.8808 54.9351 72.0595 54.3751C71.2381 53.7964 70.2861 53.5071 69.2035 53.5071C68.5688 53.5071 68.0088 53.6191 67.5235 53.8431C67.0381 54.0484 66.6555 54.3471 66.3755 54.7391C66.1141 55.1124 65.9835 55.5604 65.9835 56.0831C65.9835 56.6618 66.1701 57.1751 66.5435 57.6231C66.9168 58.0524 67.4861 58.3884 68.2515 58.6311L72.0875 59.8351C73.7488 60.3764 74.9901 61.1231 75.8115 62.0751C76.6515 63.0271 77.0715 64.2031 77.0715 65.6031C77.0715 66.7978 76.7635 67.8524 76.1475 68.7671C75.5315 69.6818 74.6821 70.4004 73.5995 70.9231C72.5168 71.4458 71.2568 71.7071 69.8195 71.7071Z" fill="white"/>
<path d="M107 57.8711C105.895 57.8711 105 58.7665 105 59.8711C105 60.9757 105.895 61.8711 107 61.8711V57.8711ZM148.414 61.2853C149.195 60.5043 149.195 59.2379 148.414 58.4569L135.686 45.729C134.905 44.9479 133.639 44.9479 132.858 45.729C132.077 46.51 132.077 47.7763 132.858 48.5574L144.172 59.8711L132.858 71.1848C132.077 71.9659 132.077 73.2322 132.858 74.0132C133.639 74.7943 134.905 74.7943 135.686 74.0132L148.414 61.2853ZM107 59.8711V61.8711H147V59.8711V57.8711H107V59.8711Z" fill="#7F7F7F"/>
<path d="M240 73.6953V107.228L239.992 107.465C239.915 108.632 239.274 109.557 238.571 110.222C237.822 110.931 236.826 111.519 235.728 112.021C233.518 113.032 230.448 113.893 226.811 114.597C219.503 116.011 209.495 116.872 198.5 116.872C187.505 116.872 177.497 116.011 170.189 114.597C166.552 113.893 163.482 113.032 161.272 112.021C160.174 111.519 159.178 110.931 158.429 110.222C157.679 109.513 157 108.507 157 107.228V73.6953H240Z" fill="#869FD0" stroke="white" stroke-width="4"/>
<path d="M240 41.5156V75.0479C240 76.3278 239.321 77.3329 238.571 78.042C237.822 78.7508 236.826 79.3392 235.728 79.8418C233.518 80.8526 230.448 81.7132 226.811 82.417C219.503 83.8311 209.495 84.6924 198.5 84.6924C187.505 84.6924 177.497 83.8312 170.189 82.417C166.552 81.7131 163.481 80.8527 161.271 79.8418C160.173 79.3392 159.178 78.7499 158.429 78.041C157.679 77.332 157 76.3277 157 75.0479V41.5156H240Z" fill="#466093" stroke="white" stroke-width="4"/>
<path d="M240 12.5195V43.8838C240 45.2085 239.198 46.1662 238.467 46.7666C237.712 47.386 236.72 47.894 235.634 48.3252C233.442 49.1953 230.389 49.9377 226.762 50.5469C219.474 51.7707 209.483 52.5176 198.5 52.5176C187.517 52.5176 177.526 51.7708 170.238 50.5469C166.611 49.9376 163.558 49.1944 161.366 48.3242C160.28 47.893 159.288 47.386 158.533 46.7666C157.802 46.1662 157 45.2085 157 43.8838V12.5195H240Z" fill="#4276DD" stroke="white" stroke-width="4"/>
<path d="M198.5 2.87109C209.499 2.87109 219.512 3.76668 226.825 5.23828C230.465 5.97076 233.541 6.86659 235.755 7.91992C236.857 8.44427 237.852 9.05719 238.6 9.79199C239.351 10.5305 240 11.548 240 12.8193C240 14.0908 239.351 15.109 238.6 15.8477C237.852 16.5824 236.857 17.1954 235.755 17.7197C233.541 18.773 230.465 19.6689 226.825 20.4014C219.512 21.873 209.499 22.7686 198.5 22.7686C187.501 22.7686 177.488 21.873 170.175 20.4014C166.535 19.6689 163.459 18.773 161.245 17.7197C160.143 17.1954 159.148 16.5824 158.4 15.8477C157.696 15.1551 157.082 14.2171 157.008 13.0547L157 12.8193L157.008 12.584C157.082 11.4219 157.696 10.4844 158.4 9.79199C159.148 9.05719 160.143 8.44427 161.245 7.91992C163.459 6.86659 166.535 5.97076 170.175 5.23828C177.488 3.76668 187.501 2.87109 198.5 2.87109Z" fill="#466093" stroke="white" stroke-width="4"/>
<path d="M248.586 58.4569C247.805 59.2379 247.805 60.5043 248.586 61.2853L261.314 74.0132C262.095 74.7943 263.361 74.7943 264.142 74.0132C264.923 73.2322 264.923 71.9659 264.142 71.1848L252.828 59.8711L264.142 48.5574C264.923 47.7763 264.923 46.51 264.142 45.729C263.361 44.9479 262.095 44.9479 261.314 45.729L248.586 58.4569ZM309.414 61.2853C310.195 60.5043 310.195 59.2379 309.414 58.4569L296.686 45.729C295.905 44.9479 294.639 44.9479 293.858 45.729C293.077 46.51 293.077 47.7763 293.858 48.5574L305.172 59.8711L293.858 71.1848C293.077 71.9659 293.077 73.2322 293.858 74.0132C294.639 74.7943 295.905 74.7943 296.686 74.0132L309.414 61.2853ZM250 59.8711V61.8711H308V59.8711V57.8711H250V59.8711Z" fill="#7F7F7F"/>
<path fill-rule="evenodd" clip-rule="evenodd" d="M428.781 15.4843H421.48C416.723 15.4843 412.868 19.3048 412.868 24.0176V70.1735H437.393V24.0176C437.393 19.3048 433.538 15.4843 428.781 15.4843ZM421.48 12.4414C415.027 12.4414 409.797 17.6242 409.797 24.0176V70.3223C409.797 71.9207 411.105 73.2164 412.718 73.2164H437.543C439.156 73.2164 440.464 71.9207 440.464 70.3223V24.0176C440.464 17.6242 435.234 12.4414 428.781 12.4414H421.48Z" fill="#0D1A33"/>
<path fill-rule="evenodd" clip-rule="evenodd" d="M332.284 49.8202V52.8518H404.771V49.8202H332.284ZM330.673 46.7773C329.867 46.7773 329.213 47.4252 329.213 48.2244V54.4476C329.213 55.2468 329.867 55.8947 330.673 55.8947H406.381C407.188 55.8947 407.842 55.2468 407.842 54.4476V48.2244C407.842 47.4252 407.188 46.7773 406.381 46.7773H330.673Z" fill="#0D1A33"/>
<path fill-rule="evenodd" clip-rule="evenodd" d="M348.176 55.621V70.2565H389.714V55.621H348.176ZM346.566 52.5781C345.759 52.5781 345.105 53.226 345.105 54.0251V71.8523C345.105 72.6515 345.759 73.2993 346.566 73.2993H391.324C392.131 73.2993 392.785 72.6515 392.785 71.8523V54.0251C392.785 53.226 392.131 52.5781 391.324 52.5781H346.566Z" fill="#0D1A33"/>
<rect x="346.855" y="37.6484" width="42.3499" height="7.09217" rx="3.54609" fill="#0D1A33"/>
<rect x="390.664" y="36.3438" width="9.49223" height="9.40565" rx="4.70283" fill="#0D1A33"/>
<rect x="320" y="86.3711" width="130" height="26" rx="13" fill="#DC5F2A"/>
<path d="M351.652 105.371V93.4511H353.732L358.196 99.5151H357.204L361.572 93.4511H363.652V105.371H361.46V95.9311L362.308 96.1391L357.78 102.171H357.524L353.108 96.1391L353.828 95.9311V105.371H351.652ZM370.013 105.563C369.16 105.563 368.381 105.366 367.677 104.971C366.984 104.576 366.429 104.038 366.013 103.355C365.608 102.672 365.405 101.894 365.405 101.019C365.405 100.144 365.608 99.3658 366.013 98.6831C366.429 98.0004 366.984 97.4618 367.677 97.0671C368.371 96.6724 369.149 96.4751 370.013 96.4751C370.867 96.4751 371.64 96.6724 372.333 97.0671C373.027 97.4618 373.576 98.0004 373.981 98.6831C374.397 99.3551 374.605 100.134 374.605 101.019C374.605 101.894 374.397 102.672 373.981 103.355C373.565 104.038 373.011 104.576 372.317 104.971C371.624 105.366 370.856 105.563 370.013 105.563ZM370.013 103.643C370.483 103.643 370.893 103.531 371.245 103.307C371.608 103.083 371.891 102.774 372.093 102.379C372.307 101.974 372.413 101.52 372.413 101.019C372.413 100.507 372.307 100.059 372.093 99.6751C371.891 99.2804 371.608 98.9711 371.245 98.7471C370.893 98.5124 370.483 98.3951 370.013 98.3951C369.533 98.3951 369.112 98.5124 368.749 98.7471C368.387 98.9711 368.099 99.2804 367.885 99.6751C367.683 100.059 367.581 100.507 367.581 101.019C367.581 101.52 367.683 101.974 367.885 102.379C368.099 102.774 368.387 103.083 368.749 103.307C369.112 103.531 369.533 103.643 370.013 103.643ZM380.243 105.563C379.4 105.563 378.648 105.366 377.987 104.971C377.325 104.566 376.803 104.016 376.419 103.323C376.035 102.63 375.843 101.862 375.843 101.019C375.843 100.166 376.035 99.3978 376.419 98.7151C376.803 98.0324 377.325 97.4884 377.987 97.0831C378.659 96.6778 379.405 96.4751 380.227 96.4751C380.888 96.4751 381.475 96.6084 381.987 96.8751C382.509 97.1311 382.92 97.4938 383.219 97.9631L382.899 98.3951V93.2591H384.995V105.371H383.011V103.691L383.235 104.107C382.936 104.576 382.52 104.939 381.987 105.195C381.453 105.44 380.872 105.563 380.243 105.563ZM380.467 103.643C380.947 103.643 381.368 103.531 381.731 103.307C382.093 103.083 382.376 102.774 382.579 102.379C382.792 101.984 382.899 101.531 382.899 101.019C382.899 100.518 382.792 100.07 382.579 99.6751C382.376 99.2698 382.093 98.9551 381.731 98.7311C381.368 98.5071 380.947 98.3951 380.467 98.3951C379.997 98.3951 379.576 98.5124 379.203 98.7471C378.829 98.9711 378.536 99.2804 378.323 99.6751C378.12 100.059 378.019 100.507 378.019 101.019C378.019 101.531 378.12 101.984 378.323 102.379C378.536 102.774 378.829 103.083 379.203 103.307C379.576 103.531 379.997 103.643 380.467 103.643ZM389.585 105.563C388.977 105.563 388.449 105.462 388.001 105.259C387.553 105.056 387.206 104.768 386.961 104.395C386.715 104.011 386.593 103.568 386.593 103.067C386.593 102.587 386.699 102.16 386.913 101.787C387.126 101.403 387.457 101.083 387.905 100.827C388.353 100.571 388.918 100.39 389.601 100.283L392.449 99.8191V101.419L390.001 101.835C389.585 101.91 389.275 102.043 389.073 102.235C388.87 102.427 388.769 102.678 388.769 102.987C388.769 103.286 388.881 103.526 389.105 103.707C389.339 103.878 389.627 103.963 389.969 103.963C390.406 103.963 390.79 103.872 391.121 103.691C391.462 103.499 391.723 103.238 391.905 102.907C392.097 102.576 392.193 102.214 392.193 101.819V99.5791C392.193 99.2058 392.043 98.8964 391.745 98.6511C391.457 98.3951 391.073 98.2671 390.593 98.2671C390.145 98.2671 389.745 98.3898 389.393 98.6351C389.051 98.8698 388.801 99.1844 388.641 99.5791L386.929 98.7471C387.099 98.2884 387.366 97.8938 387.729 97.5631C388.102 97.2218 388.539 96.9551 389.041 96.7631C389.542 96.5711 390.086 96.4751 390.673 96.4751C391.387 96.4751 392.017 96.6084 392.561 96.8751C393.105 97.1311 393.526 97.4938 393.825 97.9631C394.134 98.4218 394.289 98.9604 394.289 99.5791V105.371H392.305V103.883L392.753 103.851C392.529 104.224 392.262 104.539 391.953 104.795C391.643 105.04 391.291 105.232 390.897 105.371C390.502 105.499 390.065 105.563 389.585 105.563ZM396.226 105.371V93.2591H398.322V105.371H396.226ZM400.257 105.371V96.6671H402.353V105.371H400.257ZM400.257 95.6911V93.4511H402.353V95.6911H400.257ZM408.257 105.467C407.275 105.467 406.513 105.2 405.969 104.667C405.435 104.123 405.169 103.36 405.169 102.379V98.5391H403.665V96.6671H403.825C404.251 96.6671 404.582 96.5551 404.817 96.3311C405.051 96.1071 405.169 95.7818 405.169 95.3551V94.6831H407.265V96.6671H409.265V98.5391H407.265V102.267C407.265 102.555 407.313 102.8 407.409 103.003C407.515 103.206 407.675 103.36 407.889 103.467C408.113 103.574 408.395 103.627 408.737 103.627C408.811 103.627 408.897 103.622 408.993 103.611C409.099 103.6 409.201 103.59 409.297 103.579V105.371C409.147 105.392 408.977 105.414 408.785 105.435C408.593 105.456 408.417 105.467 408.257 105.467ZM411.954 108.891C411.719 108.891 411.49 108.87 411.266 108.827C411.042 108.795 410.839 108.731 410.658 108.635V106.891C410.797 106.923 410.962 106.955 411.154 106.987C411.357 107.019 411.543 107.035 411.714 107.035C412.194 107.035 412.541 106.923 412.754 106.699C412.978 106.486 413.175 106.198 413.346 105.835L413.922 104.491L413.89 106.251L410.098 96.6671H412.354L415.01 103.739H414.21L416.85 96.6671H419.122L415.33 106.251C415.106 106.806 414.834 107.28 414.514 107.675C414.194 108.07 413.821 108.368 413.394 108.571C412.978 108.784 412.498 108.891 411.954 108.891Z" fill="white"/>
</svg>
