<svg width="278" height="145" viewBox="0 0 278 145" fill="none" xmlns="http://www.w3.org/2000/svg">
<g clip-path="url(#clip0_5510_1212)">
<g style="mix-blend-mode:multiply">
<ellipse cx="120.943" cy="54.2367" rx="14.89" ry="14.9085" fill="#F5C425"/>
</g>
<g style="mix-blend-mode:multiply">
<ellipse cx="107.134" cy="72.9319" rx="10.2707" ry="10.2834" fill="#9AC63D"/>
</g>
<g style="mix-blend-mode:multiply">
<ellipse cx="126.691" cy="72.5403" rx="10.6638" ry="10.6771" fill="#C61779"/>
</g>
<g style="mix-blend-mode:multiply">
<ellipse cx="144.138" cy="69.0964" rx="13.6615" ry="13.6785" fill="#1CAED8"/>
</g>
<g style="mix-blend-mode:multiply">
<ellipse cx="160.944" cy="75.3428" rx="12.6787" ry="12.6944" fill="#9AC63D"/>
</g>
<g style="mix-blend-mode:multiply">
<ellipse cx="98.7792" cy="61.2234" rx="10.0741" ry="10.0866" fill="#1CAED8"/>
</g>
<g style="mix-blend-mode:multiply">
<ellipse cx="117.01" cy="81.2471" rx="6.78161" ry="6.79003" fill="#F5C325"/>
</g>
<g style="mix-blend-mode:multiply">
<ellipse cx="140.009" cy="85.727" rx="5.94619" ry="5.95357" fill="#F5C325"/>
</g>
<g style="mix-blend-mode:multiply">
<ellipse cx="150.673" cy="47.8401" rx="11.5484" ry="11.5627" fill="#E1612A"/>
</g>
<g style="mix-blend-mode:multiply">
<ellipse cx="180.257" cy="43.8051" rx="5.94619" ry="5.95357" fill="#1CAED8"/>
</g>
<g style="mix-blend-mode:multiply">
<ellipse cx="137.455" cy="51.7268" rx="6.68332" ry="6.69162" fill="#9AC63D"/>
</g>
<g style="mix-blend-mode:multiply">
<ellipse cx="105.512" cy="44.5437" rx="5.20906" ry="5.21553" fill="#E1602A"/>
</g>
<g style="mix-blend-mode:multiply">
<ellipse cx="153.671" cy="21.6149" rx="4.76678" ry="4.8219" fill="#F5C425"/>
</g>
<g style="mix-blend-mode:multiply">
<ellipse cx="142.908" cy="4.68865" rx="3.68565" ry="3.73943" fill="#1CAED8"/>
</g>
<g style="mix-blend-mode:multiply">
<ellipse cx="167.431" cy="55.6615" rx="15.5289" ry="15.5482" fill="#C61779"/>
</g>
<g style="mix-blend-mode:multiply">
<ellipse cx="130.378" cy="28.7974" rx="5.70048" ry="5.70756" fill="#C61779"/>
</g>
<g style="mix-blend-mode:multiply">
<ellipse cx="179.224" cy="68.4544" rx="15.5289" ry="15.5482" fill="#F5C425"/>
</g>
<rect x="6" y="86.5859" width="43" height="58" rx="4" fill="#64ACD5"/>
<path d="M13 120.586C13 119.481 13.8954 118.586 15 118.586H18C19.1046 118.586 20 119.481 20 120.586V133.586C20 134.691 19.1046 135.586 18 135.586H15C13.8954 135.586 13 134.691 13 133.586V120.586Z" fill="white"/>
<path d="M24 120.586C24 119.481 24.8954 118.586 26 118.586H29C30.1046 118.586 31 119.481 31 120.586V133.586C31 134.691 30.1046 135.586 29 135.586H26C24.8954 135.586 24 134.691 24 133.586V120.586Z" fill="white"/>
<path d="M35 120.586C35 119.481 35.8954 118.586 37 118.586H40C41.1046 118.586 42 119.481 42 120.586V133.586C42 134.691 41.1046 135.586 40 135.586H37C35.8954 135.586 35 134.691 35 133.586V120.586Z" fill="white"/>
<path d="M25 93.5859C24.4477 93.5859 24 94.0337 24 94.5859V98.5859H20C19.4477 98.5859 19 99.0337 19 99.5859V104.586C19 105.138 19.4477 105.586 20 105.586H24V109.586C24 110.138 24.4477 110.586 25 110.586H30C30.5523 110.586 31 110.138 31 109.586V105.586H35C35.5523 105.586 36 105.138 36 104.586V99.5859C36 99.0337 35.5523 98.5859 35 98.5859H31V94.5859C31 94.0337 30.5523 93.5859 30 93.5859H25Z" fill="white"/>
<path d="M68 78.5859C68 76.3768 69.7909 74.5859 72 74.5859H107C109.209 74.5859 111 76.3768 111 78.5859V99.5859C111 101.795 112.791 103.586 115 103.586H136C138.209 103.586 140 105.377 140 107.586V140.586C140 142.795 138.209 144.586 136 144.586H72C69.7909 144.586 68 142.795 68 140.586V78.5859Z" fill="#64ACD5"/>
<path d="M86 82.5859C86 82.0337 86.4477 81.5859 87 81.5859H92C92.5523 81.5859 93 82.0337 93 82.5859V86.5859H97C97.5523 86.5859 98 87.0337 98 87.5859V92.5859C98 93.1382 97.5523 93.5859 97 93.5859H93V97.5859C93 98.1382 92.5523 98.5859 92 98.5859H87C86.4477 98.5859 86 98.1382 86 97.5859V93.5859H82C81.4477 93.5859 81 93.1382 81 92.5859V87.5859C81 87.0337 81.4477 86.5859 82 86.5859H86V82.5859Z" fill="white"/>
<path d="M79.5 112.585C78.3954 112.585 77.5 113.48 77.5 114.585V118.585C77.5 119.69 78.3954 120.585 79.5 120.585H83.5C84.6046 120.585 85.5 119.69 85.5 118.585V114.585C85.5 113.48 84.6046 112.585 83.5 112.585H79.5Z" fill="white"/>
<path d="M94.5 112.585C93.3954 112.585 92.5 113.48 92.5 114.585V118.585C92.5 119.69 93.3954 120.585 94.5 120.585H98.5C99.6046 120.585 100.5 119.69 100.5 118.585V114.585C100.5 113.48 99.6046 112.585 98.5 112.585H94.5Z" fill="white"/>
<path d="M107.5 114.585C107.5 113.48 108.395 112.585 109.5 112.585H113.5C114.605 112.585 115.5 113.48 115.5 114.585V118.585C115.5 119.69 114.605 120.585 113.5 120.585H109.5C108.395 120.585 107.5 119.69 107.5 118.585V114.585Z" fill="white"/>
<path d="M124.5 112.585C123.395 112.585 122.5 113.48 122.5 114.585V118.585C122.5 119.69 123.395 120.585 124.5 120.585H128.5C129.605 120.585 130.5 119.69 130.5 118.585V114.585C130.5 113.48 129.605 112.585 128.5 112.585H124.5Z" fill="white"/>
<path d="M77.5 129.585C77.5 128.48 78.3954 127.585 79.5 127.585H83.5C84.6046 127.585 85.5 128.48 85.5 129.585V133.585C85.5 134.69 84.6046 135.585 83.5 135.585H79.5C78.3954 135.585 77.5 134.69 77.5 133.585V129.585Z" fill="white"/>
<path d="M94.5 127.585C93.3954 127.585 92.5 128.48 92.5 129.585V133.585C92.5 134.69 93.3954 135.585 94.5 135.585H98.5C99.6046 135.585 100.5 134.69 100.5 133.585V129.585C100.5 128.48 99.6046 127.585 98.5 127.585H94.5Z" fill="white"/>
<path d="M107.5 129.585C107.5 128.48 108.395 127.585 109.5 127.585H113.5C114.605 127.585 115.5 128.48 115.5 129.585V133.585C115.5 134.69 114.605 135.585 113.5 135.585H109.5C108.395 135.585 107.5 134.69 107.5 133.585V129.585Z" fill="white"/>
<path d="M124.5 127.585C123.395 127.585 122.5 128.48 122.5 129.585V133.585C122.5 134.69 123.395 135.585 124.5 135.585H128.5C129.605 135.585 130.5 134.69 130.5 133.585V129.585C130.5 128.48 129.605 127.585 128.5 127.585H124.5Z" fill="white"/>
<path fill-rule="evenodd" clip-rule="evenodd" d="M183.105 108.689H167.127C167.018 108.689 166.93 108.777 166.93 108.885V118.19C166.93 118.298 167.018 118.386 167.127 118.386H183.105C183.214 118.386 183.302 118.298 183.302 118.19V108.885C183.302 108.777 183.214 108.689 183.105 108.689ZM205.355 108.689H189.377C189.268 108.689 189.18 108.777 189.18 108.885V118.19C189.18 118.298 189.268 118.386 189.377 118.386H205.355C205.464 118.386 205.552 118.298 205.552 118.19V108.885C205.552 108.777 205.464 108.689 205.355 108.689ZM167.127 106.812C165.975 106.812 165.041 107.74 165.041 108.885V118.19C165.041 119.335 165.975 120.263 167.127 120.263H183.105C184.257 120.263 185.191 119.335 185.191 118.19V108.885C185.191 107.74 184.257 106.812 183.105 106.812H167.127ZM189.377 106.812C188.225 106.812 187.291 107.74 187.291 108.885V118.19C187.291 119.335 188.225 120.263 189.377 120.263H205.355C206.507 120.263 207.441 119.335 207.441 118.19V108.885C207.441 107.74 206.507 106.812 205.355 106.812H189.377Z" fill="#64ACD5"/>
<path d="M164.52 123.705C164.52 122.323 165.64 121.203 167.022 121.203H218.375C219.757 121.203 220.878 122.323 220.878 123.705H164.52Z" fill="#64ACD5"/>
<rect x="205.137" y="123.703" width="15.7425" height="5.31753" fill="#64ACD5"/>
<rect x="208.088" y="125.828" width="9.83905" height="1.06351" fill="white"/>
<rect x="205.137" y="129.961" width="15.7425" height="5.31753" fill="#64ACD5"/>
<rect x="208.088" y="132.086" width="9.83905" height="1.06351" fill="white"/>
<rect x="205.137" y="136.215" width="15.7425" height="5.31753" fill="#64ACD5"/>
<rect x="208.088" y="138.34" width="9.83905" height="1.06351" fill="white"/>
<rect x="179.162" y="112.672" width="13.7699" height="22.4745" rx="3.54991" fill="#64ACD5"/>
<rect x="180.145" y="139.184" width="2.08635" height="2.07275" rx="1.03637" fill="#64ACD5"/>
<rect x="189.533" y="139.184" width="2.08635" height="2.07275" rx="1.03637" fill="#64ACD5"/>
<rect x="174.982" y="125.652" width="21.9067" height="3.10912" rx="1.55456" fill="#64ACD5"/>
<rect x="184.818" y="132.449" width="2.30244" height="7.4989" rx="1.15122" fill="#64ACD5"/>
<path d="M180.145 140.193C180.145 139.081 181.046 138.18 182.158 138.18H189.606C190.718 138.18 191.619 139.081 191.619 140.193H180.145Z" fill="#64ACD5"/>
<path d="M164.52 123.703H166.723V140.431C166.723 141.039 166.23 141.532 165.622 141.532C165.013 141.532 164.52 141.039 164.52 140.431V123.703Z" fill="#64ACD5"/>
<rect x="246" y="104.586" width="25" height="39" rx="3" fill="white"/>
<rect x="246" y="104.586" width="25" height="39" rx="3" stroke="#64ACD5" stroke-width="2"/>
<rect x="255" y="107.586" width="7" height="2" rx="1" fill="#64ACD5"/>
<rect x="251" y="138.586" width="15" height="2" rx="1" fill="#64ACD5"/>
</g>
<defs>
<clipPath id="clip0_5510_1212">
<rect width="278" height="144" fill="white" transform="translate(0 0.949219)"/>
</clipPath>
</defs>
</svg>
