<svg width="256" height="248" viewBox="0 0 256 248" fill="none" xmlns="http://www.w3.org/2000/svg">
<mask id="path-1-inside-1_4870_6859" fill="white">
<path d="M131.64 8.16016C154.947 8.16016 175.089 20.4355 184.619 38.2383C189.318 36.0495 194.647 34.8145 200.295 34.8145C219.253 34.8146 234.621 48.7363 234.621 65.9102C234.621 71.8915 232.755 77.4771 229.524 82.2188C245.138 89.2438 255.871 103.834 255.871 120.698C255.871 143.419 236.392 162.016 211.736 163.537V163.641H59.7168L58.957 163.637C26.8076 163.268 0.871094 139.544 0.871094 110.333C0.871196 80.8922 27.2172 57.0256 59.7168 57.0254C64.2464 57.0254 68.6567 57.4895 72.8926 58.3672C74.6652 30.3694 100.289 8.16038 131.64 8.16016Z"/>
</mask>
<path d="M131.64 8.16016C154.947 8.16016 175.089 20.4355 184.619 38.2383C189.318 36.0495 194.647 34.8145 200.295 34.8145C219.253 34.8146 234.621 48.7363 234.621 65.9102C234.621 71.8915 232.755 77.4771 229.524 82.2188C245.138 89.2438 255.871 103.834 255.871 120.698C255.871 143.419 236.392 162.016 211.736 163.537V163.641H59.7168L58.957 163.637C26.8076 163.268 0.871094 139.544 0.871094 110.333C0.871196 80.8922 27.2172 57.0256 59.7168 57.0254C64.2464 57.0254 68.6567 57.4895 72.8926 58.3672C74.6652 30.3694 100.289 8.16038 131.64 8.16016Z" fill="url(#paint0_linear_4870_6859)"/>
<path d="M131.64 8.16016V1.16016H131.64L131.64 8.16016ZM184.619 38.2383L178.448 41.5418L181.573 47.3795L187.575 44.5837L184.619 38.2383ZM200.295 34.8145L200.295 27.8145H200.295V34.8145ZM234.621 65.9102L241.621 65.9102V65.9102H234.621ZM229.524 82.2188L223.74 78.2772L219.039 85.1767L226.652 88.6024L229.524 82.2188ZM255.871 120.698H262.871V120.698L255.871 120.698ZM211.736 163.537L211.305 156.55L204.736 156.956V163.537H211.736ZM211.736 163.641V170.641H218.736V163.641H211.736ZM59.7168 163.641L59.6808 170.641L59.6988 170.641H59.7168V163.641ZM58.957 163.637L58.8768 170.636L58.8989 170.637L58.921 170.637L58.957 163.637ZM0.871094 110.333L-6.12891 110.333V110.333H0.871094ZM59.7168 57.0254V50.0254H59.7168L59.7168 57.0254ZM72.8926 58.3672L71.4723 65.2216L79.369 66.8578L79.8786 58.8095L72.8926 58.3672ZM131.64 8.16016V15.1602C152.527 15.1602 170.21 26.1537 178.448 41.5418L184.619 38.2383L190.791 34.9347C179.968 14.7173 157.367 1.16016 131.64 1.16016V8.16016ZM184.619 38.2383L187.575 44.5837C191.351 42.8248 195.672 41.8145 200.295 41.8145V34.8145V27.8145C193.623 27.8145 187.286 29.2741 181.663 31.8929L184.619 38.2383ZM200.295 34.8145L200.295 41.8145C216.054 41.8146 227.621 53.2373 227.621 65.9102H234.621H241.621C241.621 44.2354 222.452 27.8146 200.295 27.8145L200.295 34.8145ZM234.621 65.9102L227.621 65.9101C227.621 70.4003 226.228 74.6251 223.74 78.2772L229.524 82.2188L235.309 86.1603C239.282 80.329 241.621 73.3827 241.621 65.9102L234.621 65.9102ZM229.524 82.2188L226.652 88.6024C240.127 94.6651 248.871 106.976 248.871 120.698L255.871 120.698L262.871 120.698C262.871 100.692 250.149 83.8226 232.397 75.8351L229.524 82.2188ZM255.871 120.698H248.871C248.871 139.119 232.901 155.218 211.305 156.55L211.736 163.537L212.167 170.524C239.882 168.814 262.871 147.719 262.871 120.698H255.871ZM211.736 163.537H204.736V163.641H211.736H218.736V163.537H211.736ZM211.736 163.641V156.641H59.7168V163.641V170.641H211.736V163.641ZM59.7168 163.641L59.7528 156.641L58.993 156.637L58.957 163.637L58.921 170.637L59.6808 170.641L59.7168 163.641ZM58.957 163.637L59.0373 156.637C30.0616 156.305 7.87109 135.081 7.87109 110.333H0.871094H-6.12891C-6.12891 144.007 23.5535 170.231 58.8768 170.636L58.957 163.637ZM0.871094 110.333L7.87109 110.333C7.87118 85.3931 30.4162 64.0256 59.7168 64.0254L59.7168 57.0254L59.7168 50.0254C24.0183 50.0256 -6.12879 76.3913 -6.12891 110.333L0.871094 110.333ZM59.7168 57.0254V64.0254C63.7676 64.0254 67.7021 64.4404 71.4723 65.2216L72.8926 58.3672L74.3128 51.5128C69.6114 50.5386 64.7251 50.0254 59.7168 50.0254V57.0254ZM72.8926 58.3672L79.8786 58.8095C81.3826 35.0533 103.4 15.1604 131.64 15.1602L131.64 8.16016L131.64 1.16016C97.1775 1.16041 67.9477 25.6855 65.9066 57.9249L72.8926 58.3672Z" fill="#D3D3D3" mask="url(#path-1-inside-1_4870_6859)"/>
<path d="M96.832 64.334H162.87C164.803 64.334 166.37 65.901 166.37 67.834V193.622C166.37 194.45 165.699 195.122 164.87 195.122H94.832C94.0036 195.122 93.332 194.45 93.332 193.622V67.834L93.3369 67.6543C93.4305 65.8048 94.9593 64.334 96.832 64.334Z" fill="#1CAED8" stroke="#D3D3D3"/>
<path d="M92.832 75.6797H129.774C130.879 75.6797 131.774 76.5751 131.774 77.6797V78.5258C131.774 79.6304 130.879 80.5258 129.774 80.5258H92.832V75.6797Z" fill="white"/>
<path d="M92.832 92.8887H129.774C130.879 92.8887 131.774 93.7841 131.774 94.8887V95.7348C131.774 96.8394 130.879 97.7348 129.774 97.7348H92.832V92.8887Z" fill="white"/>
<path d="M92.832 110.096H129.774C130.879 110.096 131.774 110.991 131.774 112.096V112.942C131.774 114.046 130.879 114.942 129.774 114.942H92.832V110.096Z" fill="white"/>
<path d="M92.832 127.305H129.774C130.879 127.305 131.774 128.2 131.774 129.305V130.151C131.774 131.255 130.879 132.151 129.774 132.151H92.832V127.305Z" fill="white"/>
<path d="M92.832 144.514H129.774C130.879 144.514 131.774 145.409 131.774 146.514V147.36C131.774 148.464 130.879 149.36 129.774 149.36H92.832V144.514Z" fill="white"/>
<path d="M92.832 161.721H129.774C130.879 161.721 131.774 162.616 131.774 163.721V164.567C131.774 165.671 130.879 166.567 129.774 166.567H92.832V161.721Z" fill="white"/>
<path d="M92.832 178.93H129.774C130.879 178.93 131.774 179.825 131.774 180.93V181.776C131.774 182.88 130.879 183.776 129.774 183.776H92.832V178.93Z" fill="white"/>
<path d="M174.87 105.795H196.485C198.418 105.795 199.985 107.362 199.985 109.295V193.622C199.985 194.45 199.314 195.122 198.485 195.122H172.87C172.042 195.122 171.37 194.45 171.37 193.622V109.295C171.37 107.362 172.937 105.795 174.87 105.795Z" fill="#1CAED8" stroke="#D3D3D3"/>
<path d="M140.442 194.66V247.16" stroke="#C11778" stroke-width="3" stroke-linejoin="round" stroke-dasharray="4 4"/>
<defs>
<linearGradient id="paint0_linear_4870_6859" x1="1.42304" y1="86.3907" x2="256.423" y2="86.3907" gradientUnits="userSpaceOnUse">
<stop offset="0.0440893" stop-color="#D9D9D9"/>
<stop offset="0.247371" stop-color="#E5E5E5"/>
<stop offset="1" stop-color="#F4F4F4"/>
</linearGradient>
</defs>
</svg>
