<svg width="140" height="141" viewBox="0 0 140 141" fill="none" xmlns="http://www.w3.org/2000/svg">
<path d="M121.062 99.7031L96.6667 75.3073C91.8542 70.4948 84.6667 69.5573 78.875 72.4115L56.6667 50.2031V37.2656L30 17.2656L16.6667 30.599L36.6667 57.2656H49.6042L71.8125 79.474C68.9792 85.2656 69.8958 92.4531 74.7083 97.2656L99.1042 121.661C102.146 124.703 107.062 124.703 110.083 121.661L121.062 110.682C124.083 107.641 124.083 102.724 121.062 99.7031ZM85.7708 64.1406C91.6667 64.1406 97.2083 66.4323 101.375 70.599L105.417 74.6406C108.708 73.2031 111.833 71.2031 114.542 68.4948C122.271 60.7656 124.896 49.8906 122.438 40.0156C121.979 38.1406 119.625 37.4948 118.25 38.8698L102.75 54.3698L88.6042 52.0156L86.25 37.8698L101.75 22.3698C103.125 20.9948 102.458 18.6406 100.563 18.1615C90.6875 15.724 79.8125 18.349 72.1042 26.0573C66.1667 31.9948 63.375 39.8281 63.5208 47.6406L80.625 64.7448C82.3125 64.349 84.0625 64.1406 85.7708 64.1406ZM64.125 81.224L52.3125 69.4115L20.5625 101.182C15.3542 106.391 15.3542 114.828 20.5625 120.036C25.7708 125.245 34.2083 125.245 39.4167 120.036L65.1667 94.2865C63.5833 90.1406 63.1042 85.6198 64.125 81.224ZM30 115.599C27.25 115.599 25 113.349 25 110.599C25 107.828 27.2292 105.599 30 105.599C32.7708 105.599 35 107.828 35 110.599C35 113.349 32.7708 115.599 30 115.599Z" fill="black"/>
</svg>
