<svg width="40" height="41" viewBox="0 0 40 41" fill="none" xmlns="http://www.w3.org/2000/svg">
<g clip-path="url(#clip0_5508_6656)">
<path d="M32.9755 11.7288H7.02316C6.92844 11.7288 6.8376 11.6912 6.77062 11.6242C6.70364 11.5572 6.66602 11.4664 6.66602 11.3717V9.94308C6.66602 9.84836 6.70364 9.75752 6.77062 9.69054C6.8376 9.62357 6.92844 9.58594 7.02316 9.58594H32.9755C33.0703 9.58594 33.1611 9.62357 33.2281 9.69054C33.2951 9.75752 33.3327 9.84836 33.3327 9.94308V11.3717C33.3327 11.4664 33.2951 11.5572 33.2281 11.6242C33.1611 11.6912 33.0703 11.7288 32.9755 11.7288ZM32.9755 21.2526H7.02316C6.92844 21.2526 6.8376 21.215 6.77062 21.148C6.70364 21.081 6.66602 20.9902 6.66602 20.8955V19.4669C6.66602 19.3722 6.70364 19.2813 6.77062 19.2144C6.8376 19.1474 6.92844 19.1097 7.02316 19.1097H32.9755C33.0703 19.1097 33.1611 19.1474 33.2281 19.2144C33.2951 19.2813 33.3327 19.3722 33.3327 19.4669V20.8955C33.3327 20.9902 33.2951 21.081 33.2281 21.148C33.1611 21.215 33.0703 21.2526 32.9755 21.2526ZM32.9755 30.7764H7.02316C6.92844 30.7764 6.8376 30.7388 6.77062 30.6718C6.70364 30.6048 6.66602 30.514 6.66602 30.4193V28.9907C6.66602 28.896 6.70364 28.8051 6.77062 28.7382C6.8376 28.6712 6.92844 28.6336 7.02316 28.6336H32.9755C33.0703 28.6336 33.1611 28.6712 33.2281 28.7382C33.2951 28.8051 33.3327 28.896 33.3327 28.9907V30.4193C33.3327 30.514 33.2951 30.6048 33.2281 30.6718C33.1611 30.7388 33.0703 30.7764 32.9755 30.7764Z" fill="#172B4D"/>
</g>
<defs>
<clipPath id="clip0_5508_6656">
<rect width="40" height="40" fill="white" transform="translate(0 0.183594)"/>
</clipPath>
</defs>
</svg>
