<svg width="109" height="109" viewBox="0 0 109 109" fill="none" xmlns="http://www.w3.org/2000/svg">
<path d="M105.799 55.4481V52.8767C105.799 51.456 104.648 50.3052 103.227 50.3052H58.2271V43.8767H69.7986C72.6384 43.8767 74.9414 41.5736 74.9414 38.7338V18.1624C74.9414 15.3226 72.6384 13.0195 69.7986 13.0195H38.9414C36.1016 13.0195 33.7986 15.3226 33.7986 18.1624V38.7338C33.7986 41.5736 36.1016 43.8767 38.9414 43.8767H50.5128V50.3052H5.51284C4.09212 50.3052 2.94141 51.456 2.94141 52.8767V55.4481C2.94141 56.8688 4.09212 58.0195 5.51284 58.0195H22.2271V64.4481H13.2271C10.3873 64.4481 8.08426 66.7511 8.08426 69.591V90.1624C8.08426 93.0022 10.3873 95.3053 13.2271 95.3053H38.9414C41.7812 95.3053 44.0843 93.0022 44.0843 90.1624V69.591C44.0843 66.7511 41.7812 64.4481 38.9414 64.4481H29.9414V58.0195H78.7986V64.4481H69.7986C66.9587 64.4481 64.6557 66.7511 64.6557 69.591V90.1624C64.6557 93.0022 66.9587 95.3053 69.7986 95.3053H95.5128C98.3527 95.3053 100.656 93.0022 100.656 90.1624V69.591C100.656 66.7511 98.3527 64.4481 95.5128 64.4481H86.5128V58.0195H103.227C104.648 58.0195 105.799 56.8688 105.799 55.4481ZM44.0843 33.591V23.3052H64.6557V33.591H44.0843ZM33.7986 85.0195H18.37V74.7338H33.7986V85.0195ZM90.37 85.0195H74.9414V74.7338H90.37V85.0195Z" fill="#32A7E3"/>
</svg>
