<svg width="342" height="101" viewBox="0 0 342 101" fill="none" xmlns="http://www.w3.org/2000/svg">
<rect x="10" y="4.94922" width="70" height="92" rx="6" stroke="#7F7F7F" stroke-width="4"/>
<path d="M23.44 59.4492V44.5492H28.3C29.8733 44.5492 31.24 44.8692 32.4 45.5092C33.5733 46.1359 34.48 47.0092 35.12 48.1292C35.76 49.2359 36.08 50.5226 36.08 51.9892C36.08 53.4426 35.76 54.7359 35.12 55.8692C34.48 56.9892 33.5733 57.8692 32.4 58.5092C31.24 59.1359 29.8733 59.4492 28.3 59.4492H23.44ZM26.16 57.0492H28.36C29.3733 57.0492 30.2467 56.8426 30.98 56.4292C31.7267 56.0026 32.3067 55.4159 32.72 54.6692C33.1333 53.9092 33.34 53.0159 33.34 51.9892C33.34 50.9492 33.1333 50.0559 32.72 49.3092C32.3067 48.5626 31.7267 47.9826 30.98 47.5692C30.2467 47.1559 29.3733 46.9492 28.36 46.9492H26.16V57.0492ZM41.2856 59.6892C40.5256 59.6892 39.8656 59.5626 39.3056 59.3092C38.7456 59.0559 38.3123 58.6959 38.0056 58.2292C37.699 57.7492 37.5456 57.1959 37.5456 56.5692C37.5456 55.9692 37.679 55.4359 37.9456 54.9692C38.2123 54.4892 38.6256 54.0892 39.1856 53.7692C39.7456 53.4492 40.4523 53.2226 41.3056 53.0892L44.8656 52.5092V54.5092L41.8056 55.0292C41.2856 55.1226 40.899 55.2892 40.6456 55.5292C40.3923 55.7692 40.2656 56.0826 40.2656 56.4692C40.2656 56.8426 40.4056 57.1426 40.6856 57.3692C40.979 57.5826 41.339 57.6892 41.7656 57.6892C42.3123 57.6892 42.7923 57.5759 43.2056 57.3492C43.6323 57.1092 43.959 56.7826 44.1856 56.3692C44.4256 55.9559 44.5456 55.5026 44.5456 55.0092V52.2092C44.5456 51.7426 44.359 51.3559 43.9856 51.0492C43.6256 50.7292 43.1456 50.5692 42.5456 50.5692C41.9856 50.5692 41.4856 50.7226 41.0456 51.0292C40.619 51.3226 40.3056 51.7159 40.1056 52.2092L37.9656 51.1692C38.179 50.5959 38.5123 50.1026 38.9656 49.6892C39.4323 49.2626 39.979 48.9292 40.6056 48.6892C41.2323 48.4492 41.9123 48.3292 42.6456 48.3292C43.539 48.3292 44.3256 48.4959 45.0056 48.8292C45.6856 49.1492 46.2123 49.6026 46.5856 50.1892C46.9723 50.7626 47.1656 51.4359 47.1656 52.2092V59.4492H44.6856V57.5892L45.2456 57.5492C44.9656 58.0159 44.6323 58.4092 44.2456 58.7292C43.859 59.0359 43.419 59.2759 42.9256 59.4492C42.4323 59.6092 41.8856 59.6892 41.2856 59.6892ZM54.3519 59.5692C53.1252 59.5692 52.1719 59.2359 51.4919 58.5692C50.8252 57.8892 50.4919 56.9359 50.4919 55.7092V50.9092H48.6119V48.5692H48.8119C49.3452 48.5692 49.7585 48.4292 50.0519 48.1492C50.3452 47.8692 50.4919 47.4626 50.4919 46.9292V46.0892H53.1119V48.5692H55.6119V50.9092H53.1119V55.5692C53.1119 55.9292 53.1719 56.2359 53.2919 56.4892C53.4252 56.7426 53.6252 56.9359 53.8919 57.0692C54.1719 57.2026 54.5252 57.2692 54.9519 57.2692C55.0452 57.2692 55.1519 57.2626 55.2719 57.2492C55.4052 57.2359 55.5319 57.2226 55.6519 57.2092V59.4492C55.4652 59.4759 55.2519 59.5026 55.0119 59.5292C54.7719 59.5559 54.5519 59.5692 54.3519 59.5692ZM60.9145 59.6892C60.1545 59.6892 59.4945 59.5626 58.9345 59.3092C58.3745 59.0559 57.9412 58.6959 57.6345 58.2292C57.3279 57.7492 57.1745 57.1959 57.1745 56.5692C57.1745 55.9692 57.3079 55.4359 57.5745 54.9692C57.8412 54.4892 58.2545 54.0892 58.8145 53.7692C59.3745 53.4492 60.0812 53.2226 60.9345 53.0892L64.4945 52.5092V54.5092L61.4345 55.0292C60.9145 55.1226 60.5279 55.2892 60.2745 55.5292C60.0212 55.7692 59.8945 56.0826 59.8945 56.4692C59.8945 56.8426 60.0345 57.1426 60.3145 57.3692C60.6079 57.5826 60.9679 57.6892 61.3945 57.6892C61.9412 57.6892 62.4212 57.5759 62.8345 57.3492C63.2612 57.1092 63.5879 56.7826 63.8145 56.3692C64.0545 55.9559 64.1745 55.5026 64.1745 55.0092V52.2092C64.1745 51.7426 63.9879 51.3559 63.6145 51.0492C63.2545 50.7292 62.7745 50.5692 62.1745 50.5692C61.6145 50.5692 61.1145 50.7226 60.6745 51.0292C60.2479 51.3226 59.9345 51.7159 59.7345 52.2092L57.5945 51.1692C57.8079 50.5959 58.1412 50.1026 58.5945 49.6892C59.0612 49.2626 59.6079 48.9292 60.2345 48.6892C60.8612 48.4492 61.5412 48.3292 62.2745 48.3292C63.1679 48.3292 63.9545 48.4959 64.6345 48.8292C65.3145 49.1492 65.8412 49.6026 66.2145 50.1892C66.6012 50.7626 66.7945 51.4359 66.7945 52.2092V59.4492H64.3145V57.5892L64.8745 57.5492C64.5945 58.0159 64.2612 58.4092 63.8745 58.7292C63.4879 59.0359 63.0479 59.2759 62.5545 59.4492C62.0612 59.6092 61.5145 59.6892 60.9145 59.6892Z" fill="#7F7F7F"/>
<path d="M93 49.1992C92.0335 49.1992 91.25 49.9827 91.25 50.9492C91.25 51.9157 92.0335 52.6992 93 52.6992V49.1992ZM124.237 52.1867C124.921 51.5032 124.921 50.3952 124.237 49.7118L113.101 38.5749C112.417 37.8914 111.309 37.8914 110.626 38.5749C109.942 39.2583 109.942 40.3663 110.626 41.0497L120.525 50.9492L110.626 60.8487C109.942 61.5321 109.942 62.6402 110.626 63.3236C111.309 64.007 112.417 64.007 113.101 63.3236L124.237 52.1867ZM93 50.9492V52.6992H123V50.9492V49.1992H93V50.9492Z" fill="#7F7F7F"/>
<g clip-path="url(#clip0_5510_1109)">
<rect x="134" y="2.94922" width="74" height="96" rx="8" fill="#F0E6E6"/>
<g clip-path="url(#clip1_5510_1109)">
<path d="M244.654 -26.2334C253.096 -17.7911 253.096 -4.10344 244.653 4.33887C243.679 5.31336 242.634 6.17391 241.536 6.92345L241.797 11.3552C241.821 11.7708 241.757 12.1868 241.609 12.576C241.461 12.9651 241.233 13.3184 240.938 13.6128L237.705 16.8457L241.179 20.3199C242.331 21.4711 242.331 23.3376 241.179 24.4888L237.705 27.963L241.179 31.4371C242.331 32.5883 242.331 34.4548 241.179 35.606L231.452 45.3336C230.301 46.4848 228.434 46.4848 227.283 45.3336L220.503 38.5539C219.95 38.0011 219.64 37.2512 219.64 36.4694L219.64 8.36339C217.635 7.3532 215.755 6.01262 214.081 4.33887C205.639 -4.10344 205.639 -17.791 214.081 -26.2334C222.548 -34.7007 236.186 -34.7007 244.654 -26.2334ZM225.198 -15.1163C227.501 -12.8138 231.234 -12.8138 233.536 -15.1163C235.839 -17.4187 235.839 -21.1517 233.536 -23.4542C231.234 -25.7566 227.501 -25.7566 225.198 -23.4542C222.896 -21.1517 222.896 -17.4187 225.198 -15.1163Z" fill="#DDC2C2"/>
</g>
<rect x="134" y="34.9492" width="74" height="32" stroke="#9B6A6A" stroke-width="2" stroke-dasharray="2 2"/>
<path d="M149.44 59.4492V44.5492H154.3C155.873 44.5492 157.24 44.8692 158.4 45.5092C159.573 46.1359 160.48 47.0092 161.12 48.1292C161.76 49.2359 162.08 50.5226 162.08 51.9892C162.08 53.4426 161.76 54.7359 161.12 55.8692C160.48 56.9892 159.573 57.8692 158.4 58.5092C157.24 59.1359 155.873 59.4492 154.3 59.4492H149.44ZM152.16 57.0492H154.36C155.373 57.0492 156.247 56.8426 156.98 56.4292C157.727 56.0026 158.307 55.4159 158.72 54.6692C159.133 53.9092 159.34 53.0159 159.34 51.9892C159.34 50.9492 159.133 50.0559 158.72 49.3092C158.307 48.5626 157.727 47.9826 156.98 47.5692C156.247 47.1559 155.373 46.9492 154.36 46.9492H152.16V57.0492ZM167.286 59.6892C166.526 59.6892 165.866 59.5626 165.306 59.3092C164.746 59.0559 164.312 58.6959 164.006 58.2292C163.699 57.7492 163.546 57.1959 163.546 56.5692C163.546 55.9692 163.679 55.4359 163.946 54.9692C164.212 54.4892 164.626 54.0892 165.186 53.7692C165.746 53.4492 166.452 53.2226 167.306 53.0892L170.866 52.5092V54.5092L167.806 55.0292C167.286 55.1226 166.899 55.2892 166.646 55.5292C166.392 55.7692 166.266 56.0826 166.266 56.4692C166.266 56.8426 166.406 57.1426 166.686 57.3692C166.979 57.5826 167.339 57.6892 167.766 57.6892C168.312 57.6892 168.792 57.5759 169.206 57.3492C169.632 57.1092 169.959 56.7826 170.186 56.3692C170.426 55.9559 170.546 55.5026 170.546 55.0092V52.2092C170.546 51.7426 170.359 51.3559 169.986 51.0492C169.626 50.7292 169.146 50.5692 168.546 50.5692C167.986 50.5692 167.486 50.7226 167.046 51.0292C166.619 51.3226 166.306 51.7159 166.106 52.2092L163.966 51.1692C164.179 50.5959 164.512 50.1026 164.966 49.6892C165.432 49.2626 165.979 48.9292 166.606 48.6892C167.232 48.4492 167.912 48.3292 168.646 48.3292C169.539 48.3292 170.326 48.4959 171.006 48.8292C171.686 49.1492 172.212 49.6026 172.586 50.1892C172.972 50.7626 173.166 51.4359 173.166 52.2092V59.4492H170.686V57.5892L171.246 57.5492C170.966 58.0159 170.632 58.4092 170.246 58.7292C169.859 59.0359 169.419 59.2759 168.926 59.4492C168.432 59.6092 167.886 59.6892 167.286 59.6892ZM180.352 59.5692C179.125 59.5692 178.172 59.2359 177.492 58.5692C176.825 57.8892 176.492 56.9359 176.492 55.7092V50.9092H174.612V48.5692H174.812C175.345 48.5692 175.759 48.4292 176.052 48.1492C176.345 47.8692 176.492 47.4626 176.492 46.9292V46.0892H179.112V48.5692H181.612V50.9092H179.112V55.5692C179.112 55.9292 179.172 56.2359 179.292 56.4892C179.425 56.7426 179.625 56.9359 179.892 57.0692C180.172 57.2026 180.525 57.2692 180.952 57.2692C181.045 57.2692 181.152 57.2626 181.272 57.2492C181.405 57.2359 181.532 57.2226 181.652 57.2092V59.4492C181.465 59.4759 181.252 59.5026 181.012 59.5292C180.772 59.5559 180.552 59.5692 180.352 59.5692ZM186.915 59.6892C186.155 59.6892 185.495 59.5626 184.935 59.3092C184.375 59.0559 183.941 58.6959 183.635 58.2292C183.328 57.7492 183.175 57.1959 183.175 56.5692C183.175 55.9692 183.308 55.4359 183.575 54.9692C183.841 54.4892 184.255 54.0892 184.815 53.7692C185.375 53.4492 186.081 53.2226 186.935 53.0892L190.495 52.5092V54.5092L187.435 55.0292C186.915 55.1226 186.528 55.2892 186.275 55.5292C186.021 55.7692 185.895 56.0826 185.895 56.4692C185.895 56.8426 186.035 57.1426 186.315 57.3692C186.608 57.5826 186.968 57.6892 187.395 57.6892C187.941 57.6892 188.421 57.5759 188.835 57.3492C189.261 57.1092 189.588 56.7826 189.815 56.3692C190.055 55.9559 190.175 55.5026 190.175 55.0092V52.2092C190.175 51.7426 189.988 51.3559 189.615 51.0492C189.255 50.7292 188.775 50.5692 188.175 50.5692C187.615 50.5692 187.115 50.7226 186.675 51.0292C186.248 51.3226 185.935 51.7159 185.735 52.2092L183.595 51.1692C183.808 50.5959 184.141 50.1026 184.595 49.6892C185.061 49.2626 185.608 48.9292 186.235 48.6892C186.861 48.4492 187.541 48.3292 188.275 48.3292C189.168 48.3292 189.955 48.4959 190.635 48.8292C191.315 49.1492 191.841 49.6026 192.215 50.1892C192.601 50.7626 192.795 51.4359 192.795 52.2092V59.4492H190.315V57.5892L190.875 57.5492C190.595 58.0159 190.261 58.4092 189.875 58.7292C189.488 59.0359 189.048 59.2759 188.555 59.4492C188.061 59.6092 187.515 59.6892 186.915 59.6892Z" fill="#9B6A6A"/>
</g>
<rect x="134" y="2.94922" width="74" height="96" rx="8" stroke="#9B6A6A" stroke-width="4"/>
<path d="M219 49.1992C218.034 49.1992 217.25 49.9827 217.25 50.9492C217.25 51.9157 218.034 52.6992 219 52.6992V49.1992ZM250.237 52.1867C250.921 51.5032 250.921 50.3952 250.237 49.7118L239.101 38.5749C238.417 37.8914 237.309 37.8914 236.626 38.5749C235.942 39.2583 235.942 40.3663 236.626 41.0497L246.525 50.9492L236.626 60.8487C235.942 61.5321 235.942 62.6402 236.626 63.3236C237.309 64.007 238.417 64.007 239.101 63.3236L250.237 52.1867ZM219 50.9492V52.6992H249V50.9492V49.1992H219V50.9492Z" fill="#7F7F7F"/>
<g clip-path="url(#clip2_5510_1109)">
<path d="M260 10.9492C260 6.53095 263.582 2.94922 268 2.94922H326C330.418 2.94922 334 6.53094 334 10.9492V30.2826H260V10.9492Z" fill="#F0E6E6"/>
<path d="M312.286 16.4307C320.729 24.873 320.729 38.5606 312.286 47.0029C311.312 47.9774 310.267 48.838 309.169 49.5875L309.429 54.0193C309.454 54.4349 309.39 54.8509 309.242 55.24C309.094 55.6291 308.865 55.9825 308.571 56.2769L305.338 59.5098L308.812 62.9839C309.963 64.1352 309.963 66.0016 308.812 67.1529L305.338 70.627L308.812 74.1011C309.963 75.2524 309.963 77.1189 308.812 78.2701L299.085 87.9977C297.933 89.1489 296.067 89.1489 294.916 87.9977L288.136 81.218C287.583 80.6652 287.273 79.9153 287.272 79.1335L287.272 51.0275C285.268 50.0173 283.388 48.6767 281.714 47.0029C273.272 38.5606 273.272 24.8731 281.714 16.4307C290.181 7.96336 303.819 7.96336 312.286 16.4307ZM292.831 27.5478C295.134 29.8503 298.867 29.8503 301.169 27.5478C303.472 25.2453 303.472 21.5124 301.169 19.2099C298.867 16.9074 295.134 16.9074 292.831 19.2099C290.529 21.5124 290.529 25.2453 292.831 27.5478Z" fill="#DDC2C2"/>
</g>
<path d="M258 10.9492C258 5.42637 262.477 0.949219 268 0.949219H326C331.523 0.949219 336 5.42637 336 10.9492H332C332 7.63551 329.314 4.94922 326 4.94922H268C264.686 4.94922 262 7.63551 262 10.9492H258ZM334 30.2826H260H334ZM258 30.2826V10.9492C258 5.42637 262.477 0.949219 268 0.949219V4.94922C264.686 4.94922 262 7.63551 262 10.9492V30.2826H258ZM326 0.949219C331.523 0.949219 336 5.42637 336 10.9492V30.2826H332V10.9492C332 7.63551 329.314 4.94922 326 4.94922V0.949219Z" fill="#9B6A6A"/>
<g clip-path="url(#clip3_5510_1109)">
<path d="M260 37.2812H334V64.6146H260V37.2812Z" fill="#F0E6E6"/>
<path d="M312.755 21.3994C321.197 29.8417 321.197 43.5294 312.755 51.9717C311.781 52.9462 310.736 53.8067 309.637 54.5563L309.898 58.988C309.923 59.4036 309.859 59.8197 309.711 60.2088C309.563 60.5979 309.334 60.9513 309.04 61.2456L305.807 64.4786L309.281 67.9527C310.432 69.1039 310.432 70.9704 309.281 72.1216L305.807 75.5958L309.281 79.0699C310.432 80.2211 310.432 82.0876 309.281 83.2389L299.553 92.9664C298.402 94.1177 296.536 94.1177 295.384 92.9664L288.605 86.1867C288.052 85.6339 287.741 84.884 287.741 84.1023L287.741 55.9962C285.737 54.986 283.856 53.6454 282.183 51.9717C273.74 43.5294 273.74 29.8418 282.183 21.3994C290.65 12.9321 304.288 12.9321 312.755 21.3994ZM293.3 32.5166C295.602 34.819 299.335 34.819 301.638 32.5166C303.94 30.2141 303.94 26.4811 301.638 24.1786C299.335 21.8762 295.602 21.8762 293.3 24.1786C290.997 26.4811 290.997 30.2141 293.3 32.5166Z" fill="#DDC2C2"/>
<path d="M275.44 59.4492V44.5492H280.3C281.873 44.5492 283.24 44.8692 284.4 45.5092C285.573 46.1359 286.48 47.0092 287.12 48.1292C287.76 49.2359 288.08 50.5226 288.08 51.9892C288.08 53.4426 287.76 54.7359 287.12 55.8692C286.48 56.9892 285.573 57.8692 284.4 58.5092C283.24 59.1359 281.873 59.4492 280.3 59.4492H275.44ZM278.16 57.0492H280.36C281.373 57.0492 282.247 56.8426 282.98 56.4292C283.727 56.0026 284.307 55.4159 284.72 54.6692C285.133 53.9092 285.34 53.0159 285.34 51.9892C285.34 50.9492 285.133 50.0559 284.72 49.3092C284.307 48.5626 283.727 47.9826 282.98 47.5692C282.247 47.1559 281.373 46.9492 280.36 46.9492H278.16V57.0492ZM293.286 59.6892C292.526 59.6892 291.866 59.5626 291.306 59.3092C290.746 59.0559 290.312 58.6959 290.006 58.2292C289.699 57.7492 289.546 57.1959 289.546 56.5692C289.546 55.9692 289.679 55.4359 289.946 54.9692C290.212 54.4892 290.626 54.0892 291.186 53.7692C291.746 53.4492 292.452 53.2226 293.306 53.0892L296.866 52.5092V54.5092L293.806 55.0292C293.286 55.1226 292.899 55.2892 292.646 55.5292C292.392 55.7692 292.266 56.0826 292.266 56.4692C292.266 56.8426 292.406 57.1426 292.686 57.3692C292.979 57.5826 293.339 57.6892 293.766 57.6892C294.312 57.6892 294.792 57.5759 295.206 57.3492C295.632 57.1092 295.959 56.7826 296.186 56.3692C296.426 55.9559 296.546 55.5026 296.546 55.0092V52.2092C296.546 51.7426 296.359 51.3559 295.986 51.0492C295.626 50.7292 295.146 50.5692 294.546 50.5692C293.986 50.5692 293.486 50.7226 293.046 51.0292C292.619 51.3226 292.306 51.7159 292.106 52.2092L289.966 51.1692C290.179 50.5959 290.512 50.1026 290.966 49.6892C291.432 49.2626 291.979 48.9292 292.606 48.6892C293.232 48.4492 293.912 48.3292 294.646 48.3292C295.539 48.3292 296.326 48.4959 297.006 48.8292C297.686 49.1492 298.212 49.6026 298.586 50.1892C298.972 50.7626 299.166 51.4359 299.166 52.2092V59.4492H296.686V57.5892L297.246 57.5492C296.966 58.0159 296.632 58.4092 296.246 58.7292C295.859 59.0359 295.419 59.2759 294.926 59.4492C294.432 59.6092 293.886 59.6892 293.286 59.6892ZM306.352 59.5692C305.125 59.5692 304.172 59.2359 303.492 58.5692C302.825 57.8892 302.492 56.9359 302.492 55.7092V50.9092H300.612V48.5692H300.812C301.345 48.5692 301.759 48.4292 302.052 48.1492C302.345 47.8692 302.492 47.4626 302.492 46.9292V46.0892H305.112V48.5692H307.612V50.9092H305.112V55.5692C305.112 55.9292 305.172 56.2359 305.292 56.4892C305.425 56.7426 305.625 56.9359 305.892 57.0692C306.172 57.2026 306.525 57.2692 306.952 57.2692C307.045 57.2692 307.152 57.2626 307.272 57.2492C307.405 57.2359 307.532 57.2226 307.652 57.2092V59.4492C307.465 59.4759 307.252 59.5026 307.012 59.5292C306.772 59.5559 306.552 59.5692 306.352 59.5692ZM312.915 59.6892C312.155 59.6892 311.495 59.5626 310.935 59.3092C310.375 59.0559 309.941 58.6959 309.635 58.2292C309.328 57.7492 309.175 57.1959 309.175 56.5692C309.175 55.9692 309.308 55.4359 309.575 54.9692C309.841 54.4892 310.255 54.0892 310.815 53.7692C311.375 53.4492 312.081 53.2226 312.935 53.0892L316.495 52.5092V54.5092L313.435 55.0292C312.915 55.1226 312.528 55.2892 312.275 55.5292C312.021 55.7692 311.895 56.0826 311.895 56.4692C311.895 56.8426 312.035 57.1426 312.315 57.3692C312.608 57.5826 312.968 57.6892 313.395 57.6892C313.941 57.6892 314.421 57.5759 314.835 57.3492C315.261 57.1092 315.588 56.7826 315.815 56.3692C316.055 55.9559 316.175 55.5026 316.175 55.0092V52.2092C316.175 51.7426 315.988 51.3559 315.615 51.0492C315.255 50.7292 314.775 50.5692 314.175 50.5692C313.615 50.5692 313.115 50.7226 312.675 51.0292C312.248 51.3226 311.935 51.7159 311.735 52.2092L309.595 51.1692C309.808 50.5959 310.141 50.1026 310.595 49.6892C311.061 49.2626 311.608 48.9292 312.235 48.6892C312.861 48.4492 313.541 48.3292 314.275 48.3292C315.168 48.3292 315.955 48.4959 316.635 48.8292C317.315 49.1492 317.841 49.6026 318.215 50.1892C318.601 50.7626 318.795 51.4359 318.795 52.2092V59.4492H316.315V57.5892L316.875 57.5492C316.595 58.0159 316.261 58.4092 315.875 58.7292C315.488 59.0359 315.048 59.2759 314.555 59.4492C314.061 59.6092 313.515 59.6892 312.915 59.6892Z" fill="#9B6A6A"/>
</g>
<path d="M334 37.2812H332V64.6146H334H336V37.2812H334ZM260 64.6146H262V37.2812H260H258V64.6146H260Z" fill="#9B6A6A"/>
<g clip-path="url(#clip4_5510_1109)">
<path d="M260 71.6172H334V90.9505C334 95.3688 330.418 98.9505 326 98.9505H268C263.582 98.9505 260 95.3688 260 90.9505V71.6172Z" fill="#F0E6E6"/>
<path d="M312.286 20.4033C320.729 28.8456 320.729 42.5333 312.286 50.9756C311.312 51.9501 310.267 52.8106 309.169 53.5602L309.429 57.9919C309.454 58.4075 309.39 58.8236 309.242 59.2127C309.094 59.6018 308.865 59.9552 308.571 60.2495L305.338 63.4825L308.812 66.9566C309.963 68.1078 309.963 69.9743 308.812 71.1255L305.338 74.5997L308.812 78.0738C309.963 79.225 309.963 81.0915 308.812 82.2428L299.085 91.9703C297.933 93.1216 296.067 93.1216 294.916 91.9703L288.136 85.1906C287.583 84.6378 287.273 83.8879 287.272 83.1062L287.272 55.0001C285.268 53.9899 283.388 52.6493 281.714 50.9756C273.272 42.5333 273.272 28.8457 281.714 20.4033C290.181 11.936 303.819 11.936 312.286 20.4033ZM292.831 31.5205C295.134 33.8229 298.867 33.8229 301.169 31.5205C303.472 29.218 303.472 25.485 301.169 23.1826C298.867 20.8801 295.134 20.8801 292.831 23.1826C290.529 25.485 290.529 29.218 292.831 31.5205Z" fill="#DDC2C2"/>
</g>
<path d="M260 71.6172H334H260ZM336 90.9505C336 96.4734 331.523 100.951 326 100.951H268C262.477 100.951 258 96.4734 258 90.9505H262C262 94.2642 264.686 96.9505 268 96.9505H326C329.314 96.9505 332 94.2642 332 90.9505H336ZM268 100.951C262.477 100.951 258 96.4734 258 90.9505V71.6172H262V90.9505C262 94.2642 264.686 96.9505 268 96.9505V100.951ZM336 71.6172V90.9505C336 96.4734 331.523 100.951 326 100.951V96.9505C329.314 96.9505 332 94.2642 332 90.9505V71.6172H336Z" fill="#9B6A6A"/>
<defs>
<clipPath id="clip0_5510_1109">
<rect x="134" y="2.94922" width="74" height="96" rx="8" fill="white"/>
</clipPath>
<clipPath id="clip1_5510_1109">
<rect width="82.5411" height="82.5411" fill="white" transform="translate(171 2.94922) rotate(-45)"/>
</clipPath>
<clipPath id="clip2_5510_1109">
<path d="M260 10.9492C260 6.53095 263.582 2.94922 268 2.94922H326C330.418 2.94922 334 6.53094 334 10.9492V30.2826H260V10.9492Z" fill="white"/>
</clipPath>
<clipPath id="clip3_5510_1109">
<path d="M260 37.2812H334V64.6146H260V37.2812Z" fill="white"/>
</clipPath>
<clipPath id="clip4_5510_1109">
<path d="M260 71.6172H334V90.9505C334 95.3688 330.418 98.9505 326 98.9505H268C263.582 98.9505 260 95.3688 260 90.9505V71.6172Z" fill="white"/>
</clipPath>
</defs>
</svg>
