<svg width="108" height="109" viewBox="0 0 108 109" fill="none" xmlns="http://www.w3.org/2000/svg">
<path d="M87.4275 62.3025C87.4275 80.7685 72.465 95.731 53.9989 95.731C35.5328 95.731 20.5703 80.7685 20.5703 62.3025C20.5703 45.5882 32.8328 31.7346 48.856 29.2757V23.731H44.356C43.2953 23.731 42.4275 22.8632 42.4275 21.8025V15.3739C42.4275 14.3132 43.2953 13.4453 44.356 13.4453H63.6417C64.7025 13.4453 65.5703 14.3132 65.5703 15.3739V21.8025C65.5703 22.8632 64.7025 23.731 63.6417 23.731H59.1417V29.2757C65.1685 30.2078 70.665 32.7471 75.165 36.4435L79.5846 32.0239C80.34 31.2685 81.5614 31.2685 82.3167 32.0239L86.865 36.5721C87.6203 37.3275 87.6203 38.5489 86.865 39.3042L82.14 44.0292L82.0435 44.1257C85.4507 49.3328 87.4275 55.5846 87.4275 62.3025ZM59.1417 68.0882V43.74C59.1417 42.6792 58.2739 41.8114 57.2132 41.8114H50.7846C49.7239 41.8114 48.856 42.6792 48.856 43.74V68.0882C48.856 69.1489 49.7239 70.0167 50.7846 70.0167H57.2132C58.2739 70.0167 59.1417 69.1489 59.1417 68.0882Z" fill="#32A7E3"/>
</svg>
