<svg width="109" height="109" viewBox="0 0 109 109" fill="none" xmlns="http://www.w3.org/2000/svg">
<path d="M87.7985 61.8767C87.7985 80.3428 72.836 95.3053 54.37 95.3053C35.9039 95.3053 20.9414 80.3428 20.9414 61.8767C20.9414 45.1624 33.2039 31.3088 49.2271 28.8499V23.3052H44.7271C43.6664 23.3052 42.7985 22.4374 42.7985 21.3767V14.9481C42.7985 13.8874 43.6664 13.0195 44.7271 13.0195H64.0128C65.0735 13.0195 65.9414 13.8874 65.9414 14.9481V21.3767C65.9414 22.4374 65.0735 23.3052 64.0128 23.3052H59.5128V28.8499C65.5396 29.782 71.0361 32.3213 75.5361 36.0177L79.9557 31.5981C80.7111 30.8427 81.9325 30.8427 82.6878 31.5981L87.236 36.1463C87.9914 36.9017 87.9914 38.1231 87.236 38.8785L82.511 43.6035L82.4146 43.6999C85.8218 48.907 87.7985 55.1588 87.7985 61.8767ZM59.5128 67.6624V43.3142C59.5128 42.2535 58.645 41.3856 57.5843 41.3856H51.1557C50.095 41.3856 49.2271 42.2535 49.2271 43.3142V67.6624C49.2271 68.7231 50.095 69.591 51.1557 69.591H57.5843C58.645 69.591 59.5128 68.7231 59.5128 67.6624Z" fill="#32A7E3"/>
</svg>
