<svg width="109" height="109" viewBox="0 0 109 109" fill="none" xmlns="http://www.w3.org/2000/svg">
<path d="M104.136 68.2414L87.9543 84.4231C86.448 85.9293 84.0059 85.9293 82.4995 84.4231L66.3177 68.2414C64.8113 66.735 64.8113 64.2928 66.3177 62.7866L68.0571 61.0472C69.5939 59.5104 72.0963 59.5461 73.5887 61.1263L80.084 68.0035V38.7346H49.9422C48.9192 38.7345 47.9382 38.3282 47.2147 37.6049L44.6433 35.0335C42.2134 32.6035 43.9344 28.4489 47.3708 28.4489H86.5126C88.6428 28.4489 90.3697 30.1757 90.3697 32.306V68.0035L96.8652 61.1263C98.3574 59.5463 100.86 59.5104 102.397 61.0472L104.136 62.7866C105.642 64.2928 105.642 66.7352 104.136 68.2414ZM61.5246 70.7214C61.1664 70.3632 60.7412 70.0791 60.2732 69.8853C59.8052 69.6914 59.3036 69.5917 58.7971 69.5917H28.6554V40.3226L35.1509 47.1999C36.6433 48.7799 39.1456 48.8157 40.6825 47.2788L42.4217 45.5395C43.9281 44.0332 43.9281 41.591 42.4217 40.0847L26.2401 23.9032C24.7337 22.3968 22.2915 22.3968 20.7853 23.9032L4.60341 40.0849C3.09704 41.5913 3.09704 44.0335 4.60341 45.5397L6.34266 47.279C7.87941 48.8157 10.3819 48.78 11.8743 47.2L18.3697 40.3226V76.0203C18.3697 78.1506 20.0966 79.8774 22.2269 79.8774H61.3687C64.8051 79.8774 66.526 75.7228 64.0961 73.2928L61.5246 70.7214Z" fill="#32A7E3"/>
</svg>
