<svg width="109" height="109" viewBox="0 0 109 109" fill="none" xmlns="http://www.w3.org/2000/svg">
<path d="M54.3724 18.1602C31.6474 18.1602 13.2295 33.1227 13.2295 51.5887C13.2295 59.5602 16.6688 66.8566 22.3902 72.5941C20.3813 80.6941 13.6634 87.9102 13.5831 87.9905C13.2295 88.3602 13.1331 88.9066 13.342 89.3887C13.5509 89.8709 14.0009 90.1602 14.5152 90.1602C25.1706 90.1602 33.1581 85.0494 37.1116 81.8994C42.367 83.8762 48.2009 85.0173 54.3724 85.0173C77.0974 85.0173 95.5152 70.0548 95.5152 51.5887C95.5152 33.1227 77.0974 18.1602 54.3724 18.1602ZM59.5152 60.5887C59.5152 61.2959 58.9366 61.8744 58.2295 61.8744H35.0866C34.3795 61.8744 33.8009 61.2959 33.8009 60.5887V58.0173C33.8009 57.3102 34.3795 56.7316 35.0866 56.7316H58.2295C58.9366 56.7316 59.5152 57.3102 59.5152 58.0173V60.5887ZM74.9438 45.1602C74.9438 45.8673 74.3652 46.4459 73.6581 46.4459H35.0866C34.3795 46.4459 33.8009 45.8673 33.8009 45.1602V42.5887C33.8009 41.8816 34.3795 41.303 35.0866 41.303H73.6581C74.3652 41.303 74.9438 41.8816 74.9438 42.5887V45.1602Z" fill="#32A7E3"/>
</svg>
