<svg width="109" height="109" viewBox="0 0 109 109" fill="none" xmlns="http://www.w3.org/2000/svg">
<path d="M64.6557 64.4481H44.0843C41.2444 64.4481 38.9414 66.7511 38.9414 69.591V90.1624C38.9414 93.0022 41.2444 95.3053 44.0843 95.3053H64.6557C67.4955 95.3053 69.7986 93.0022 69.7986 90.1624V69.591C69.7986 66.7511 67.4955 64.4481 64.6557 64.4481ZM33.7986 18.1624C33.7986 15.3226 31.4955 13.0195 28.6557 13.0195H8.08426C5.24444 13.0195 2.94141 15.3226 2.94141 18.1624V38.7338C2.94141 41.5736 5.24444 43.8767 8.08426 43.8767H23.4678L35.2257 64.4545C37.0096 61.3913 40.2914 59.3052 44.0843 59.3052H44.1293L33.7986 41.2265V33.591H69.7986V23.3052H33.7986V18.1624ZM100.656 13.0195H80.0843C77.2444 13.0195 74.9414 15.3226 74.9414 18.1624V38.7338C74.9414 41.5736 77.2444 43.8767 80.0843 43.8767H100.656C103.496 43.8767 105.799 41.5736 105.799 38.7338V18.1624C105.799 15.3226 103.496 13.0195 100.656 13.0195Z" fill="#32A7E3"/>
</svg>
