<svg width="128" height="134" viewBox="0 0 128 134" fill="none" xmlns="http://www.w3.org/2000/svg">
<g filter="url(#filter0_i_5510_1085)">
<g clip-path="url(#clip0_5510_1085)">
<path d="M0.5 6.94766C0.5 3.44065 3.34299 0.597656 6.85 0.597656H121.15C124.657 0.597656 127.5 3.44065 127.5 6.94766V121.248C127.5 124.755 124.657 127.598 121.15 127.598H6.85C3.34299 127.598 0.5 124.755 0.5 121.248V6.94766Z" fill="url(#paint0_linear_5510_1085)"/>
<path d="M0.5 127.6L78.2875 49.8125" stroke="#BFC0BD" stroke-width="4.7625"/>
<rect x="65.5879" y="0.597656" width="61.9125" height="61.9125" rx="6.35" fill="#C11778"/>
</g>
<rect x="13.1992" y="127.598" width="25.4" height="6.35" rx="1.5875" fill="#BEBBBA"/>
<rect x="89.4004" y="127.598" width="25.4" height="6.35" rx="1.5875" fill="#BEBBBA"/>
</g>
<defs>
<filter id="filter0_i_5510_1085" x="0.5" y="0.597656" width="127" height="137.352" filterUnits="userSpaceOnUse" color-interpolation-filters="sRGB">
<feFlood flood-opacity="0" result="BackgroundImageFix"/>
<feBlend mode="normal" in="SourceGraphic" in2="BackgroundImageFix" result="shape"/>
<feColorMatrix in="SourceAlpha" type="matrix" values="0 0 0 0 0 0 0 0 0 0 0 0 0 0 0 0 0 0 127 0" result="hardAlpha"/>
<feOffset dy="4"/>
<feGaussianBlur stdDeviation="4"/>
<feComposite in2="hardAlpha" operator="arithmetic" k2="-1" k3="1"/>
<feColorMatrix type="matrix" values="0 0 0 0 0 0 0 0 0 0 0 0 0 0 0 0 0 0 0.16 0"/>
<feBlend mode="normal" in2="shape" result="effect1_innerShadow_5510_1085"/>
</filter>
<linearGradient id="paint0_linear_5510_1085" x1="0.5" y1="64.0977" x2="127.5" y2="64.0977" gradientUnits="userSpaceOnUse">
<stop offset="0.095" stop-color="#DEDFDA"/>
<stop offset="1" stop-color="#F5F5F5"/>
</linearGradient>
<clipPath id="clip0_5510_1085">
<path d="M0.5 6.94766C0.5 3.44065 3.34299 0.597656 6.85 0.597656H121.15C124.657 0.597656 127.5 3.44065 127.5 6.94766V121.248C127.5 124.755 124.657 127.598 121.15 127.598H6.85C3.34299 127.598 0.5 124.755 0.5 121.248V6.94766Z" fill="white"/>
</clipPath>
</defs>
</svg>
